# Blender 3.6.5
# www.blender.org
mtllib untitled.mtl
o pCylinder4
v 0.001666 0.008854 -0.004647
v 0.001666 0.005680 -0.008230
v 0.001666 0.001205 -0.009927
v 0.001666 -0.003547 -0.009350
v 0.001666 -0.007486 -0.006631
v 0.001666 -0.009710 -0.002393
v 0.001666 -0.009710 0.002393
v 0.001666 -0.007486 0.006631
v 0.001666 -0.003547 0.009350
v 0.001666 0.001205 0.009927
v 0.001666 0.005680 0.008230
v 0.001666 0.008854 0.004647
v 0.001666 0.010000 -0.000000
v -0.001666 0.008854 -0.004647
v -0.001666 0.005680 -0.008230
v -0.001666 0.001205 -0.009927
v -0.001666 -0.003547 -0.009350
v -0.001666 -0.007486 -0.006631
v -0.001666 -0.009710 -0.002393
v -0.001666 -0.009710 0.002393
v -0.001666 -0.007486 0.006631
v -0.001666 -0.003547 0.009350
v -0.001666 0.001205 0.009927
v -0.001666 0.005680 0.008230
v -0.001666 0.008854 0.004647
v -0.001666 0.010000 -0.000000
v -0.001666 -0.000000 0.000000
v 0.001666 0.008199 -0.004298
v 0.001666 0.005264 -0.007611
v 0.001666 0.001125 -0.009180
v 0.001666 -0.003269 -0.008647
v 0.001666 -0.006911 -0.006132
v 0.001666 -0.008968 -0.002213
v 0.001666 -0.008968 0.002213
v 0.001666 -0.006911 0.006132
v 0.001666 -0.003269 0.008647
v 0.001666 0.001125 0.009180
v 0.001666 0.005264 0.007611
v 0.001666 0.008199 0.004298
v 0.001666 0.009258 -0.000000
v 0.001181 0.008199 -0.004298
v 0.001181 0.005264 -0.007611
v 0.001181 0.000010 -0.000000
v 0.001181 0.001125 -0.009180
v 0.001181 -0.003269 -0.008647
v 0.001181 -0.006911 -0.006132
v 0.001181 -0.008968 -0.002213
v 0.001181 -0.008968 0.002213
v 0.001181 -0.006911 0.006132
v 0.001181 -0.003269 0.008647
v 0.001181 0.001125 0.009180
v 0.001181 0.005264 0.007611
v 0.001181 0.008199 0.004298
v 0.001181 0.009258 -0.000000
v 0.000386 0.009483 -0.000874
v -0.000560 0.009483 -0.001090
v -0.001319 0.009483 -0.000485
v -0.001319 0.009483 0.000485
v -0.000560 0.009483 0.001090
v 0.000386 0.009483 0.000874
v 0.000807 0.009483 -0.000000
v 0.000386 0.010665 -0.000874
v -0.000560 0.010665 -0.001090
v -0.001319 0.010665 -0.000485
v -0.001319 0.010665 0.000485
v -0.000560 0.010665 0.001090
v 0.000386 0.010665 0.000874
v 0.000807 0.010665 -0.000000
v -0.000311 0.009483 -0.000000
v -0.000311 0.010665 -0.000000
v 0.000386 0.006255 -0.006956
v -0.000560 0.006111 -0.007118
v -0.001319 0.006512 -0.006665
v -0.001319 0.007155 -0.005938
v -0.000560 0.007556 -0.005485
v 0.000386 0.007413 -0.005646
v 0.000807 0.006834 -0.006301
v 0.000386 0.007259 -0.007845
v -0.000560 0.007116 -0.008006
v -0.001319 0.007517 -0.007553
v -0.001319 0.008160 -0.006827
v -0.000560 0.008561 -0.006373
v 0.000386 0.008418 -0.006535
v 0.000807 0.007838 -0.007190
v -0.000311 0.006834 -0.006301
v -0.000311 0.007838 -0.007190
vn -0.0000 0.5681 -0.8230
vn -0.0000 0.8855 -0.4647
vn -0.0000 0.1205 -0.9927
vn -0.0000 -0.3546 -0.9350
vn -0.0000 -0.7485 -0.6631
vn -0.0000 -0.9709 -0.2393
vn -0.0000 -0.9709 0.2393
vn -0.0000 -0.7485 0.6631
vn -0.0000 -0.3546 0.9350
vn -0.0000 0.1205 0.9927
vn -0.0000 0.5681 0.8230
vn -0.0000 0.8855 0.4647
vn -0.0000 1.0000 -0.0000
vn 1.0000 -0.0000 -0.0000
vn -1.0000 -0.0000 -0.0000
vn 0.2225 -0.0000 -0.9749
vn -0.6235 -0.0000 -0.7818
vn -0.6235 -0.0000 0.7818
vn 0.2225 -0.0000 0.9749
vn 0.9010 -0.0000 0.4339
vn 0.9010 -0.0000 -0.4339
vn -0.0000 -1.0000 -0.0000
vn 0.2225 -0.6459 -0.7303
vn -0.6235 -0.5180 -0.5856
vn -0.6235 0.5180 0.5856
vn 0.2225 0.6459 0.7303
vn 0.9010 0.2874 0.3250
vn 0.9010 -0.2874 -0.3250
vn -0.0000 -0.7491 0.6625
vn -0.0000 0.7491 -0.6625
vt 0.111584 0.445034
vt 0.049692 0.594908
vt 0.049692 0.445034
vt 0.173476 0.445034
vt 0.111584 0.594908
vt 0.235369 0.445034
vt 0.173476 0.594908
vt 0.297261 0.445034
vt 0.235369 0.594908
vt 0.359153 0.445034
vt 0.297261 0.594908
vt 0.421046 0.445034
vt 0.359153 0.594908
vt 0.482938 0.445034
vt 0.421046 0.594908
vt 0.544830 0.445034
vt 0.482938 0.594908
vt 0.606723 0.445034
vt 0.544830 0.594908
vt 0.668615 0.445034
vt 0.606723 0.594908
vt 0.730507 0.445034
vt 0.668615 0.594908
vt 0.792400 0.445034
vt 0.730507 0.594908
vt 0.854292 0.445034
vt 0.792400 0.594908
vt 0.938739 0.324134
vt 0.876153 0.380242
vt 0.792961 0.224800
vt 0.968113 0.245317
vt 0.957485 0.161804
vt 0.909220 0.092735
vt 0.834325 0.053993
vt 0.749983 0.054571
vt 0.675612 0.094356
vt 0.628347 0.164167
vt 0.618960 0.247879
vt 0.649519 0.326283
vt 0.712948 0.381469
vt 0.794707 0.400920
vt 0.885880 0.631100
vt 0.952801 0.692319
vt 0.795154 0.797462
vt 0.983606 0.777624
vt 0.971239 0.867475
vt 0.918533 0.941286
vt 0.837562 0.982149
vt 0.746876 0.980703
vt 0.667250 0.937278
vt 0.616925 0.861823
vt 0.607430 0.771624
vt 0.640941 0.687344
vt 0.709779 0.628291
vt 0.798176 0.607993
vt 0.889558 0.404525
vt 0.951538 0.332331
vt 0.961964 0.339229
vt 0.983268 0.246437
vt 0.995790 0.247677
vt 0.971440 0.155551
vt 0.983190 0.150811
vt 0.918679 0.080507
vt 0.926969 0.070831
vt 0.836998 0.038558
vt 0.839921 0.026111
vt 0.745109 0.039498
vt 0.741959 0.027107
vt 0.655755 0.073633
vt 0.664247 0.083137
vt 0.601216 0.154886
vt 0.613069 0.159363
vt 0.590722 0.252060
vt 0.603213 0.250536
vt 0.626552 0.342884
vt 0.636818 0.335749
vt 0.700389 0.406594
vt 0.706084 0.395532
vt 0.795229 0.428786
vt 0.795087 0.416377
vt 0.883612 0.393596
vt 0.410714 0.312500
vt 0.375000 0.688440
vt 0.375000 0.312500
vt 0.446429 0.312500
vt 0.410714 0.688440
vt 0.482143 0.312500
vt 0.446429 0.688440
vt 0.517857 0.312500
vt 0.482143 0.688440
vt 0.553571 0.312500
vt 0.517857 0.688440
vt 0.589286 0.312500
vt 0.553571 0.688440
vt 0.625000 0.312500
vt 0.589286 0.688440
vt 0.465231 0.003918
vt 0.597420 0.034089
vt 0.500000 0.150000
vt 0.359224 0.088456
vt 0.359224 0.224044
vt 0.465231 0.308582
vt 0.597420 0.278411
vt 0.656250 0.156250
vt 0.597420 0.965911
vt 0.465231 0.996082
vt 0.500000 0.837500
vt 0.359224 0.911544
vt 0.359224 0.775956
vt 0.465231 0.691418
vt 0.597420 0.721589
vt 0.656250 0.843750
vt 0.854292 0.594908
vt 0.625000 0.688440
s 1
usemtl Stopwatch_Body
f 2/1/1 14/2/2 1/3/2
f 3/4/3 15/5/1 2/1/1
f 4/6/4 16/7/3 3/4/3
f 5/8/5 17/9/4 4/6/4
f 6/10/6 18/11/5 5/8/5
f 7/12/7 19/13/6 6/10/6
f 8/14/8 20/15/7 7/12/7
f 9/16/9 21/17/8 8/14/8
f 10/18/10 22/19/9 9/16/9
f 11/20/11 23/21/10 10/18/10
f 12/22/12 24/23/11 11/20/11
f 13/24/13 25/25/12 12/22/12
f 1/26/2 26/27/13 13/24/13
f 42/28/14 41/29/14 43/30/14
f 44/31/14 42/28/14 43/30/14
f 45/32/14 44/31/14 43/30/14
f 46/33/14 45/32/14 43/30/14
f 47/34/14 46/33/14 43/30/14
f 48/35/14 47/34/14 43/30/14
f 49/36/14 48/35/14 43/30/14
f 50/37/14 49/36/14 43/30/14
f 51/38/14 50/37/14 43/30/14
f 52/39/14 51/38/14 43/30/14
f 53/40/14 52/39/14 43/30/14
f 54/41/14 53/40/14 43/30/14
f 41/29/14 54/41/14 43/30/14
f 14/42/15 15/43/15 27/44/15
f 15/43/15 16/45/15 27/44/15
f 16/45/15 17/46/15 27/44/15
f 17/46/15 18/47/15 27/44/15
f 18/47/15 19/48/15 27/44/15
f 19/48/15 20/49/15 27/44/15
f 20/49/15 21/50/15 27/44/15
f 21/50/15 22/51/15 27/44/15
f 22/51/15 23/52/15 27/44/15
f 23/52/15 24/53/15 27/44/15
f 24/53/15 25/54/15 27/44/15
f 25/54/15 26/55/15 27/44/15
f 26/55/15 14/42/15 27/44/15
f 1/56/14 29/57/14 2/58/14
f 2/58/14 30/59/14 3/60/14
f 3/60/14 31/61/14 4/62/14
f 4/62/14 32/63/14 5/64/14
f 5/64/14 33/65/14 6/66/14
f 6/66/14 34/67/14 7/68/14
f 8/69/14 34/67/14 35/70/14
f 9/71/14 35/70/14 36/72/14
f 10/73/14 36/72/14 37/74/14
f 11/75/14 37/74/14 38/76/14
f 12/77/14 38/76/14 39/78/14
f 13/79/14 39/78/14 40/80/14
f 13/79/14 28/81/14 1/56/14
f 28/81/8 42/28/8 29/57/8
f 29/57/9 44/31/9 30/59/9
f 30/59/10 45/32/10 31/61/10
f 31/61/11 46/33/11 32/63/11
f 32/63/12 47/34/12 33/65/12
f 33/65/13 48/35/13 34/67/13
f 34/67/2 49/36/2 35/70/2
f 35/70/1 50/37/1 36/72/1
f 36/72/3 51/38/3 37/74/3
f 37/74/4 52/39/4 38/76/4
f 38/76/5 53/40/5 39/78/5
f 39/78/6 54/41/6 40/80/6
f 40/80/7 41/29/7 28/81/7
f 2/1/1 15/5/1 14/2/2
f 3/4/3 16/7/3 15/5/1
f 4/6/4 17/9/4 16/7/3
f 5/8/5 18/11/5 17/9/4
f 6/10/6 19/13/6 18/11/5
f 7/12/7 20/15/7 19/13/6
f 8/14/8 21/17/8 20/15/7
f 9/16/9 22/19/9 21/17/8
f 10/18/10 23/21/10 22/19/9
f 11/20/11 24/23/11 23/21/10
f 12/22/12 25/25/12 24/23/11
f 13/24/13 26/27/13 25/25/12
f 1/26/2 14/113/2 26/27/13
f 1/56/14 28/81/14 29/57/14
f 2/58/14 29/57/14 30/59/14
f 3/60/14 30/59/14 31/61/14
f 4/62/14 31/61/14 32/63/14
f 5/64/14 32/63/14 33/65/14
f 6/66/14 33/65/14 34/67/14
f 8/69/14 7/68/14 34/67/14
f 9/71/14 8/69/14 35/70/14
f 10/73/14 9/71/14 36/72/14
f 11/75/14 10/73/14 37/74/14
f 12/77/14 11/75/14 38/76/14
f 13/79/14 12/77/14 39/78/14
f 13/79/14 40/80/14 28/81/14
f 28/81/8 41/29/8 42/28/8
f 29/57/9 42/28/9 44/31/9
f 30/59/10 44/31/10 45/32/10
f 31/61/11 45/32/11 46/33/11
f 32/63/12 46/33/12 47/34/12
f 33/65/13 47/34/13 48/35/13
f 34/67/2 48/35/2 49/36/2
f 35/70/1 49/36/1 50/37/1
f 36/72/3 50/37/3 51/38/3
f 37/74/4 51/38/4 52/39/4
f 38/76/5 52/39/5 53/40/5
f 39/78/6 53/40/6 54/41/6
f 40/80/7 54/41/7 41/29/7
usemtl lambert1
f 56/82/16 62/83/16 55/84/16
f 57/85/17 63/86/17 56/82/17
f 58/87/15 64/88/15 57/85/15
f 59/89/18 65/90/18 58/87/18
f 60/91/19 66/92/19 59/89/19
f 61/93/20 67/94/20 60/91/20
f 55/95/21 68/96/21 61/93/21
f 56/97/22 55/98/22 69/99/22
f 57/100/22 56/97/22 69/99/22
f 58/101/22 57/100/22 69/99/22
f 59/102/22 58/101/22 69/99/22
f 60/103/22 59/102/22 69/99/22
f 61/104/22 60/103/22 69/99/22
f 55/98/22 61/104/22 69/99/22
f 62/105/13 63/106/13 70/107/13
f 63/106/13 64/108/13 70/107/13
f 64/108/13 65/109/13 70/107/13
f 65/109/13 66/110/13 70/107/13
f 66/110/13 67/111/13 70/107/13
f 67/111/13 68/112/13 70/107/13
f 68/112/13 62/105/13 70/107/13
f 72/82/23 78/83/23 71/84/23
f 73/85/24 79/86/24 72/82/24
f 73/85/15 81/90/15 80/88/15
f 74/87/25 82/92/25 81/90/25
f 76/91/26 82/92/26 75/89/26
f 76/91/27 84/96/27 83/94/27
f 71/95/28 84/96/28 77/93/28
f 72/97/29 71/98/29 85/99/29
f 73/100/29 72/97/29 85/99/29
f 74/101/29 73/100/29 85/99/29
f 75/102/29 74/101/29 85/99/29
f 76/103/29 75/102/29 85/99/29
f 77/104/29 76/103/29 85/99/29
f 71/98/29 77/104/29 85/99/29
f 78/105/30 79/106/30 86/107/30
f 79/106/30 80/108/30 86/107/30
f 80/108/30 81/109/30 86/107/30
f 81/109/30 82/110/30 86/107/30
f 82/110/30 83/111/30 86/107/30
f 83/111/30 84/112/30 86/107/30
f 84/112/30 78/105/30 86/107/30
f 56/82/16 63/86/16 62/83/16
f 57/85/17 64/88/17 63/86/17
f 58/87/15 65/90/15 64/88/15
f 59/89/18 66/92/18 65/90/18
f 60/91/19 67/94/19 66/92/19
f 61/93/20 68/96/20 67/94/20
f 55/95/21 62/114/21 68/96/21
f 72/82/23 79/86/23 78/83/23
f 73/85/24 80/88/24 79/86/24
f 73/85/15 74/87/15 81/90/15
f 74/87/25 75/89/25 82/92/25
f 76/91/26 83/94/26 82/92/26
f 76/91/27 77/93/27 84/96/27
f 71/95/28 78/114/28 84/96/28
