# Blender 3.6.5
# www.blender.org
mtllib arch.mtl
o pCylinder1
v -0.004635 -0.004117 0.079488
v -0.008817 -0.004117 0.081942
v -0.012135 -0.004117 0.085764
v -0.014266 -0.004117 0.090580
v -0.015000 -0.004117 0.095919
v -0.014266 -0.004117 0.101257
v -0.012135 -0.004117 0.106074
v -0.008817 -0.004117 0.109896
v -0.004635 -0.004117 0.112350
v 0.000000 -0.004117 0.113195
v 0.004635 -0.004117 0.112350
v 0.008817 -0.004117 0.109896
v 0.012135 -0.004117 0.106074
v 0.014266 -0.004117 0.101257
v 0.015000 -0.004117 0.095919
v 0.014266 -0.004117 0.090580
v 0.012135 -0.004117 0.085764
v 0.008817 -0.004117 0.081942
v 0.004635 -0.004117 0.079488
v 0.000000 -0.004117 0.078642
v -0.004635 0.050405 0.075002
v -0.008817 0.051328 0.077293
v -0.012135 0.052767 0.080899
v -0.014266 0.054579 0.085442
v -0.015000 0.056589 0.090478
v -0.014266 0.058598 0.095513
v -0.012135 0.060411 0.100056
v -0.008817 0.061849 0.103662
v -0.004635 0.062773 0.105977
v 0.000000 0.063091 0.106774
v 0.004635 0.062773 0.105977
v 0.008817 0.061849 0.103662
v 0.012135 0.060411 0.100056
v 0.014266 0.058598 0.095513
v 0.015000 0.056589 0.090478
v 0.014266 0.054579 0.085442
v 0.012135 0.052767 0.080899
v 0.008817 0.051328 0.077293
v 0.004635 0.050405 0.075002
v 0.000000 0.050086 0.074219
v -0.004635 0.096291 0.044959
v -0.008817 0.098353 0.046347
v -0.012135 0.101545 0.048509
v -0.014266 0.105481 0.051233
v -0.015000 0.109795 0.054253
v -0.014266 0.114110 0.057272
v -0.012135 0.118002 0.059996
v -0.008817 0.121091 0.062158
v -0.004635 0.123074 0.063546
v 0.000000 0.123758 0.064024
v 0.004635 0.123074 0.063546
v 0.008817 0.121091 0.062158
v 0.012135 0.118002 0.059996
v 0.014266 0.114110 0.057272
v 0.015000 0.109795 0.054253
v 0.014266 0.105481 0.051233
v 0.012135 0.101545 0.048509
v 0.008817 0.098353 0.046347
v 0.004635 0.096291 0.044959
v 0.000000 0.095560 0.044481
v -0.004635 0.096291 -0.044959
v -0.008817 0.098353 -0.046347
v -0.012135 0.101545 -0.048509
v -0.014266 0.105481 -0.051233
v -0.015000 0.109795 -0.054253
v -0.014266 0.114110 -0.057272
v -0.012135 0.118002 -0.059996
v -0.008817 0.121091 -0.062158
v -0.004635 0.123074 -0.063546
v -0.000000 0.123758 -0.064024
v 0.004635 0.123074 -0.063546
v 0.008817 0.121091 -0.062158
v 0.012135 0.118002 -0.059996
v 0.014266 0.114110 -0.057272
v 0.015000 0.109795 -0.054253
v 0.014266 0.105481 -0.051233
v 0.012135 0.101545 -0.048509
v 0.008817 0.098353 -0.046347
v 0.004635 0.096291 -0.044959
v -0.000000 0.095560 -0.044481
v -0.004635 0.050405 -0.075002
v -0.008817 0.051328 -0.077293
v -0.012135 0.052767 -0.080899
v -0.014266 0.054579 -0.085442
v -0.015000 0.056589 -0.090477
v -0.014266 0.058598 -0.095513
v -0.012135 0.060411 -0.100056
v -0.008817 0.061849 -0.103662
v -0.004635 0.062773 -0.105976
v -0.000000 0.063091 -0.106774
v 0.004635 0.062773 -0.105976
v 0.008817 0.061849 -0.103662
v 0.012135 0.060411 -0.100056
v 0.014266 0.058598 -0.095513
v 0.015000 0.056589 -0.090477
v 0.014266 0.054579 -0.085442
v 0.012135 0.052767 -0.080899
v 0.008817 0.051328 -0.077293
v 0.004635 0.050405 -0.075002
v 0.000000 0.050086 -0.074219
v -0.004635 -0.004117 -0.079488
v -0.008817 -0.004117 -0.081942
v -0.012135 -0.004117 -0.085764
v -0.014266 -0.004117 -0.090580
v -0.015000 -0.004117 -0.095919
v -0.014266 -0.004117 -0.101257
v -0.012135 -0.004117 -0.106074
v -0.008817 -0.004117 -0.109896
v -0.004635 -0.004117 -0.112350
v 0.000000 -0.004117 -0.113195
v 0.004635 -0.004117 -0.112350
v 0.008817 -0.004117 -0.109896
v 0.012135 -0.004117 -0.106074
v 0.014266 -0.004117 -0.101257
v 0.015000 -0.004117 -0.095919
v 0.014266 -0.004117 -0.090580
v 0.012135 -0.004117 -0.085764
v 0.008817 -0.004117 -0.081942
v 0.004635 -0.004117 -0.079488
v 0.000000 -0.004117 -0.078642
v 0.000000 -0.004117 0.095919
v 0.000000 -0.004117 -0.095919
vn -0.3464 -0.0771 -0.9349
vn -0.6363 -0.0644 -0.7687
vn -0.6449 -0.2434 -0.7244
vn -0.3522 -0.2954 -0.8881
vn -0.8432 -0.0458 -0.5357
vn -0.8484 -0.1730 -0.5004
vn -0.9620 -0.0237 -0.2721
vn -0.9631 -0.0987 -0.2503
vn -1.0000 0.0002 0.0024
vn -0.9996 -0.0251 0.0093
vn -0.9607 0.0252 0.2764
vn -0.9624 0.0851 0.2579
vn -0.8411 0.0502 0.5386
vn -0.8460 0.1897 0.4983
vn -0.6351 0.0726 0.7690
vn -0.6421 0.2795 0.7138
vn -0.3461 0.0889 0.9340
vn -0.3502 0.3438 0.8713
vn -0.0000 0.0950 0.9955
vn -0.0000 0.3721 0.9282
vn 0.3486 0.0888 0.9331
vn 0.3506 0.3443 0.8709
vn 0.6351 0.0726 0.7690
vn 0.6421 0.2795 0.7138
vn 0.8411 0.0503 0.5386
vn 0.8460 0.1897 0.4983
vn 0.9607 0.0254 0.2764
vn 0.9624 0.0851 0.2579
vn 1.0000 0.0004 0.0024
vn 0.9996 -0.0251 0.0093
vn 0.9620 -0.0237 -0.2721
vn 0.9631 -0.0987 -0.2503
vn 0.8432 -0.0459 -0.5357
vn 0.8484 -0.1730 -0.5004
vn 0.6359 -0.0645 -0.7691
vn 0.6446 -0.2432 -0.7248
vn 0.3521 -0.0770 -0.9328
vn 0.3522 -0.2954 -0.8881
vn -0.0000 -0.0817 -0.9967
vn -0.0000 -0.3149 -0.9491
vn -0.6634 -0.6957 -0.2755
vn -0.3680 -0.8616 -0.3497
vn -0.8625 -0.4743 -0.1764
vn -0.9718 -0.2260 -0.0666
vn -0.9984 0.0350 0.0440
vn -0.9451 0.2998 0.1297
vn -0.8138 0.5453 0.2007
vn -0.6032 0.7541 0.2596
vn -0.3227 0.8978 0.2998
vn -0.0000 0.9494 0.3141
vn 0.3230 0.8977 0.2997
vn 0.6031 0.7543 0.2596
vn 0.8139 0.5453 0.2007
vn 0.9451 0.2998 0.1297
vn 0.9984 0.0350 0.0440
vn 0.9718 -0.2260 -0.0666
vn 0.8625 -0.4744 -0.1764
vn 0.6637 -0.6954 -0.2755
vn 0.3680 -0.8616 -0.3497
vn -0.0000 -0.9254 -0.3791
vn -0.6634 -0.6957 0.2755
vn -0.3679 -0.8616 0.3497
vn -0.8625 -0.4743 0.1764
vn -0.9718 -0.2260 0.0666
vn -0.9984 0.0350 -0.0440
vn -0.9451 0.2998 -0.1297
vn -0.8138 0.5453 -0.2007
vn -0.6032 0.7541 -0.2596
vn -0.3227 0.8978 -0.2997
vn -0.0000 0.9494 -0.3141
vn 0.3230 0.8977 -0.2997
vn 0.6031 0.7543 -0.2596
vn 0.8139 0.5453 -0.2007
vn 0.9451 0.2998 -0.1297
vn 0.9984 0.0350 -0.0440
vn 0.9718 -0.2260 0.0666
vn 0.8625 -0.4744 0.1764
vn 0.6637 -0.6954 0.2755
vn 0.3680 -0.8616 0.3497
vn -0.0000 -0.9254 0.3791
vn -0.6449 -0.2434 0.7244
vn -0.3522 -0.2954 0.8881
vn -0.8482 -0.1730 0.5006
vn -0.9631 -0.0987 0.2503
vn -0.9996 -0.0251 -0.0093
vn -0.9624 0.0851 -0.2579
vn -0.8460 0.1897 -0.4983
vn -0.6424 0.2797 -0.7135
vn -0.3506 0.3443 -0.8709
vn -0.0000 0.3721 -0.9282
vn 0.3506 0.3443 -0.8709
vn 0.6424 0.2797 -0.7135
vn 0.8460 0.1897 -0.4983
vn 0.9624 0.0851 -0.2579
vn 0.9996 -0.0251 -0.0093
vn 0.9631 -0.0987 0.2503
vn 0.8482 -0.1730 0.5006
vn 0.6449 -0.2434 0.7244
vn 0.3525 -0.2961 0.8877
vn -0.0000 -0.3140 0.9494
vn -0.6359 -0.0645 0.7691
vn -0.3464 -0.0771 0.9349
vn -0.8432 -0.0459 0.5357
vn -0.9620 -0.0237 0.2721
vn -1.0000 0.0004 -0.0024
vn -0.9607 0.0254 -0.2764
vn -0.8411 0.0503 -0.5386
vn -0.6351 0.0726 -0.7690
vn -0.3461 0.0889 -0.9340
vn -0.0000 0.0950 -0.9955
vn 0.3461 0.0889 -0.9340
vn 0.6351 0.0726 -0.7690
vn 0.8411 0.0502 -0.5386
vn 0.9607 0.0252 -0.2764
vn 1.0000 0.0002 -0.0024
vn 0.9620 -0.0237 0.2721
vn 0.8432 -0.0458 0.5357
vn 0.6368 -0.0644 0.7683
vn 0.3464 -0.0771 0.9349
vn -0.0000 -0.0817 0.9967
vn -0.0000 -1.0000 -0.0000
vt 0.153093 0.219021
vt 0.142383 0.219021
vt 0.162669 0.462682
vt 0.172668 0.458623
vt 0.125702 0.219021
vt 0.146934 0.469003
vt 0.104683 0.219021
vt 0.127108 0.476969
vt 0.081383 0.219021
vt 0.105129 0.485799
vt 0.058083 0.219020
vt 0.083151 0.494629
vt 0.037064 0.219020
vt 0.063324 0.502595
vt 0.020383 0.219020
vt 0.047590 0.508917
vt 0.009673 0.219020
vt 0.037488 0.512976
vt 0.005983 0.219020
vt 0.034007 0.514374
vt 0.037064 0.219020
vt 0.153092 0.219021
vt 0.156783 0.219021
vt 0.176087 0.457224
vt 0.297728 0.669336
vt 0.303786 0.660273
vt 0.288293 0.683364
vt 0.276404 0.700660
vt 0.263226 0.719621
vt 0.250047 0.738582
vt 0.238158 0.755687
vt 0.228724 0.769261
vt 0.222666 0.777977
vt 0.220579 0.780980
vt 0.297728 0.669336
vt 0.305873 0.657063
vt 0.702272 0.669336
vt 0.696215 0.660273
vt 0.711707 0.683364
vt 0.723596 0.700660
vt 0.736774 0.719621
vt 0.749953 0.738582
vt 0.761842 0.755687
vt 0.771276 0.769261
vt 0.777334 0.777977
vt 0.779421 0.780980
vt 0.694127 0.657063
vt 0.837331 0.462682
vt 0.827332 0.458623
vt 0.853065 0.469003
vt 0.872892 0.476969
vt 0.894870 0.485799
vt 0.916849 0.494629
vt 0.936675 0.502595
vt 0.952410 0.508917
vt 0.962512 0.512976
vt 0.965994 0.514374
vt 0.823913 0.457224
vt 0.857617 0.219021
vt 0.846907 0.219021
vt 0.874298 0.219021
vt 0.895317 0.219021
vt 0.918617 0.219021
vt 0.941917 0.219021
vt 0.962936 0.219021
vt 0.979617 0.219021
vt 0.990327 0.219020
vt 0.994017 0.219020
vt 0.874298 0.219021
vt 0.857617 0.219021
vt 0.846908 0.219021
vt 0.843217 0.219021
s 1
usemtl Arch
f 1/1/1 2/2/2 22/3/3 21/4/4
f 2/2/2 3/5/5 23/6/6 22/3/3
f 3/5/5 4/7/7 24/8/8 23/6/6
f 4/7/7 5/9/9 25/10/10 24/8/8
f 5/9/9 6/11/11 26/12/12 25/10/10
f 6/11/11 7/13/13 27/14/14 26/12/12
f 7/13/13 8/15/15 28/16/16 27/14/14
f 8/15/15 9/17/17 29/18/18 28/16/16
f 9/17/17 10/19/19 30/20/20 29/18/18
f 10/19/19 11/17/21 31/18/22 30/20/20
f 11/17/21 12/15/23 32/16/24 31/18/22
f 12/15/23 13/21/25 33/14/26 32/16/24
f 13/21/25 14/11/27 34/12/28 33/14/26
f 14/11/27 15/9/29 35/10/30 34/12/28
f 15/9/29 16/7/31 36/8/32 35/10/30
f 16/7/31 17/5/33 37/6/34 36/8/32
f 17/5/33 18/2/35 38/3/36 37/6/34
f 18/2/35 19/22/37 39/4/38 38/3/36
f 19/22/37 20/23/39 40/24/40 39/4/38
f 20/23/39 1/1/1 21/4/4 40/24/40
f 21/4/4 22/3/3 42/25/41 41/26/42
f 22/3/3 23/6/6 43/27/43 42/25/41
f 23/6/6 24/8/8 44/28/44 43/27/43
f 24/8/8 25/10/10 45/29/45 44/28/44
f 25/10/10 26/12/12 46/30/46 45/29/45
f 26/12/12 27/14/14 47/31/47 46/30/46
f 27/14/14 28/16/16 48/32/48 47/31/47
f 28/16/16 29/18/18 49/33/49 48/32/48
f 29/18/18 30/20/20 50/34/50 49/33/49
f 30/20/20 31/18/22 51/33/51 50/34/50
f 31/18/22 32/16/24 52/32/52 51/33/51
f 32/16/24 33/14/26 53/31/53 52/32/52
f 33/14/26 34/12/28 54/30/54 53/31/53
f 34/12/28 35/10/30 55/29/55 54/30/54
f 35/10/30 36/8/32 56/28/56 55/29/55
f 36/8/32 37/6/34 57/27/57 56/28/56
f 37/6/34 38/3/36 58/35/58 57/27/57
f 38/3/36 39/4/38 59/26/59 58/35/58
f 39/4/38 40/24/40 60/36/60 59/26/59
f 40/24/40 21/4/4 41/26/42 60/36/60
f 41/26/42 42/25/41 62/37/61 61/38/62
f 42/25/41 43/27/43 63/39/63 62/37/61
f 43/27/43 44/28/44 64/40/64 63/39/63
f 44/28/44 45/29/45 65/41/65 64/40/64
f 45/29/45 46/30/46 66/42/66 65/41/65
f 46/30/46 47/31/47 67/43/67 66/42/66
f 47/31/47 48/32/48 68/44/68 67/43/67
f 48/32/48 49/33/49 69/45/69 68/44/68
f 49/33/49 50/34/50 70/46/70 69/45/69
f 50/34/50 51/33/51 71/45/71 70/46/70
f 51/33/51 52/32/52 72/44/72 71/45/71
f 52/32/52 53/31/53 73/43/73 72/44/72
f 53/31/53 54/30/54 74/42/74 73/43/73
f 54/30/54 55/29/55 75/41/75 74/42/74
f 55/29/55 56/28/56 76/40/76 75/41/75
f 56/28/56 57/27/57 77/39/77 76/40/76
f 57/27/57 58/35/58 78/37/78 77/39/77
f 58/35/58 59/26/59 79/38/79 78/37/78
f 59/26/59 60/36/60 80/47/80 79/38/79
f 60/36/60 41/26/42 61/38/62 80/47/80
f 61/38/62 62/37/61 82/48/81 81/49/82
f 62/37/61 63/39/63 83/50/83 82/48/81
f 63/39/63 64/40/64 84/51/84 83/50/83
f 64/40/64 65/41/65 85/52/85 84/51/84
f 65/41/65 66/42/66 86/53/86 85/52/85
f 66/42/66 67/43/67 87/54/87 86/53/86
f 67/43/67 68/44/68 88/55/88 87/54/87
f 68/44/68 69/45/69 89/56/89 88/55/88
f 69/45/69 70/46/70 90/57/90 89/56/89
f 70/46/70 71/45/71 91/56/91 90/57/90
f 71/45/71 72/44/72 92/55/92 91/56/91
f 72/44/72 73/43/73 93/54/93 92/55/92
f 73/43/73 74/42/74 94/53/94 93/54/93
f 74/42/74 75/41/75 95/52/95 94/53/94
f 75/41/75 76/40/76 96/51/96 95/52/95
f 76/40/76 77/39/77 97/50/97 96/51/96
f 77/39/77 78/37/78 98/48/98 97/50/97
f 78/37/78 79/38/79 99/49/99 98/48/98
f 79/38/79 80/47/80 100/58/100 99/49/99
f 80/47/80 61/38/62 81/49/82 100/58/100
f 81/49/82 82/48/81 102/59/101 101/60/102
f 82/48/81 83/50/83 103/61/103 102/59/101
f 83/50/83 84/51/84 104/62/104 103/61/103
f 84/51/84 85/52/85 105/63/105 104/62/104
f 85/52/85 86/53/86 106/64/106 105/63/105
f 86/53/86 87/54/87 107/65/107 106/64/106
f 87/54/87 88/55/88 108/66/108 107/65/107
f 88/55/88 89/56/89 109/67/109 108/66/108
f 89/56/89 90/57/90 110/68/110 109/67/109
f 90/57/90 91/56/91 111/67/111 110/68/110
f 91/56/91 92/55/92 112/66/112 111/67/111
f 92/55/92 93/54/93 113/65/113 112/66/112
f 93/54/93 94/53/94 114/64/114 113/65/113
f 94/53/94 95/52/95 115/63/115 114/64/114
f 95/52/95 96/51/96 116/62/116 115/63/115
f 96/51/96 97/50/97 117/69/117 116/62/116
f 97/50/97 98/48/98 118/70/118 117/69/117
f 98/48/98 99/49/99 119/71/119 118/70/118
f 99/49/99 100/58/100 120/72/120 119/71/119
f 100/58/100 81/49/82 101/60/102 120/72/120
f 2/2/121 1/1/121 121/9/121
f 3/5/121 2/2/121 121/9/121
f 4/7/121 3/5/121 121/9/121
f 5/9/121 4/7/121 121/9/121
f 6/11/121 5/9/121 121/9/121
f 7/13/121 6/11/121 121/9/121
f 8/15/121 7/13/121 121/9/121
f 9/17/121 8/15/121 121/9/121
f 10/19/121 9/17/121 121/9/121
f 11/17/121 10/19/121 121/9/121
f 12/15/121 11/17/121 121/9/121
f 13/21/121 12/15/121 121/9/121
f 14/11/121 13/21/121 121/9/121
f 15/9/121 14/11/121 121/9/121
f 16/7/121 15/9/121 121/9/121
f 17/5/121 16/7/121 121/9/121
f 18/2/121 17/5/121 121/9/121
f 19/22/121 18/2/121 121/9/121
f 20/23/121 19/22/121 121/9/121
f 1/1/121 20/23/121 121/9/121
f 101/60/121 102/59/121 122/63/121
f 102/59/121 103/61/121 122/63/121
f 103/61/121 104/62/121 122/63/121
f 104/62/121 105/63/121 122/63/121
f 105/63/121 106/64/121 122/63/121
f 106/64/121 107/65/121 122/63/121
f 107/65/121 108/66/121 122/63/121
f 108/66/121 109/67/121 122/63/121
f 109/67/121 110/68/121 122/63/121
f 110/68/121 111/67/121 122/63/121
f 111/67/121 112/66/121 122/63/121
f 112/66/121 113/65/121 122/63/121
f 113/65/121 114/64/121 122/63/121
f 114/64/121 115/63/121 122/63/121
f 115/63/121 116/62/121 122/63/121
f 116/62/121 117/69/121 122/63/121
f 117/69/121 118/70/121 122/63/121
f 118/70/121 119/71/121 122/63/121
f 119/71/121 120/72/121 122/63/121
f 120/72/121 101/60/121 122/63/121
