# Blender 3.6.5
# www.blender.org
mtllib newr.mtl
o Rock7
v -0.470516 0.461405 0.397476
v -0.670690 0.355674 0.070703
v -0.181476 0.094660 0.502773
v -0.522825 0.422161 -0.351444
v -0.051676 0.140396 -0.435513
v -0.338904 -0.041744 -0.228982
v 0.637571 0.302543 -0.367614
v 0.047664 0.773305 -0.369756
v 0.143233 0.331071 0.475253
v 0.521226 0.652803 -0.154523
v 0.589706 0.602353 -0.266226
v -0.099135 0.222735 -0.461471
v -0.155585 0.974919 -0.143123
v -0.407075 0.321636 -0.483948
v -0.364942 0.439899 -0.433608
v -0.682653 0.330834 0.035093
v 0.025957 0.330070 -0.527816
v -0.094645 0.531250 -0.465263
v 0.234247 0.182536 -0.465040
v 0.095285 -0.044870 -0.138192
v 0.480796 -0.044264 -0.134875
v 0.342145 -0.066833 -0.039075
v 0.644424 0.163494 -0.106813
v 0.637516 0.408427 -0.269992
v 0.189684 -0.016926 -0.302971
v 0.217077 0.717911 -0.396171
v 0.548369 0.181304 -0.318204
v -0.401913 -0.066978 -0.107464
v 0.541722 0.045857 0.069714
v -0.219884 -0.109472 -0.209085
v -0.652238 0.418000 -0.136559
v -0.090736 0.445862 -0.498238
v -0.085806 0.652268 -0.407061
v -0.355408 0.811733 0.089034
v 0.459528 0.394077 0.190158
v -0.590435 0.280060 0.189779
v 0.195305 0.116444 -0.458193
v -0.574480 0.679650 -0.033163
v -0.413731 0.388869 0.470288
v -0.616019 0.234812 0.090273
v 0.312783 -0.047883 0.227406
v 0.442387 0.074950 -0.249763
v 0.495491 0.276888 0.216280
v -0.538291 -0.017488 0.027815
v -0.432697 -0.035810 -0.083400
v -0.406327 0.180226 0.470876
v -0.475077 0.449288 -0.332575
v -0.037754 0.618330 0.424023
v -0.184061 0.737196 0.384197
v -0.562055 0.570764 0.261622
v 0.354389 0.639507 0.065790
v 0.171449 0.792605 0.247229
v 0.081915 -0.029627 -0.243024
v 0.107291 0.097473 -0.459422
v 0.558697 0.518878 -0.155304
v -0.611525 0.148009 -0.116865
v 0.628106 0.193997 -0.015889
v -0.486763 0.604932 -0.261637
v 0.330539 0.817064 -0.212015
v -0.473571 0.375558 -0.430731
v -0.577793 0.665924 -0.058868
v -0.159499 0.772905 -0.381410
v 0.409643 -0.009733 0.238748
v 0.206951 0.883783 -0.071987
v 0.293871 0.712984 0.146007
v -0.216735 0.840177 0.216172
v 0.412552 0.020635 -0.140080
v 0.352966 -0.037373 -0.112629
v -0.407551 0.742093 -0.224556
v -0.540100 0.727104 0.163766
v -0.477162 -0.065791 -0.126715
v -0.171010 0.283685 0.526964
v -0.122887 0.282897 0.470722
v -0.387962 0.445579 0.463947
v 0.035373 0.498166 0.413380
v -0.514931 0.712755 0.207690
v -0.115774 0.610284 -0.446359
v 0.385224 0.763310 -0.111539
v 0.369745 0.593236 0.141061
v 0.433059 0.721898 -0.260940
v -0.588133 0.396238 0.188692
v 0.673374 0.290711 -0.212548
v -0.323746 0.745507 -0.260440
v 0.522467 0.366949 0.087252
v 0.194244 -0.072836 0.060843
v -0.356292 0.152557 -0.443101
v 0.661487 0.197760 -0.180628
v 0.001336 0.402707 -0.515466
v -0.572941 0.645909 0.177278
v -0.273035 -0.100736 -0.142555
v 0.583990 0.061469 0.012368
v 0.182538 0.519662 -0.439370
v 0.032407 0.430287 0.449045
v -0.024466 0.776130 0.328670
v -0.302351 -0.016650 0.294125
v 0.516933 0.553788 -0.328798
v 0.076628 -0.029802 0.228399
v -0.274401 0.137297 -0.436105
v -0.500567 0.129064 -0.219019
v -0.253622 -0.053671 0.171790
v -0.196775 0.760311 -0.282022
v 0.097974 -0.022054 0.017854
v 0.401014 0.638841 -0.038477
v 0.298945 -0.040710 -0.255659
v -0.273703 0.013374 -0.433480
v -0.186270 0.720565 -0.374459
v -0.071185 0.832165 -0.281124
v 0.279804 0.466036 0.292098
v -0.231640 0.482644 0.544278
v 0.167353 0.835126 0.070282
v -0.015285 0.167942 0.489611
v 0.007914 0.114834 -0.452218
v 0.000741 -0.019576 0.354272
v 0.185311 0.283359 -0.498096
v 0.240650 0.441314 -0.461396
v -0.111325 0.006139 0.459861
v -0.400971 -0.063128 -0.024392
v -0.331411 -0.061090 0.154809
v -0.656835 0.409743 0.050014
v 0.209772 0.807724 -0.370264
v -0.414571 0.264278 -0.426146
v -0.178733 -0.043466 0.225122
v -0.016240 0.425142 0.446854
v -0.585780 0.032703 -0.090873
v -0.294104 0.779076 0.279105
v -0.596346 0.629424 0.048331
v 0.096391 0.592860 -0.463200
v -0.040763 0.982665 -0.239065
v 0.136402 0.965712 -0.103926
v 0.395715 0.412815 -0.377710
v -0.096583 0.380455 0.516708
v 0.248739 0.839409 -0.093652
v 0.044625 0.884542 -0.348015
v 0.412083 0.267002 -0.414716
v 0.539429 -0.084836 0.073879
v -0.033531 0.730360 -0.431132
v -0.507224 0.199917 0.352965
v 0.530274 0.244806 -0.375116
v 0.050376 0.916187 -0.293552
v -0.184815 0.808150 0.303856
v 0.442527 0.208012 0.261623
v -0.355682 -0.045122 -0.127025
v -0.208420 0.467090 -0.506268
v -0.214442 0.853976 -0.161852
v 0.057578 0.535955 -0.493558
v 0.194661 0.051701 0.345425
v 0.528023 0.404512 -0.001067
v 0.227878 0.479805 0.360326
v 0.375126 0.135640 -0.420840
v -0.219816 0.224981 0.517379
v 0.044497 0.207815 -0.512269
v 0.262400 0.395535 0.330248
v -0.297990 0.771804 -0.058143
v -0.066393 0.812452 -0.327770
v -0.090618 -0.062490 -0.165770
v -0.270611 0.686139 -0.351254
v 0.087718 0.530966 -0.457581
v 0.288955 0.679602 0.173539
v -0.063547 -0.043218 0.026603
v -0.072701 -0.034856 -0.385120
v 0.177576 0.001389 0.312218
v -0.450735 0.613206 -0.358921
v -0.171491 0.198686 -0.463294
v -0.533731 -0.013542 -0.103967
v 0.439026 0.291459 -0.387932
v -0.340039 0.047634 0.420472
v 0.427353 0.723065 -0.151341
v 0.569682 0.030055 -0.089179
v -0.431424 0.737270 0.314265
v -0.390673 -0.061534 -0.283519
v 0.025895 0.713651 -0.452831
v 0.223388 0.865974 -0.196562
v 0.583765 0.292198 -0.039848
v 0.503640 0.686926 -0.240689
v -0.534442 0.257202 0.331878
v 0.435377 -0.088676 0.164961
v -0.386131 0.681832 0.359764
v -0.418769 0.474476 -0.392303
v 0.579930 0.631073 -0.218064
v -0.429652 0.765984 0.162653
v -0.570749 0.229508 -0.216237
v 0.391380 -0.035360 -0.051469
v 0.570595 0.121823 -0.193380
v -0.365973 0.365414 -0.466928
v 0.532463 0.620303 -0.285202
v -0.063962 0.071687 0.478067
v -0.310332 0.414141 -0.466378
v 0.457164 0.669869 -0.294210
v 0.411281 0.326569 -0.436739
v -0.521995 0.255633 -0.351044
v -0.153339 0.521449 -0.460723
v -0.621262 0.547115 0.087035
v 0.564373 0.351021 -0.083035
v -0.540951 0.201299 0.279294
v 0.631211 0.101742 0.012671
v -0.277172 0.344951 -0.506942
v 0.100725 0.702042 0.301810
v 0.439029 0.523699 -0.408640
v -0.233680 -0.010633 0.404196
v 0.080432 0.580443 0.383036
v 0.488956 0.398842 -0.397821
v 0.119269 0.849097 -0.365600
v -0.283857 0.571938 0.446752
v -0.061843 -0.062676 0.099837
v -0.562901 0.479133 0.276625
v 0.224903 0.059150 -0.377270
v -0.031041 0.947166 -0.266338
v 0.491171 -0.119571 0.069670
v 0.275538 0.852174 -0.149990
v -0.007574 0.792327 -0.410301
v -0.084293 0.041554 -0.401638
v 0.257385 0.168057 0.383742
v 0.569195 0.568138 -0.076487
v 0.301152 0.717951 0.054419
v 0.463140 0.160437 -0.385428
v -0.258418 0.053126 0.441729
v -0.078200 0.168901 0.536582
v 0.280748 0.350777 -0.484539
v -0.417124 0.068792 -0.353015
v 0.069374 0.196001 0.500358
v 0.618945 0.222001 -0.345394
v 0.296555 -0.056914 -0.115938
v 0.181003 0.571503 0.366153
v -0.051608 -0.010078 0.441810
v -0.611394 0.467493 -0.147396
v -0.414296 0.760742 0.100762
v -0.503422 0.550230 -0.244570
v 0.546641 0.446533 0.041649
v -0.091262 -0.054256 -0.265070
v -0.240796 0.381996 -0.489967
v -0.402263 -0.026011 0.176692
v -0.014394 0.619741 -0.443206
v -0.130191 0.822382 -0.246657
v -0.471391 0.716465 -0.180361
v -0.626212 0.180904 -0.059333
v -0.152104 0.911558 -0.234525
v -0.072307 -0.064586 -0.108478
v -0.178395 0.621091 -0.426560
v 0.634193 0.200952 -0.074501
v -0.315406 -0.063485 -0.152923
v -0.353237 0.765232 0.004446
v 0.413765 -0.002816 -0.225834
v -0.264154 -0.012289 0.361107
v 0.204896 0.385955 0.383866
v -0.683828 0.403880 -0.042913
v 0.012932 -0.031481 -0.045317
v -0.162451 -0.023555 0.319358
v -0.463167 0.146967 0.427197
v 0.255820 0.767145 0.128150
v -0.629964 0.355589 -0.164392
v -0.561352 0.220763 0.206913
v 0.260800 0.539647 0.298973
v 0.017438 0.982405 -0.072571
v 0.185335 0.915909 -0.289966
v 0.202694 0.746437 0.278158
v -0.623016 0.390081 -0.220447
v 0.287136 0.630521 0.293818
v 0.305736 0.545776 -0.385797
v 0.493431 0.157352 0.154369
v -0.376972 0.647973 -0.345711
v -0.395829 -0.012841 0.263371
v 0.367552 0.632059 -0.339800
v 0.171769 0.920973 -0.146233
v 0.408284 0.566822 0.047137
v -0.666741 0.305909 -0.105984
v -0.434493 -0.076110 -0.188324
v -0.460125 0.001925 -0.223260
v 0.086291 0.938438 -0.014091
v -0.006835 0.461953 -0.530669
v -0.083615 0.266429 0.484395
v 0.562492 0.317975 -0.376937
v 0.067801 0.927953 0.196608
v -0.355947 0.697182 0.377423
v 0.553459 0.251764 0.158176
v 0.575433 0.389202 -0.389827
v 0.228295 -0.032833 0.183078
v -0.003663 0.627889 -0.484498
v 0.162007 0.819704 0.151370
v 0.586924 0.422642 -0.327221
v -0.361634 0.525025 -0.445864
v 0.065479 0.265851 -0.511598
v 0.089455 0.390327 -0.550865
v -0.452835 0.737364 -0.002206
v 0.012537 0.948250 0.031169
v 0.028752 -0.051432 0.075574
v -0.605194 0.528067 -0.061667
v -0.292243 -0.048033 0.079041
v -0.320455 0.818133 -0.211923
v -0.121309 0.495224 0.519849
v -0.224602 -0.038524 -0.322525
v -0.139478 0.882199 0.145271
v 0.108805 0.013319 0.261966
v 0.015107 0.917477 0.121616
v 0.123759 0.654265 -0.426012
v -0.310642 0.266388 0.499421
v -0.428858 0.435694 -0.382392
v -0.463009 0.517981 0.401515
v 0.063637 0.458424 -0.530420
v 0.221033 -0.076309 -0.134193
v 0.086409 0.981266 -0.223702
v 0.366540 0.389060 0.247796
v -0.298140 0.289329 -0.485269
v -0.329306 0.412869 0.503278
v 0.363268 0.555850 -0.369835
v 0.545329 0.211437 -0.408280
v -0.521221 0.722567 0.085953
v -0.382906 0.796223 -0.194371
v -0.464407 0.494034 -0.301250
v 0.080554 0.741540 -0.410706
v 0.275643 0.128245 -0.436666
v 0.609468 0.089553 -0.033523
v -0.106598 0.738042 0.413825
v 0.320172 0.743858 -0.006850
v -0.041688 -0.043957 0.166781
v -0.506037 0.638635 -0.192043
v -0.080538 0.360483 -0.512643
v -0.078132 1.003716 -0.123602
v -0.308209 -0.045222 -0.339503
v 0.315126 0.491876 0.249807
v 0.235457 -0.031047 -0.216777
v -0.426646 0.564862 0.408187
v -0.288774 -0.092645 -0.249909
v -0.419400 0.497618 0.464715
v 0.159854 0.240834 0.459901
v -0.287023 0.088256 0.480528
v 0.222084 0.728856 0.226884
v -0.205655 -0.115718 -0.097737
v 0.295931 0.848801 -0.308122
v 0.286753 -0.090208 0.087398
v 0.547925 0.437471 -0.069774
v 0.182861 0.423869 0.416312
v 0.141302 0.003177 0.175371
v -0.514047 0.391932 0.322185
v -0.003667 0.118763 0.500163
v 0.674853 0.267373 -0.304865
v 0.418344 0.310832 0.235124
v -0.501456 0.598634 0.312425
v -0.588688 0.280442 0.248037
v -0.426908 0.694875 -0.269230
v 0.337913 0.806931 -0.070888
v -0.240211 0.797365 -0.177689
v -0.595063 0.471311 0.202507
v -0.027308 0.851754 -0.322490
v -0.347582 0.643179 0.448017
v -0.170835 -0.082065 -0.292696
v -0.229576 0.694023 -0.299425
v -0.513050 0.081841 0.210391
v 0.220583 0.685418 0.302291
v -0.329469 0.724091 -0.299621
v 0.158407 0.057011 -0.449393
v -0.569473 -0.009170 -0.018130
v -0.632532 0.509097 0.028437
v -0.627539 0.195038 0.045799
v -0.019379 0.886291 0.304179
v -0.036052 -0.047690 -0.220307
v 0.379606 0.774024 -0.309085
v 0.194554 0.389296 -0.483619
v -0.275149 -0.072844 -0.022680
v 0.268912 0.037893 -0.331186
v -0.139947 -0.064854 0.172343
v -0.321266 0.344703 0.509687
v 0.345816 0.583496 0.214092
v 0.052325 0.262043 0.494670
v 0.500849 0.193379 -0.428210
v 0.313855 0.464338 -0.454098
v 0.446372 0.538851 0.149586
v 0.561735 0.272693 0.104851
v -0.150184 0.580763 0.478062
v -0.039301 -0.033249 0.245374
v 0.457995 0.052884 0.179958
v -0.381259 0.810477 0.223550
v 0.387752 0.483609 0.210111
v -0.229675 0.145044 0.466678
v 0.379108 0.432940 -0.443382
v -0.176453 0.318194 -0.479886
v 0.276623 0.304662 -0.480135
v 0.212703 0.575166 -0.437856
v 0.121896 0.490027 0.428622
v 0.553506 -0.008547 0.013631
v -0.209161 0.679740 -0.390410
v 0.196717 0.780802 0.120035
v -0.106234 0.052508 0.477411
v -0.257642 0.605551 -0.426697
v -0.021017 0.915817 0.218522
v 0.558611 0.164159 0.084310
v 0.264672 0.794857 0.010129
v 0.416737 0.082034 -0.324985
v -0.002478 0.077016 -0.413383
v 0.118357 0.934467 0.061355
v 0.482560 0.592370 -0.320221
v -0.503010 0.389973 -0.340820
v 0.108733 -0.048512 0.109747
v 0.451931 0.359736 -0.382654
v 0.587175 0.207137 0.075856
v -0.233571 0.618371 0.442784
v 0.150121 -0.059470 -0.095185
v -0.161363 0.661706 -0.394730
v 0.503769 0.570715 0.034068
v -0.119619 -0.030202 0.352087
v 0.526217 0.393494 0.131050
v -0.565079 0.144413 0.137732
v 0.440677 -0.110000 0.007557
v 0.239278 -0.062183 -0.026517
v -0.464811 -0.033890 0.220116
v 0.063679 0.974541 -0.161733
v -0.297589 0.199462 -0.460664
v 0.243681 -0.018906 0.309342
v 0.338517 0.678768 0.114875
v -0.400868 0.322784 0.473042
v -0.128807 0.097632 -0.437566
v -0.424440 0.149433 -0.367268
v 0.050740 0.335595 0.513551
v 0.090135 0.026819 0.368532
v -0.556227 0.344078 0.303344
v -0.444877 0.748880 -0.078713
v -0.469089 0.198279 -0.357684
v -0.021137 0.294483 0.482382
v 0.144438 0.905268 0.017584
v 0.454154 0.631853 -0.054428
v 0.492483 0.075699 -0.228520
v -0.472747 0.775530 0.266512
v -0.181159 0.203453 0.484371
v -0.085866 0.801424 0.355183
v 0.157692 0.207635 -0.520481
v -0.581957 0.303164 -0.222553
v -0.573516 0.475669 -0.281978
v -0.359705 0.018060 -0.349554
v 0.494754 0.498819 0.117510
v 0.069784 0.137839 -0.482907
v -0.197215 0.775594 -0.241059
v 0.609988 0.343385 -0.158271
v 0.577219 0.096166 -0.116207
v -0.497352 -0.024589 0.113401
v -0.502223 0.291282 -0.369288
v -0.130202 0.290201 -0.490723
v 0.063348 0.897213 0.251647
v 0.135317 0.961846 -0.185189
v 0.189029 0.343070 -0.505188
v -0.218035 0.579847 -0.473981
v 0.357628 0.075791 -0.351168
v -0.167184 0.950072 -0.058012
v 0.466266 0.019723 -0.189154
v -0.047720 1.003347 -0.192638
v 0.597145 0.513632 -0.255301
v -0.044592 0.491527 0.494573
v -0.054398 0.365543 0.478626
v 0.023068 0.696825 0.334385
v -0.507498 0.339789 -0.363410
v 0.563344 0.444630 -0.140558
v -0.062931 -0.036509 0.335899
v 0.352265 -0.073087 0.049826
v 0.223426 0.216168 0.417827
v 0.537133 0.463038 -0.410317
v -0.237070 0.717782 0.387137
v 0.189765 0.820606 0.021648
v -0.644019 0.248669 -0.123967
v -0.556889 0.576962 -0.143298
v 0.126167 0.114475 0.414992
v -0.540382 0.077386 -0.139468
v -0.206382 0.025961 0.483613
v 0.436289 0.191011 -0.439372
v 0.337776 -0.008936 -0.250450
v -0.126726 -0.040176 -0.347911
v -0.116764 -0.096112 -0.046978
v -0.215175 0.394782 0.566119
v 0.299244 -0.070007 0.122898
v -0.475002 0.573416 -0.333011
v 0.342919 0.803431 -0.160567
v 0.356931 0.490926 -0.382499
v 0.323314 -0.059655 -0.198285
v -0.000394 0.273821 -0.516853
v 0.306386 0.187733 0.374556
v -0.450557 -0.035647 0.020868
v -0.269684 0.857930 -0.082787
v 0.328693 0.109146 0.350585
v -0.209466 0.894505 0.032702
v -0.481703 0.244389 0.434518
v 0.403186 0.067880 0.288708
v 0.379915 0.287082 -0.448766
v 0.444633 -0.045728 0.203239
v 0.072811 -0.008360 -0.390086
v -0.614950 0.363453 0.145754
v -0.432917 0.031417 0.328868
v -0.523916 0.481326 0.315104
v 0.133425 0.163879 -0.495203
v 0.084185 0.326739 -0.509111
v 0.378719 0.256462 0.302292
v -0.435747 0.232880 0.487088
v -0.198805 0.062825 -0.399580
v 0.542966 -0.006942 -0.129817
v -0.245058 0.885514 0.142123
v -0.522061 0.105928 0.245108
v -0.206649 -0.092598 0.031106
v 0.557295 0.368221 -0.026005
v -0.181038 -0.020216 -0.396050
v -0.326707 0.512010 0.496887
vn 0.4373 -0.3540 0.8267
vn 0.1433 -0.1788 0.9734
vn 0.2572 -0.1279 0.9579
vn -0.4544 0.0786 0.8873
vn -0.5176 0.1421 0.8437
vn -0.4539 0.1266 0.8820
vn 0.0285 0.8458 -0.5327
vn -0.1462 0.4700 -0.8705
vn -0.0608 0.6808 -0.7300
vn 0.4006 0.8229 -0.4030
vn 0.0432 0.5165 -0.8552
vn 0.2175 0.9323 -0.2890
vn -0.1336 -0.9879 -0.0786
vn -0.2382 -0.9709 -0.0252
vn -0.2313 -0.9661 0.1149
vn 0.0887 0.7822 -0.6167
vn -0.0971 0.5724 -0.8142
vn 0.1821 -0.7760 0.6039
vn 0.3508 -0.7709 0.5316
vn 0.0507 -0.2209 0.9740
vn 0.1587 -0.9831 0.0913
vn 0.0682 -0.9868 0.1471
vn 0.3661 -0.8913 0.2676
vn 0.6876 0.5581 0.4645
vn 0.6497 0.5841 0.4865
vn 0.5310 0.7747 0.3433
vn 0.3057 -0.9291 -0.2084
vn -0.0185 -0.9966 -0.0803
vn -0.1578 -0.9713 -0.1780
vn -0.1840 -0.3958 -0.8997
vn -0.3266 -0.3888 -0.8615
vn -0.1045 -0.3451 -0.9327
vn -0.1311 -0.9816 0.1388
vn -0.3045 -0.9330 -0.1916
vn -0.0922 -0.9936 0.0652
vn 0.1710 -0.1848 -0.9678
vn 0.3409 -0.2379 -0.9095
vn 0.3234 -0.4699 -0.8214
vn 0.7541 0.5948 0.2784
vn 0.2498 -0.5858 -0.7710
vn 0.0851 -0.8062 -0.5854
vn -0.0633 -0.4732 -0.8787
vn -0.0881 0.0709 -0.9936
vn 0.3408 0.3756 0.8618
vn 0.7178 0.3424 0.6063
vn 0.4382 0.5256 0.7291
vn -0.9086 -0.3295 0.2568
vn -0.9176 -0.3975 0.0009
vn -0.8591 -0.3567 -0.3671
vn 0.4717 0.3075 0.8264
vn 0.1290 0.5338 0.8357
vn 0.4092 0.4128 0.8137
vn -0.3842 0.4667 -0.7966
vn -0.7205 0.0017 -0.6935
vn -0.6251 0.3378 -0.7037
vn 0.3659 -0.9228 -0.1207
vn 0.6938 -0.6684 -0.2682
vn 0.5076 0.7639 -0.3985
vn 0.6409 0.5586 -0.5265
vn 0.2383 0.4199 -0.8757
vn -0.1299 -0.2247 -0.9657
vn -0.4142 -0.0488 -0.9089
vn -0.2536 0.3811 -0.8891
vn 0.5703 0.6218 0.5368
vn 0.7689 0.5787 0.2718
vn 0.7154 0.4702 0.5169
vn -0.6766 0.2877 -0.6778
vn -0.7749 -0.3874 -0.4995
vn -0.6751 -0.3933 -0.6242
vn -0.5287 -0.3240 -0.7846
vn 0.6731 0.1528 0.7236
vn 0.2065 0.4054 0.8905
vn 0.5610 0.0760 0.8243
vn -0.5697 0.1099 -0.8145
vn 0.6452 -0.3130 0.6970
vn 0.0230 -0.7938 0.6078
vn -0.0008 -0.8860 0.4636
vn 0.2864 -0.3635 0.8865
vn 0.2075 -0.4889 0.8473
vn 0.4011 -0.2815 0.8717
vn 0.6058 0.7071 0.3646
vn 0.3229 0.9415 0.0969
vn 0.4627 0.8408 0.2812
vn 0.5113 0.7761 0.3691
vn -0.8653 -0.3357 0.3723
vn -0.9426 -0.2059 0.2629
vn -0.8565 -0.2962 0.4228
vn -0.1076 0.8281 -0.5502
vn -0.1069 0.7999 -0.5905
vn -0.2828 0.7544 -0.5924
vn 0.9904 0.0069 0.1381
vn 0.9231 0.1982 0.3296
vn 0.9841 -0.0326 0.1747
vn -0.3652 0.2675 -0.8917
vn 0.3315 0.6794 -0.6546
vn -0.2475 0.3447 -0.9055
vn -0.6808 0.4495 -0.5783
vn -0.8258 0.4786 -0.2982
vn -0.8363 0.3627 -0.4111
vn 0.5915 0.8056 0.0348
vn 0.5665 0.8210 0.0710
vn 0.0764 0.8124 -0.5781
vn 0.0474 0.2912 -0.9555
vn 0.9508 0.2106 0.2274
vn 0.9562 0.1617 0.2442
vn 0.9099 -0.4137 -0.0299
vn -0.1007 0.0636 -0.9929
vn 0.7025 0.6728 0.2321
vn 0.8365 0.5035 0.2160
vn 0.7546 0.6140 0.2317
vn -0.1732 0.7048 -0.6880
vn -0.9133 0.2514 0.3205
vn -0.9727 0.2217 -0.0679
vn -0.9710 -0.1223 0.2054
vn 0.5155 0.1222 0.8481
vn 0.2772 0.4545 0.8466
vn -0.6052 -0.3497 -0.7152
vn -0.5897 -0.0699 -0.8046
vn -0.4571 0.7514 -0.4758
vn -0.3534 0.8173 -0.4551
vn -0.5741 0.4361 -0.6930
vn 0.1426 -0.9863 -0.0823
vn 0.2014 -0.9652 -0.1666
vn 0.0775 -0.9849 -0.1547
vn -0.8688 -0.1809 -0.4610
vn -0.8459 -0.2134 -0.4888
vn -0.8951 -0.2611 -0.3613
vn -0.6630 -0.3550 -0.6591
vn -0.8362 -0.4023 -0.3728
vn -0.4993 0.5370 0.6800
vn -0.6664 0.4392 0.6025
vn -0.4550 0.7283 0.5124
vn 0.0457 -0.9987 -0.0242
vn -0.1133 -0.9916 0.0621
vn -0.0250 0.1148 0.9931
vn -0.5446 -0.3473 -0.7634
vn 0.0807 -0.2465 -0.9658
vn -0.1124 -0.2909 -0.9501
vn 0.0284 -0.2613 -0.9649
vn 0.0024 -0.8812 -0.4728
vn 0.1826 -0.7413 -0.6458
vn 0.0494 -0.9790 -0.1978
vn -0.8631 -0.1028 0.4944
vn -0.7536 0.0950 0.6504
vn -0.7361 0.0778 0.6724
vn -0.3102 0.5275 0.7909
vn -0.1907 0.7944 0.5767
vn -0.5940 0.7322 0.3332
vn -0.6233 0.7581 -0.1919
vn -0.5446 0.8085 -0.2230
vn -0.4773 0.8559 -0.1993
vn 0.4624 0.4454 -0.7667
vn 0.7944 0.2552 -0.5512
vn 0.9559 0.2519 -0.1511
vn 0.2690 0.3597 -0.8934
vn 0.0242 0.3121 -0.9497
vn -0.0869 -0.2077 -0.9743
vn 0.2637 -0.9474 -0.1811
vn 0.2426 -0.9700 0.0159
vn 0.8314 -0.1337 0.5394
vn 0.9569 -0.2674 0.1135
vn 0.7922 -0.4346 0.4285
vn 0.2646 0.2988 0.9169
vn -0.0417 -0.0103 0.9991
vn 0.5119 -0.1882 0.8382
vn -0.2198 -0.9671 -0.1280
vn -0.7681 -0.6302 0.1136
vn -0.6680 -0.5297 -0.5227
vn -0.3488 -0.9301 -0.1148
vn -0.2713 -0.9100 0.3134
vn -0.2464 -0.9521 0.1811
vn -0.1074 -0.9630 0.2470
vn 0.8239 -0.1052 0.5569
vn 0.8314 -0.5044 0.2331
vn -0.5278 0.6969 -0.4855
vn -0.5717 0.6320 -0.5231
vn -0.6451 0.6845 -0.3397
vn -0.6328 0.3454 -0.6930
vn -0.8075 0.4907 -0.3275
vn -0.5718 0.8041 -0.1630
vn 0.6455 0.7634 0.0254
vn 0.6653 0.7243 -0.1810
vn 0.2043 0.4823 -0.8518
vn 0.2783 0.2821 -0.9181
vn -0.1255 -0.3745 -0.9187
vn -0.2274 -0.4455 -0.8659
vn -0.0126 -0.3131 -0.9496
vn 0.2612 -0.1348 0.9558
vn 0.4164 -0.4799 0.7722
vn 0.5164 -0.1076 0.8496
vn 0.0927 -0.9825 0.1613
vn -0.2502 -0.9679 0.0236
vn 0.2243 -0.5553 -0.8008
vn 0.5224 0.7157 0.4635
vn 0.3668 0.7701 0.5220
vn 0.4475 0.8266 0.3412
vn 0.6582 0.2400 0.7135
vn 0.5668 0.2727 0.7774
vn 0.7177 0.1914 0.6695
vn 0.4776 0.2459 -0.8435
vn 0.5376 0.1189 -0.8348
vn -0.2793 0.6391 -0.7166
vn 0.7205 0.0973 0.6866
vn 0.6176 0.2675 0.7396
vn -0.2135 0.2822 0.9353
vn 0.4859 0.0119 0.8739
vn -0.2676 0.6518 -0.7096
vn 0.8589 -0.4842 -0.1670
vn 0.8904 -0.4007 -0.2158
vn 0.0055 -0.0140 0.9999
vn 0.1221 -0.3952 0.9105
vn 0.1992 -0.1728 0.9646
vn -0.0783 0.1622 -0.9837
vn -0.0666 0.5007 -0.8631
vn 0.1509 0.3002 -0.9419
vn 0.2099 -0.9755 0.0653
vn 0.0934 -0.9914 -0.0916
vn 0.1317 -0.9791 0.1548
vn 0.7083 0.1304 0.6937
vn 0.4767 -0.4269 0.7685
vn 0.1516 -0.8572 0.4921
vn -0.3127 -0.9267 0.2085
vn 0.1779 -0.9559 0.2335
vn 0.4052 0.6731 0.6187
vn 0.6045 0.5922 0.5328
vn 0.5184 0.8474 0.1145
vn 0.6880 0.6417 0.3388
vn -0.6152 0.3942 -0.6827
vn -0.8930 0.3814 -0.2391
vn -0.8349 0.4689 -0.2882
vn 0.1037 -0.7900 -0.6043
vn 0.0356 -0.9803 0.1942
vn -0.1272 -0.0193 -0.9917
vn -0.2468 0.5189 0.8184
vn -0.1393 -0.9755 0.1705
vn 0.4248 0.4029 0.8107
vn -0.7656 0.1631 -0.6223
vn 0.3021 -0.9275 0.2200
vn 0.5591 0.2779 0.7811
vn 0.9148 0.0752 0.3969
vn 0.7742 0.3433 0.5318
vn -0.3338 0.8338 -0.4397
vn -0.5093 0.6135 -0.6035
vn 0.0120 -0.4405 -0.8977
vn 0.2233 0.4156 0.8817
vn -0.4008 0.9162 -0.0011
vn -0.7525 0.6444 -0.1359
vn -0.2864 0.5702 -0.7700
vn -0.4031 -0.2601 -0.8774
vn -0.4876 -0.5607 -0.6692
vn 0.7502 0.6275 0.2084
vn 0.7282 0.3660 0.5794
vn 0.6054 0.5857 0.5389
vn -0.2126 -0.9397 0.2679
vn 0.1108 -0.9821 0.1526
vn -0.7284 -0.2508 -0.6375
vn 0.5695 0.7430 0.3517
vn 0.8446 0.5295 0.0784
vn 0.5528 0.8000 -0.2332
vn -0.1742 0.7519 -0.6358
vn -0.1014 0.9707 -0.2177
vn 0.7265 0.0129 0.6871
vn 0.5228 0.3031 0.7967
vn 0.9200 0.3375 0.1993
vn 0.8960 0.3738 0.2399
vn 0.9000 0.3480 0.2625
vn 0.4881 -0.0808 0.8690
vn 0.9053 0.2040 0.3726
vn 0.7478 0.6638 -0.0128
vn -0.0321 -0.3992 -0.9163
vn -0.9478 -0.1911 0.2553
vn -0.8152 0.0746 0.5743
vn -0.9655 0.0242 0.2595
vn 0.5333 -0.6965 -0.4800
vn 0.5892 -0.1021 -0.8015
vn 0.2803 -0.7153 -0.6402
vn -0.9322 -0.1771 -0.3157
vn -0.8871 0.2804 -0.3665
vn -0.2394 0.9462 0.2178
vn -0.1970 0.9529 0.2305
vn -0.4467 0.8846 0.1341
vn -0.5227 0.0744 0.8493
vn -0.1152 -0.4917 -0.8631
vn -0.3375 -0.5095 -0.7915
vn -0.1220 -0.2466 -0.9614
vn -0.1332 -0.0768 -0.9881
vn 0.0980 0.0346 -0.9946
vn -0.3430 0.8938 -0.2890
vn -0.6227 0.7248 -0.2948
vn -0.7728 0.2609 -0.5785
vn -0.2001 -0.1788 0.9633
vn 0.0998 -0.3642 0.9259
vn 0.4695 0.8733 0.1300
vn 0.6589 -0.6396 -0.3959
vn 0.8376 -0.4668 -0.2838
vn 0.1058 0.6830 0.7227
vn -0.3285 0.7708 0.5458
vn -0.2384 0.8558 0.4591
vn 0.9368 -0.3397 0.0836
vn -0.4694 -0.0654 0.8806
vn -0.8155 -0.0040 0.5787
vn -0.9422 0.3324 -0.0416
vn -0.1537 -0.9645 0.2147
vn -0.0107 0.4232 -0.9060
vn 0.0169 -0.8014 -0.5978
vn 0.6920 -0.5753 -0.4360
vn -0.0822 -0.9480 0.3074
vn 0.3603 -0.7319 -0.5783
vn -0.9065 -0.0367 -0.4206
vn 0.1372 -0.9866 0.0882
vn 0.7855 0.5753 0.2280
vn -0.3557 -0.8940 -0.2725
vn 0.2535 -0.7610 -0.5971
vn 0.2537 -0.5652 -0.7850
vn -0.9083 0.1037 0.4053
vn -0.8461 0.1031 0.5229
vn -0.1551 -0.9592 -0.2364
vn -0.1806 -0.9336 -0.3095
vn -0.2087 -0.9357 0.2844
vn -0.0874 -0.4729 -0.8768
vn -0.3593 -0.8185 -0.4482
vn 0.4412 -0.0199 0.8972
vn -0.1199 0.1993 0.9726
vn 0.3507 0.1496 0.9245
vn 0.8573 -0.4099 0.3116
vn 0.9361 0.2621 0.2344
vn 0.7893 0.0499 0.6119
vn 0.2835 0.9304 0.2326
vn 0.0654 0.4870 0.8709
vn -0.1527 0.3749 0.9144
vn 0.0391 0.4821 0.8752
vn -0.2388 -0.9655 0.1040
vn 0.8529 -0.0843 0.5152
vn -0.7701 0.0585 0.6352
vn -0.8172 0.2572 0.5158
vn 0.2214 -0.1166 -0.9682
vn 0.2730 -0.0702 -0.9595
vn -0.7082 0.3201 0.6292
vn -0.8780 0.3467 0.3300
vn 0.3887 -0.8240 -0.4123
vn -0.0288 -0.9158 -0.4006
vn -0.4303 -0.8535 0.2941
vn -0.5272 -0.6926 0.4923
vn -0.9053 -0.3702 0.2083
vn 0.0379 -0.7488 -0.6618
vn 0.1651 0.1013 -0.9811
vn 0.3691 0.2990 -0.8800
vn 0.8407 0.5143 0.1695
vn -0.1582 -0.2361 -0.9588
vn -0.0742 -0.8531 -0.5165
vn 0.0728 -0.9582 0.2766
vn 0.0347 -0.0660 -0.9972
vn 0.3924 0.1045 -0.9138
vn 0.9116 0.3255 0.2511
vn 0.7821 0.4202 -0.4602
vn 0.6071 0.0059 -0.7946
vn -0.0706 -0.9974 -0.0127
vn -0.1405 -0.9822 0.1249
vn 0.6567 0.7091 0.2569
vn 0.9386 -0.1603 -0.3055
vn 0.9104 0.4058 -0.0810
vn 0.1098 0.2188 -0.9696
vn 0.1958 0.2132 -0.9572
vn -0.3870 -0.0303 0.9216
vn -0.9372 0.3488 0.0064
vn -0.7321 0.5709 0.3716
vn 0.6757 0.3874 -0.6271
vn 0.2987 0.4204 -0.8568
vn -0.9856 -0.0072 0.1691
vn 0.2836 -0.9555 0.0816
vn -0.1904 0.6476 0.7378
vn 0.8005 0.0314 -0.5984
vn 0.4738 0.2284 -0.8505
vn 0.5227 0.2074 -0.8269
vn 0.3129 0.3218 -0.8936
vn 0.2967 0.3872 -0.8730
vn 0.4643 0.4632 -0.7549
vn 0.4587 -0.5754 -0.6771
vn 0.5838 -0.6897 -0.4284
vn 0.0026 -0.1916 -0.9815
vn 0.3846 -0.9222 0.0405
vn 0.2905 -0.9498 -0.1164
vn -0.6112 -0.7730 0.1700
vn -0.9020 -0.3597 0.2386
vn -0.9165 -0.3668 0.1598
vn 0.1321 -0.0215 0.9910
vn 0.0667 0.5987 0.7982
vn -0.0518 -0.0694 -0.9962
vn 0.5028 0.1477 -0.8517
vn 0.1445 0.0414 -0.9886
vn 0.6645 0.1178 0.7380
vn 0.3604 0.8899 0.2796
vn -0.1788 0.9660 0.1869
vn -0.9601 0.2187 0.1745
vn -0.5704 -0.8207 0.0317
vn -0.4711 -0.8701 0.1450
vn 0.8073 0.5638 0.1742
vn 0.3487 0.7811 -0.5180
vn -0.2394 0.0604 -0.9690
vn -0.2702 0.2545 -0.9286
vn 0.2405 -0.9001 -0.3632
vn -0.5183 0.8140 -0.2623
vn -0.8966 -0.3137 0.3127
vn -0.1529 0.5100 -0.8465
vn -0.3308 -0.5691 0.7528
vn -0.3276 -0.5055 0.7982
vn -0.2857 -0.1060 0.9524
vn 0.2843 0.2540 -0.9245
vn 0.5091 0.8606 -0.0147
vn 0.4775 0.8580 0.1894
vn 0.7914 -0.2256 0.5682
vn 0.0329 -0.7200 0.6932
vn 0.8661 0.4933 0.0816
vn 0.5279 0.8049 0.2709
vn 0.6602 0.1808 -0.7290
vn 0.7276 0.0830 -0.6810
vn 0.4357 -0.6742 -0.5964
vn 0.0860 -0.1700 -0.9817
vn 0.9797 0.0294 0.1982
vn 0.9796 -0.1520 0.1311
vn -0.4556 -0.8871 0.0741
vn -0.7869 -0.0222 -0.6167
vn -0.1880 -0.8890 -0.4175
vn 0.4548 0.3670 -0.8115
vn 0.3192 0.2908 -0.9020
vn -0.0645 0.3042 -0.9504
vn 0.3347 0.1811 0.9248
vn -0.1188 0.5099 0.8520
vn -0.7979 -0.3296 -0.5047
vn 0.0776 -0.2862 0.9550
vn -0.7671 0.0865 0.6357
vn -0.1124 0.2348 -0.9655
vn -0.1292 -0.8675 0.4804
vn -0.2574 0.2149 -0.9421
vn -0.7058 0.2683 -0.6556
vn 0.0420 -0.4924 0.8693
vn -0.3408 -0.8650 0.3683
vn -0.5006 0.8514 -0.1568
vn -0.6347 0.7392 0.2255
vn -0.3141 -0.7333 0.6030
vn -0.1214 -0.9202 0.3721
vn -0.6810 -0.4172 0.6018
vn 0.3684 -0.6889 -0.6242
vn -0.1392 0.9420 -0.3054
vn -0.8105 -0.3697 -0.4544
vn -0.4476 0.3574 -0.8197
vn -0.8882 -0.2173 0.4049
vn -0.6138 0.4503 -0.6485
vn -0.8831 0.3371 -0.3264
vn 0.9771 0.1196 0.1759
vn 0.2245 -0.7618 -0.6077
vn 0.4072 -0.0719 -0.9105
vn 0.0375 -0.9813 0.1888
vn 0.9137 -0.0266 0.4055
vn -0.2479 0.7337 0.6326
vn -0.6694 -0.0616 0.7404
vn -0.0384 -0.9973 0.0620
vn 0.6377 0.5037 -0.5827
vn -0.0201 0.7116 -0.7023
vn -0.1445 0.9817 0.1238
vn 0.6594 -0.2106 0.7216
vn -0.1413 0.9801 0.1391
vn 0.1656 0.9591 0.2298
vn 0.5338 0.5729 0.6220
vn 0.0515 -0.0579 -0.9970
vn -0.2634 -0.3472 0.9000
vn -0.8899 0.0395 -0.4545
vn 0.0221 -0.6347 -0.7724
vn 0.1251 -0.2122 -0.9692
vn -0.8050 0.3548 -0.4755
vn -0.7620 0.3920 -0.5155
vn 0.5869 -0.2860 0.7575
vn 0.0748 0.2863 -0.9552
vn 0.1382 -0.3961 0.9078
vn -0.4647 0.8488 0.2522
vn 0.6155 0.1766 0.7681
vn 0.5302 0.2251 0.8175
vn -0.3192 0.9178 0.2362
vn -0.4789 0.2247 -0.8486
vn 0.8108 0.3891 0.4373
vn 0.0065 0.9548 0.2972
vn -0.3677 0.9226 -0.1166
vn -0.1801 0.9823 0.0516
vn -0.2666 0.3001 0.9159
vn 0.1538 -0.3192 -0.9351
vn -0.7510 0.1964 0.6304
vn -0.3463 0.1880 -0.9191
vn 0.3263 -0.9450 -0.0209
vn -0.5729 -0.7677 0.2871
vn 0.5908 0.4778 -0.6501
vn 0.5517 -0.7004 -0.4528
vn -0.2480 0.4261 0.8700
vn -0.0759 -0.7213 -0.6884
vn -0.0621 -0.9752 -0.2125
vn 0.4476 -0.8858 -0.1227
vn 0.3607 0.5053 -0.7840
vt 0.590660 0.278760
vt 0.602768 0.256954
vt 0.609200 0.279839
vt 0.534081 0.295993
vt 0.511413 0.284764
vt 0.521995 0.269898
vt 0.413355 0.577879
vt 0.423245 0.587330
vt 0.411457 0.596623
vt 0.535450 0.574042
vt 0.510169 0.586985
vt 0.524380 0.546245
vt 0.257035 0.933558
vt 0.315134 0.907083
vt 0.287122 0.991834
vt 0.508019 0.560295
vt 0.499956 0.570857
vt 0.666530 0.207309
vt 0.718991 0.212558
vt 0.664320 0.245919
vt 0.704722 0.143452
vt 0.792284 0.117146
vt 0.747287 0.157077
vt 0.663286 0.456693
vt 0.656735 0.470868
vt 0.634113 0.479334
vt 0.406114 0.899842
vt 0.337705 0.964619
vt 0.353878 0.908541
vt 0.360790 0.663279
vt 0.367226 0.676529
vt 0.359444 0.697053
vt 0.155045 0.695534
vt 0.193576 0.690801
vt 0.167655 0.708139
vt 0.418601 0.739743
vt 0.433968 0.762595
vt 0.411644 0.772691
vt 0.633654 0.443714
vt 0.391189 0.779148
vt 0.353053 0.786062
vt 0.386424 0.760511
vt 0.359019 0.638896
vt 0.649200 0.380826
vt 0.666119 0.415461
vt 0.639740 0.418626
vt 0.140409 0.548268
vt 0.174328 0.571836
vt 0.187036 0.593434
vt 0.568990 0.406552
vt 0.554362 0.383312
vt 0.585462 0.365242
vt 0.315486 0.571964
vt 0.336874 0.583936
vt 0.326921 0.588377
vt 0.411174 0.941890
vt 0.450541 0.895208
vt 0.553886 0.600585
vt 0.569378 0.627106
vt 0.525331 0.605934
vt 0.331485 0.647236
vt 0.317269 0.624790
vt 0.331429 0.620984
vt 0.696149 0.600907
vt 0.628557 0.592040
vt 0.654243 0.540884
vt 0.311152 0.604288
vt 0.222967 0.628976
vt 0.269608 0.631018
vt 0.254027 0.667421
vt 0.673155 0.340274
vt 0.646542 0.349250
vt 0.673153 0.309969
vt 0.342791 0.603312
vt 0.806106 0.266774
vt 0.779169 0.218735
vt 0.817175 0.210698
vt 0.739164 0.278126
vt 0.748596 0.232179
vt 0.771132 0.269636
vt 0.619650 0.563939
vt 0.583848 0.567259
vt 0.590615 0.548261
vt 0.622378 0.522084
vt 0.083742 0.556262
vt 0.091367 0.476779
vt 0.128970 0.523830
vt 0.404271 0.562626
vt 0.398881 0.540947
vt 0.419768 0.556519
vt 0.700502 0.771592
vt 0.665993 0.763784
vt 0.661899 0.731394
vt 0.459428 0.597809
vt 0.447296 0.622712
vt 0.437903 0.602725
vt 0.295154 0.547885
vt 0.268576 0.513352
vt 0.308140 0.491119
vt 0.583594 0.594643
vt 0.563602 0.566776
vt 0.470864 0.589607
vt 0.468480 0.608966
vt 0.608271 0.817365
vt 0.639482 0.882252
vt 0.597931 0.852793
vt 0.345554 0.640657
vt 0.569976 0.501810
vt 0.593698 0.489794
vt 0.576977 0.533686
vt 0.405544 0.531085
vt 0.193709 0.469503
vt 0.219366 0.500216
vt 0.179025 0.502583
vt 0.597284 0.332499
vt 0.621629 0.370810
vt 0.298897 0.631525
vt 0.283677 0.607097
vt 0.436974 0.547037
vt 0.442218 0.536452
vt 0.461681 0.542625
vt 0.284419 0.811163
vt 0.279343 0.784033
vt 0.325957 0.833739
vt 0.241841 0.544852
vt 0.248017 0.573155
vt 0.207043 0.561896
vt 0.190863 0.628632
vt 0.165983 0.627945
vt 0.484533 0.359075
vt 0.485348 0.327890
vt 0.494210 0.361908
vt 0.181023 0.725447
vt 0.103066 0.785492
vt 0.648993 0.303776
vt 0.269479 0.650252
vt 0.306430 0.683486
vt 0.313978 0.665542
vt 0.339930 0.688690
vt 0.266845 0.738406
vt 0.262196 0.761138
vt 0.232055 0.763041
vt 0.463488 0.234626
vt 0.452754 0.276929
vt 0.440481 0.258793
vt 0.468178 0.369552
vt 0.493295 0.395004
vt 0.456050 0.375576
vt 0.449720 0.433726
vt 0.430914 0.453787
vt 0.434318 0.415790
vt 0.603243 0.692900
vt 0.618225 0.703199
vt 0.618333 0.733111
vt 0.525033 0.705962
vt 0.551126 0.712226
vt 0.544878 0.747845
vt 0.391499 0.979035
vt 0.381737 0.931797
vt 0.894871 0.279331
vt 0.918597 0.259076
vt 0.921442 0.290711
vt 0.578590 0.326540
vt 0.567374 0.299412
vt 0.598555 0.304241
vt 0.218826 0.717360
vt 0.137648 0.635723
vt 0.167532 0.650291
vt 0.171921 0.677538
vt 0.606542 0.175400
vt 0.620605 0.095990
vt 0.651095 0.122105
vt 0.846669 0.271304
vt 0.897330 0.237699
vt 0.386790 0.512783
vt 0.373140 0.526229
vt 0.368170 0.495310
vt 0.476465 0.529250
vt 0.456343 0.486361
vt 0.488605 0.510649
vt 0.600459 0.588379
vt 0.594213 0.643936
vt 0.486514 0.606593
vt 0.485302 0.632465
vt 0.353885 0.724359
vt 0.351755 0.748832
vt 0.326070 0.740481
vt 0.672234 0.269835
vt 0.709596 0.248327
vt 0.692689 0.289219
vt 0.600177 0.052067
vt 0.579323 0.095745
vt 0.533694 0.007698
vt 0.436066 0.786625
vt 0.784560 0.496270
vt 0.759218 0.555634
vt 0.740125 0.492644
vt 0.708295 0.350319
vt 0.746882 0.369876
vt 0.703143 0.376076
vt 0.564173 0.738921
vt 0.565408 0.761879
vt 0.392577 0.588107
vt 0.690033 0.336415
vt 0.767016 0.322850
vt 0.620772 0.278445
vt 0.749532 0.289867
vt 0.376903 0.553938
vt 0.944206 0.305969
vt 0.966783 0.269009
vt 0.636428 0.254842
vt 0.653393 0.230175
vt 0.654972 0.256864
vt 0.379809 0.628057
vt 0.394764 0.604178
vt 0.400812 0.623804
vt 0.165425 0.900226
vt 0.207813 0.930942
vt 0.142316 0.935103
vt 0.678774 0.364779
vt 0.830462 0.244081
vt 0.861177 0.221531
vt 0.806831 0.177435
vt 0.750294 0.180888
vt 0.568696 0.442612
vt 0.609032 0.440277
vt 0.563601 0.488146
vt 0.598443 0.506296
vt 0.472303 0.554238
vt 0.269427 0.470586
vt 0.334741 0.429497
vt 0.404796 0.874433
vt 0.676019 0.098284
vt 0.389720 0.669904
vt 0.507331 0.345614
vt 0.149886 0.816833
vt 0.105420 0.888900
vt 0.590796 0.395661
vt 0.433011 0.571766
vt 0.132713 0.717729
vt 0.696353 0.188873
vt 0.781558 0.390038
vt 0.813695 0.408357
vt 0.781096 0.445138
vt 0.469629 0.565836
vt 0.445194 0.570901
vt 0.405441 0.747171
vt 0.608097 0.407848
vt 0.390715 0.463052
vt 0.340448 0.415665
vt 0.497402 0.544314
vt 0.292938 0.664888
vt 0.253448 0.690929
vt 0.711539 0.458345
vt 0.700568 0.429655
vt 0.750554 0.445615
vt 0.658583 0.175164
vt 0.680011 0.174108
vt 0.271923 0.609363
vt 0.650007 0.666304
vt 0.631737 0.693560
vt 0.613670 0.665772
vt 0.500933 0.535819
vt 0.504698 0.526729
vt 0.798922 0.317219
vt 0.777774 0.352058
vt 0.710678 0.814143
vt 0.685527 0.848706
vt 0.680945 0.811710
vt 0.717741 0.288915
vt 0.916949 0.409148
vt 0.887439 0.441197
vt 0.857651 0.366625
vt 0.554783 0.544726
vt 0.329939 0.717823
vt 0.417485 0.230784
vt 0.422873 0.301264
vt 0.388476 0.299668
vt 0.472802 0.845670
vt 0.488510 0.793400
vt 0.497294 0.813146
vt 0.214126 0.540883
vt 0.247702 0.521270
vt 0.487517 0.437629
vt 0.512171 0.445590
vt 0.485114 0.465601
vt 0.511341 0.299967
vt 0.386073 0.743213
vt 0.365567 0.739866
vt 0.392893 0.722648
vt 0.414004 0.673952
vt 0.407653 0.692959
vt 0.441052 0.513852
vt 0.433687 0.478925
vt 0.458893 0.510538
vt 0.555791 0.263389
vt 0.585930 0.261511
vt 0.547901 0.529119
vt 0.554945 0.883047
vt 0.576504 0.917796
vt 0.554990 0.426981
vt 0.522083 0.404060
vt 0.503129 0.421084
vt 0.958023 0.363050
vt 0.977537 0.347434
vt 0.526019 0.247081
vt 0.504685 0.243799
vt 0.234500 0.443138
vt 0.646646 0.162174
vt 0.301884 0.583328
vt 0.979489 0.205893
vt 0.983089 0.243513
vt 0.846615 0.173069
vt 0.405648 0.807651
vt 0.261970 0.548178
vt 0.247399 0.882938
vt 0.660106 0.507647
vt 0.232575 0.737074
vt 0.450245 0.831224
vt 0.465183 0.801420
vt 0.172348 0.485360
vt 0.139302 0.453667
vt 0.883333 0.172725
vt 0.911812 0.197486
vt 0.593259 0.149875
vt 0.283605 0.706030
vt 0.254359 0.715650
vt 0.615095 0.304664
vt 0.633355 0.289512
vt 0.619030 0.322737
vt 0.924703 0.315143
vt 0.928523 0.353248
vt 0.884201 0.345765
vt 0.549889 0.503577
vt 0.529269 0.337863
vt 0.554850 0.315789
vt 0.562240 0.345201
vt 0.108366 0.686282
vt 0.682336 0.391441
vt 0.443884 0.302864
vt 0.422780 0.326614
vt 0.464716 0.737516
vt 0.438221 0.728050
vt 0.449021 0.334820
vt 0.403687 0.349661
vt 0.459560 0.935341
vt 0.424807 0.977639
vt 0.518263 0.122925
vt 0.535198 0.171441
vt 0.468326 0.168799
vt 0.312109 0.760255
vt 0.467946 0.643006
vt 0.458100 0.655129
vt 0.700603 0.495951
vt 0.727752 0.547678
vt 0.393216 0.701158
vt 0.223385 0.694285
vt 0.780720 0.156707
vt 0.432866 0.688537
vt 0.448733 0.713765
vt 0.695366 0.629338
vt 0.697206 0.702179
vt 0.587023 0.757183
vt 0.569444 0.791328
vt 0.305169 0.874886
vt 0.505597 0.037294
vt 0.544586 0.106233
vt 0.630989 0.621234
vt 0.581495 0.808589
vt 0.607141 0.772164
vt 0.479010 0.671718
vt 0.494572 0.663720
vt 0.544000 0.281087
vt 0.287920 0.391361
vt 0.433301 0.364940
vt 0.507677 0.723269
vt 0.499206 0.706154
vt 0.384083 0.270917
vt 0.895115 0.219318
vt 0.522906 0.373521
vt 0.523603 0.803305
vt 0.516669 0.768168
vt 0.533230 0.796502
vt 0.459562 0.704142
vt 0.437464 0.671126
vt 0.588176 0.666921
vt 0.558050 0.811950
vt 0.534765 0.827473
vt 0.420253 0.702627
vt 0.202929 0.832188
vt 0.253029 0.811070
vt 0.488347 0.079946
vt 0.064882 0.505017
vt 0.033292 0.578811
vt 0.658667 0.285544
vt 0.992417 0.158379
vt 0.938145 0.160728
vt 0.551111 0.402947
vt 0.529853 0.752614
vt 0.524036 0.731573
vt 0.532625 0.952288
vt 0.472867 0.726789
vt 0.809767 0.349582
vt 0.561754 0.455452
vt 0.546555 0.443795
vt 0.359417 0.255654
vt 0.332947 0.334460
vt 0.196676 0.737714
vt 0.154868 0.775372
vt 0.679210 0.479666
vt 0.440316 0.629167
vt 0.421431 0.660729
vt 0.412966 0.630376
vt 0.373976 0.833477
vt 0.402749 0.505193
vt 0.069817 0.832566
vt 0.453182 0.207148
vt 0.421692 0.610797
vt 0.598113 0.210079
vt 0.619752 0.213128
vt 0.617705 0.231117
vt 0.515988 0.628855
vt 0.538587 0.545370
vt 0.527341 0.532532
vt 0.847380 0.310731
vt 0.647690 0.209502
vt 0.598980 0.466162
vt 0.614091 0.476587
vt 0.501860 0.772470
vt 0.504244 0.752282
vt 0.509602 0.886620
vt 0.552008 0.779156
vt 0.613879 0.886850
vt 0.860882 0.449046
vt 0.830505 0.455298
vt 0.202486 0.758160
vt 0.291400 0.595217
vt 0.375088 0.872869
vt 0.520227 0.683627
vt 0.552577 0.667890
vt 0.537670 0.689341
vt 0.622012 0.345583
vt 0.630890 0.327430
vt 0.233157 0.591930
vt 0.596905 0.237937
vt 0.478171 0.299445
vt 0.401048 0.649994
vt 0.759206 0.210027
vt 0.300108 0.574066
vt 0.323623 0.559330
vt 0.582991 0.222320
vt 0.616188 0.189136
vt 0.443947 0.397724
vt 0.418582 0.371409
vt 0.572076 0.200067
vt 0.551032 0.140154
vt 0.918275 0.142566
vt 0.522360 0.219211
vt 0.424102 0.876146
vt 0.417950 0.512849
vt 0.209398 0.667118
vt 0.483207 0.564045
vt 0.484362 0.221161
vt 0.465735 0.149028
vt 0.356880 0.552998
vt 0.341240 0.529590
vt 0.836889 0.409269
vt 0.412345 0.831755
vt 0.490105 0.759459
vt 0.856248 0.157762
vt 0.887193 0.104220
vt 0.840048 0.349442
vt 0.534054 0.381387
vt 0.501388 0.312438
vt 0.200055 0.789273
vt 0.446606 0.652024
vt 0.485756 0.591294
vt 0.879124 0.485488
vt 0.544270 0.466315
vt 0.880305 0.323771
vt 0.504581 0.512578
vt 0.527172 0.510530
vt 0.624149 0.430884
vt 0.406557 0.713413
vt 0.230404 0.404785
vt 0.538761 0.235632
vt 0.343789 0.551615
vt 0.292507 0.733217
vt 0.412504 0.197202
vt 0.306794 0.713700
vt 0.340042 0.503113
vt 0.322722 0.532503
vt 0.850724 0.236463
vt 0.478874 0.699376
vt 0.643833 0.223055
vt 0.490148 0.491827
vt 0.711404 0.393431
vt 0.737551 0.407017
vt 0.466056 0.398901
vt 0.359773 0.589811
vt 0.642877 0.805384
vt 0.536031 0.487198
vt 0.403179 0.394035
vt 0.404854 0.434683
vt 0.836737 0.541996
vt 0.526488 0.318722
vt 0.511232 0.800710
vt 0.068535 0.647424
vt 0.478262 0.314040
vt 0.350280 0.619752
vt 0.239549 0.832692
vt 0.114973 0.642962
vt 0.585570 0.711033
vt 0.839545 0.120590
vt 0.484702 0.877599
vt 0.536734 0.349937
vt 0.389598 0.223064
vt 0.492810 0.919704
vt 0.292187 0.756231
vt 0.226549 0.977507
vt 0.987228 0.298733
vt 0.198763 0.879332
vt 0.340576 0.375937
vt 0.721211 0.110448
vt 0.582348 0.694772
vt 0.497833 0.962844
s 1
usemtl Rock7_MAT
f 72/1/1 422/2/2 73/3/3
f 303/4/4 39/5/5 409/6/6
f 380/7/7 397/8/8 238/9/9
f 254/10/10 202/11/11 300/12/12
f 102/13/13 396/14/14 85/15/15
f 139/16/16 202/11/11 133/17/17
f 224/18/18 413/19/19 334/20/20
f 369/21/21 392/22/22 97/23/23
f 158/24/24 65/25/25 249/26/26
f 470/27/27 403/28/28 299/29/29
f 375/30/30 435/31/31 12/32/32
f 45/33/33 266/34/34 28/35/35
f 424/36/36 19/37/37 37/38/38
f 326/39/39 158/24/24 249/26/26
f 350/40/40 481/41/41 54/42/42
f 375/30/30 230/43/43 435/31/31
f 223/44/44 257/45/45 348/46/46
f 353/47/47 235/48/48 56/49/49
f 94/50/50 312/51/51 48/52/52
f 47/53/53 178/54/54 296/55/55
f 68/56/56 470/27/27 242/57/57
f 328/58/58 356/59/59 120/60/60
f 302/61/61 14/62/62 184/63/63
f 103/64/64 78/65/65 313/66/66
f 60/67/67 296/55/55 184/63/63
f 99/68/68 416/69/69 219/70/70
f 331/71/71 378/72/72 9/73/73
f 296/55/55 15/74/74 184/63/63
f 478/75/75 407/76/76 41/77/77
f 212/78/78 146/79/79 475/80/80
f 340/81/81 209/82/82 132/83/83
f 132/83/83 386/84/84 340/81/81
f 401/85/85 36/86/86 40/87/87
f 156/88/88 349/89/89 346/90/90
f 330/91/91 449/92/92 55/93/93
f 136/94/94 232/95/95 33/96/96
f 426/97/97 225/98/98 457/99/99
f 209/82/82 59/100/100 172/101/101
f 210/102/102 171/103/103 136/94/94
f 82/104/104 239/105/105 87/106/106
f 184/63/63 196/107/107 302/61/61
f 418/108/108 110/109/109 64/110/110
f 346/90/90 349/89/89 83/111/111
f 119/112/112 245/113/113 16/114/114
f 445/115/115 200/116/116 48/52/52
f 121/117/117 416/69/69 434/118/118
f 101/119/119 430/120/120 233/121/121
f 355/122/122 229/123/123 53/124/124
f 250/125/125 425/126/126 456/127/127
f 459/128/128 124/129/129 56/49/49
f 177/130/130 321/131/131 273/132/132
f 142/133/133 287/134/134 28/35/35
f 9/73/73 378/72/72 412/135/135
f 219/70/70 416/69/69 411/136/136
f 98/137/137 406/138/138 163/139/139
f 290/140/140 345/141/141 30/142/142
f 175/143/143 333/144/144 414/145/145
f 169/146/146 125/147/147 421/148/148
f 34/149/149 241/150/150 226/151/151
f 185/152/152 11/153/153 444/154/154
f 469/155/155 198/156/156 201/157/157
f 68/56/56 22/158/158 222/159/159
f 29/160/160 379/161/161 91/162/162
f 289/163/163 465/164/164 131/165/165
f 142/133/133 266/34/34 6/166/166
f 12/32/32 163/139/139 375/30/30
f 351/167/167 164/168/168 71/169/169
f 33/96/96 397/8/8 136/94/94
f 243/170/170 100/171/171 122/172/172
f 370/173/173 135/174/174 29/160/160
f 69/175/175 339/176/176 234/177/177
f 236/178/178 474/179/179 13/180/180
f 468/181/181 80/182/182 59/100/100
f 309/183/183 294/184/184 171/103/103
f 5/185/185 388/186/186 211/187/187
f 220/188/188 458/189/189 324/190/190
f 287/191/134 118/192/191 117/193/192
f 37/38/38 19/37/37 310/194/193
f 398/195/194 419/196/195 264/197/196
f 152/198/197 301/199/198 108/200/199
f 201/157/157 453/201/200 275/202/201
f 383/203/202 156/88/88 380/7/7
f 152/198/197 244/204/203 487/205/204
f 403/28/28 85/15/15 396/14/14
f 270/206/205 73/3/3 422/2/2
f 478/75/75 472/207/206 475/80/80
f 260/208/207 339/176/176 349/89/89
f 311/209/208 379/161/161 168/210/209
f 217/211/210 186/212/211 111/213/212
f 143/214/213 439/215/214 191/216/215
f 64/110/110 132/83/83 172/101/101
f 204/217/216 285/218/217 314/219/218
f 148/220/219 257/45/45 223/44/44
f 63/221/220 41/77/77 176/222/221
f 276/223/222 407/76/76 292/224/223
f 436/225/224 52/226/225 389/227/226
f 235/48/48 456/127/127 56/49/49
f 64/110/110 110/109/109 455/228/227
f 233/121/121 236/178/178 107/229/228
f 457/99/99 286/230/229 61/231/230
f 229/123/123 345/141/141 290/140/140
f 470/27/27 299/29/29 104/232/231
f 122/172/172 100/171/171 360/233/232
f 316/234/233 230/43/43 143/214/213
f 273/132/132 321/131/131 344/235/234
f 493/236/235 204/217/216 360/237/232
f 94/50/50 48/52/52 447/238/236
f 106/239/237 397/8/8 346/90/90
f 45/33/33 28/35/35 117/240/192
f 97/23/23 292/224/223 113/241/238
f 35/242/239 400/243/240 428/244/241
f 101/119/119 154/245/242 62/246/243
f 54/42/42 485/247/244 37/38/38
f 52/226/225 436/225/224 197/248/245
f 415/249/246 61/231/230 38/250/247
f 300/12/12 139/16/16 207/251/248
f 411/136/136 86/252/249 427/253/250
f 79/254/251 362/255/252 366/256/253
f 399/257/254 360/233/232 450/258/255
f 416/69/69 190/259/256 434/118/118
f 10/260/257 179/261/258 174/262/259
f 128/263/260 13/180/180 443/264/261
f 472/207/206 141/265/262 487/205/204
f 336/266/263 301/199/198 487/205/204
f 113/241/238 292/224/223 413/19/19
f 494/267/264 173/268/265 193/269/266
f 452/270/267 487/205/204 244/204/203
f 173/271/265 494/272/264 367/273/268
f 64/110/110 172/101/101 263/274/269
f 5/185/185 211/187/187 410/275/270
f 338/276/271 205/277/272 342/278/273
f 387/279/274 461/280/275 215/281/276
f 250/125/125 265/282/277 31/283/278
f 474/179/179 241/150/150 34/149/149
f 491/284/279 291/285/280 476/286/281
f 39/5/5 303/4/4 74/287/282
f 429/288/283 112/289/284 151/290/285
f 88/291/286 17/292/287 316/234/233
f 341/293/288 153/294/289 144/295/290
f 331/71/71 9/73/73 244/204/203
f 465/164/164 295/296/291 150/297/292
f 129/298/293 64/110/110 263/274/269
f 410/275/270 163/139/139 5/185/185
f 183/299/294 87/106/106 432/300/295
f 257/45/45 158/24/24 348/46/46
f 69/175/175 349/89/89 339/176/176
f 436/225/224 354/301/296 94/50/50
f 140/302/297 66/303/298 125/147/147
f 299/29/29 403/28/28 396/14/14
f 239/304/105 311/209/208 23/305/299
f 488/306/300 409/6/6 477/307/301
f 286/230/229 245/113/113 352/308/302
f 119/112/112 352/308/302 245/113/113
f 247/309/303 243/170/170 122/172/172
f 60/67/67 391/310/304 296/55/55
f 21/311/305 490/312/306 135/174/174
f 59/100/100 80/182/182 356/59/59
f 41/77/77 466/313/307 176/222/221
f 206/314/308 37/38/38 310/194/193
f 256/315/309 425/126/126 250/125/125
f 246/316/310 102/13/13 285/218/217
f 214/317/311 249/26/26 65/25/25
f 322/318/312 290/140/140 30/142/142
f 440/319/313 310/194/193 149/320/314
f 2/321/315 36/86/86 482/322/316
f 256/315/309 31/283/278 225/98/98
f 466/313/307 451/323/317 402/324/318
f 287/191/134 95/325/319 118/192/191
f 105/326/320 318/327/321 427/253/250
f 446/328/322 417/329/323 123/330/324
f 150/297/292 72/1/1 465/164/164
f 195/331/325 57/332/326 394/333/327
f 209/82/82 468/181/181 59/100/100
f 418/108/108 268/334/328 389/227/226
f 203/335/329 109/336/330 368/337/331
f 193/269/266 449/92/92 330/91/91
f 117/240/192 473/338/332 45/33/33
f 252/339/333 362/255/252 257/45/45
f 205/277/272 484/340/334 50/341/335
f 397/8/8 210/102/102 136/94/94
f 376/342/336 19/37/37 114/343/337
f 54/42/42 429/288/283 485/247/244
f 50/341/335 337/344/338 89/345/339
f 67/346/340 182/347/341 242/57/57
f 404/348/342 483/349/343 492/350/344
f 481/41/41 53/124/124 160/351/345
f 127/352/346 157/353/347 232/95/95
f 214/317/311 51/354/348 103/355/64
f 471/356/349 5/185/185 12/32/32
f 170/357/350 6/166/166 266/34/34
f 97/23/23 392/22/22 332/358/351
f 282/359/352 438/360/353 114/343/337
f 419/361/195 213/362/354 10/260/257
f 275/202/201 279/363/355 7/364/356
f 102/13/13 246/316/310 20/365/357
f 473/366/332 231/367/358 404/348/342
f 78/65/65 103/64/64 167/368/359
f 114/343/337 438/360/353 376/342/336
f 63/221/220 135/174/174 370/173/173
f 82/104/104 335/369/360 24/370/361
f 311/209/208 91/162/162 379/161/161
f 129/298/293 268/334/328 418/108/108
f 40/87/87 2/321/315 16/114/114
f 195/331/325 311/209/208 239/304/105
f 92/371/362 294/184/184 377/372/363
f 488/306/300 295/296/291 361/373/364
f 172/101/101 132/83/83 209/82/82
f 126/374/365 286/230/229 352/308/302
f 396/14/14 20/365/357 53/124/124
f 337/344/338 76/375/366 89/345/339
f 374/376/367 365/377/368 469/155/155
f 164/168/168 124/129/129 459/128/128
f 164/168/168 351/167/167 124/129/129
f 286/230/229 31/283/278 245/113/113
f 92/371/362 157/353/347 127/352/346
f 362/255/252 158/24/24 257/45/45
f 338/276/271 342/278/273 81/378/369
f 233/121/121 430/120/120 144/295/290
f 474/179/179 144/295/290 153/294/289
f 208/379/370 402/324/318 21/311/305
f 344/235/234 203/335/329 454/380/371
f 300/12/12 202/11/11 139/16/16
f 305/381/372 165/382/373 138/383/374
f 357/384/375 298/385/376 157/353/347
f 179/261/258 213/362/354 55/93/93
f 398/195/194 428/244/241 400/243/240
f 188/386/377 80/182/182 174/262/259
f 221/387/378 27/388/379 138/383/374
f 114/343/337 486/389/380 282/359/352
f 464/390/381 30/142/142 155/391/382
f 433/392/383 473/366/332 404/348/342
f 251/393/384 401/85/85 347/394/385
f 217/211/210 363/395/386 417/329/323
f 244/204/203 148/220/219 331/71/71
f 67/396/340 21/311/305 182/397/341
f 312/51/51 94/50/50 423/398/387
f 393/399/388 165/382/373 130/400/389
f 183/299/294 432/300/295 490/401/306
f 218/402/390 365/377/368 374/376/367
f 136/94/94 171/103/103 232/95/95
f 86/252/249 416/69/69 121/117/117
f 484/340/334 205/277/272 333/144/144
f 336/266/263 43/403/391 35/242/239
f 272/404/392 384/405/393 436/225/224
f 482/406/316 81/378/369 192/407/394
f 240/408/395 358/409/396 287/134/134
f 408/410/397 158/24/24 362/255/252
f 146/79/79 407/76/76 475/80/80
f 277/411/398 269/412/399 18/413/400
f 53/124/124 481/41/41 25/414/401
f 428/244/241 366/256/253 35/242/239
f 232/95/95 277/411/398 33/96/96
f 69/175/175 415/249/246 307/415/402
f 478/75/75 41/77/77 63/221/220
f 163/139/139 406/138/138 302/61/61
f 471/356/349 151/290/285 5/185/185
f 313/66/66 214/317/311 103/355/64
f 100/416/171 287/134/134 493/236/235
f 338/276/271 194/417/403 175/143/143
f 309/183/183 171/103/103 210/102/102
f 439/215/214 238/9/9 77/418/404
f 216/419/405 460/420/406 3/421/407
f 26/422/408 377/372/363 294/184/184
f 129/298/293 437/423/409 405/424/410
f 370/173/173 478/75/75 63/221/220
f 259/425/411 370/173/173 29/160/160
f 111/213/212 334/20/20 220/188/188
f 208/379/370 466/313/307 402/324/318
f 116/426/412 399/257/254 224/18/18
f 278/427/413 52/226/225 381/428/414
f 134/429/415 189/430/416 165/382/373
f 282/359/352 357/384/375 438/360/353
f 170/357/350 427/253/250 6/166/166
f 183/299/294 490/401/306 420/431/417
f 271/432/418 7/364/356 221/387/378
f 486/389/380 88/291/286 269/412/399
f 38/250/247 61/231/230 126/374/365
f 239/105/105 23/433/299 87/106/106
f 147/434/419 228/435/420 400/243/240
f 148/220/219 223/44/44 331/71/71
f 90/436/421 358/409/396 240/408/395
f 171/103/103 294/184/184 127/352/346
f 448/437/422 60/67/67 121/117/117
f 316/234/233 17/292/287 471/356/349
f 299/29/29 320/438/423 104/232/231
f 448/437/422 434/118/118 190/259/256
f 258/439/424 262/440/425 304/441/426
f 75/442/427 93/443/428 378/72/72
f 322/318/312 240/408/395 6/166/166
f 407/76/76 478/75/75 475/80/80
f 332/358/351 276/223/222 292/224/223
f 105/326/320 86/252/249 98/137/137
f 99/68/68 56/49/49 181/444/429
f 265/282/277 245/113/113 31/283/278
f 150/297/292 373/445/430 422/2/2
f 124/129/129 351/167/167 56/49/49
f 39/5/5 74/287/282 1/446/431
f 444/154/154 179/261/258 55/93/93
f 287/134/134 358/409/396 493/236/235
f 32/447/432 88/291/286 316/234/233
f 295/296/291 465/164/164 361/373/364
f 206/314/308 350/40/40 37/38/38
f 71/169/169 266/34/34 45/33/33
f 190/259/256 425/126/126 448/437/422
f 413/19/19 161/448/433 146/79/79
f 47/53/53 4/449/434 308/450/435
f 150/297/292 295/296/291 325/451/436
f 172/101/101 254/10/10 437/423/409
f 391/310/304 4/449/434 47/53/53
f 216/419/405 373/445/430 325/451/436
f 377/372/363 258/439/424 365/377/368
f 87/106/106 23/433/299 432/300/295
f 199/452/437 216/419/405 243/170/170
f 437/423/409 300/12/12 405/424/410
f 34/149/149 226/151/151 180/453/438
f 76/375/366 70/454/439 89/345/339
f 166/455/440 483/349/343 261/456/441
f 265/282/277 16/114/114 245/113/113
f 183/299/294 221/387/378 87/106/106
f 278/427/413 110/109/109 389/227/226
f 451/323/317 22/457/158 182/397/341
f 248/458/442 166/455/440 325/451/436
f 129/298/293 263/274/269 437/423/409
f 470/27/27 104/232/231 462/459/443
f 101/119/119 288/460/444 341/293/288
f 261/456/441 95/325/319 166/455/440
f 376/342/336 357/384/375 218/402/390
f 267/461/445 219/70/70 170/357/350
f 469/155/155 258/439/424 304/441/426
f 154/245/242 107/229/228 343/462/446
f 173/271/265 57/332/326 239/304/105
f 477/307/301 137/463/447 248/458/442
f 321/131/131 177/130/130 337/344/338
f 243/170/170 95/325/319 100/171/171
f 98/137/137 86/252/249 406/138/138
f 27/388/379 305/381/372 138/383/374
f 26/422/408 309/183/183 202/11/11
f 347/464/385 433/392/383 404/348/342
f 339/176/176 162/465/448 58/466/449
f 308/450/435 178/54/54 47/53/53
f 252/339/333 148/220/219 108/200/199
f 162/465/448 339/176/176 260/208/207
f 261/456/441 231/367/358 118/192/191
f 24/370/361 444/154/154 449/92/92
f 367/273/268 84/467/450 43/403/391
f 359/468/451 25/414/401 206/314/308
f 399/257/254 450/258/255 224/18/18
f 120/60/60 26/422/408 202/11/11
f 374/376/367 189/430/416 479/469/452
f 329/470/453 403/471/28 22/457/158
f 367/273/268 274/472/454 259/425/411
f 343/462/446 207/251/248 133/17/17
f 49/473/455 312/51/51 423/398/387
f 321/131/131 323/474/456 344/235/234
f 327/475/457 90/436/421 30/142/142
f 157/353/347 298/385/376 145/476/458
f 341/293/288 288/460/444 153/294/289
f 192/407/394 81/378/369 342/278/273
f 472/207/206 478/75/75 141/265/262
f 123/330/324 93/443/428 75/442/427
f 210/102/102 154/245/242 8/477/459
f 228/435/420 147/434/419 330/478/91
f 272/404/392 389/227/226 293/479/460
f 259/425/411 29/160/160 385/480/461
f 35/242/239 43/403/391 400/243/240
f 400/243/240 43/403/391 84/467/450
f 219/70/70 267/461/445 99/68/68
f 317/481/462 253/482/463 443/264/261
f 329/470/453 451/323/317 466/313/307
f 326/39/39 255/483/464 348/46/46
f 121/117/117 60/67/67 14/62/62
f 16/114/114 265/282/277 456/127/127
f 486/389/380 424/36/36 281/484/465
f 83/111/111 307/415/402 288/460/444
f 281/484/465 485/247/244 151/290/285
f 256/315/309 448/437/422 425/126/126
f 277/411/398 145/476/458 298/385/376
f 161/448/433 413/19/19 292/224/223
f 192/485/394 126/374/365 352/308/302
f 386/84/84 249/26/26 214/317/311
f 299/29/29 396/14/14 320/438/423
f 46/486/466 488/306/300 248/458/442
f 412/135/135 363/395/386 9/73/73
f 455/228/227 381/428/414 249/26/26
f 68/56/56 222/159/159 470/27/27
f 162/465/448 467/487/467 58/466/449
f 487/205/204 301/199/198 152/198/197
f 120/60/60 202/11/11 254/10/10
f 495/488/468 290/140/140 105/326/320
f 337/344/338 169/146/146 421/148/148
f 347/464/385 492/350/344 251/489/384
f 163/139/139 489/490/469 98/137/137
f 277/411/398 232/95/95 145/476/458
f 315/491/470 58/466/449 227/492/471
f 180/453/438 76/375/366 421/148/148
f 275/202/201 7/364/356 271/432/418
f 173/271/265 394/333/327 57/332/326
f 452/270/267 472/207/206 487/205/204
f 113/241/238 450/258/255 369/21/21
f 348/46/46 158/24/24 326/39/39
f 444/154/154 24/370/361 279/363/355
f 120/60/60 254/10/10 328/58/58
f 135/174/174 63/221/220 480/493/472
f 115/494/473 357/384/375 157/353/347
f 279/363/355 275/202/201 453/201/200
f 382/495/474 460/420/406 116/426/412
f 30/142/142 345/141/141 155/391/382
f 476/286/281 441/496/475 474/179/179
f 282/359/352 298/385/376 357/384/375
f 234/177/177 339/176/176 315/491/470
f 319/497/476 372/498/477 362/255/252
f 371/499/478 34/149/149 180/453/438
f 178/54/54 280/500/479 15/74/74
f 62/246/243 397/8/8 106/239/237
f 142/133/133 28/35/35 266/34/34
f 451/323/317 182/397/341 402/324/318
f 327/475/457 358/409/396 90/436/421
f 239/105/105 431/501/480 173/268/265
f 244/204/203 152/198/197 148/220/219
f 343/462/446 133/17/17 8/477/459
f 156/88/88 346/90/90 380/7/7
f 476/286/281 34/149/149 491/284/279
f 401/85/85 251/393/384 36/86/86
f 175/143/143 194/417/403 137/463/447
f 176/222/221 466/313/307 208/379/370
f 46/486/466 325/451/436 295/296/291
f 8/477/459 309/183/183 210/102/102
f 317/481/462 443/264/261 13/180/180
f 253/482/463 317/481/462 284/502/481
f 52/226/225 197/248/245 255/483/464
f 108/200/199 301/199/198 319/497/476
f 61/231/230 415/249/246 234/177/177
f 38/250/247 306/503/482 415/249/246
f 101/119/119 341/293/288 430/120/120
f 201/157/157 275/202/201 271/432/418
f 101/119/119 233/121/121 154/245/242
f 145/476/458 232/95/95 157/353/347
f 488/306/300 361/373/364 409/6/6
f 346/90/90 101/119/119 106/239/237
f 404/348/342 261/456/441 483/349/343
f 408/410/397 65/25/25 158/24/24
f 20/365/357 355/122/122 53/124/124
f 226/151/151 241/150/150 283/504/483
f 270/206/205 446/328/322 73/3/3
f 493/236/235 358/409/396 327/475/457
f 70/454/439 180/453/438 226/151/151
f 186/212/211 334/20/20 111/213/212
f 383/203/202 280/500/479 260/208/207
f 400/243/240 228/435/420 213/505/354
f 197/248/245 447/238/236 200/116/116
f 130/400/389 165/382/373 189/430/416
f 394/333/327 367/273/268 385/480/461
f 147/434/419 84/467/450 494/272/264
f 110/109/109 381/428/414 455/228/227
f 153/294/289 288/460/444 415/249/246
f 264/197/196 79/254/251 366/256/253
f 286/230/229 126/374/365 61/231/230
f 281/484/465 17/292/287 486/389/380
f 401/85/85 40/87/87 353/47/47
f 455/228/227 132/83/83 64/110/110
f 148/220/219 252/339/333 257/45/45
f 485/247/244 429/288/283 151/290/285
f 476/286/281 474/179/179 34/149/149
f 115/494/473 365/377/368 218/402/390
f 109/336/330 203/335/329 496/506/484
f 248/458/442 488/306/300 477/307/301
f 364/507/485 305/381/372 420/431/417
f 353/47/47 351/167/167 401/85/85
f 149/320/314 376/342/336 479/469/452
f 350/40/40 206/314/308 481/41/41
f 435/31/31 230/43/43 316/234/233
f 13/180/180 128/263/260 236/178/178
f 276/223/222 329/470/453 466/313/307
f 123/330/324 445/115/115 131/165/165
f 350/40/40 54/42/42 37/38/38
f 18/413/400 32/447/432 191/216/215
f 364/507/485 215/281/276 134/429/415
f 77/418/404 18/413/400 191/216/215
f 347/394/385 401/85/85 433/508/383
f 269/412/399 32/447/432 18/413/400
f 398/195/194 264/197/196 366/256/253
f 264/197/196 419/196/195 103/355/64
f 154/245/242 233/121/121 107/229/228
f 195/331/325 239/304/105 57/332/326
f 200/116/116 223/44/44 197/248/245
f 297/509/486 74/287/282 323/474/456
f 340/81/81 468/181/181 209/82/82
f 323/474/456 74/287/282 496/506/484
f 112/289/284 54/42/42 481/41/41
f 372/498/477 301/199/198 35/242/239
f 462/459/443 359/468/451 440/319/313
f 143/214/213 187/510/487 280/500/479
f 197/248/245 436/225/224 94/50/50
f 324/190/190 452/270/267 244/204/203
f 320/438/423 396/14/14 53/124/124
f 129/298/293 253/482/463 268/334/328
f 83/111/111 69/175/175 307/415/402
f 237/511/488 155/391/382 355/122/122
f 368/337/331 109/336/330 289/163/163
f 178/54/54 467/487/467 280/500/479
f 225/98/98 31/283/278 286/230/229
f 177/130/130 125/147/147 169/146/146
f 115/494/473 92/371/362 365/377/368
f 247/309/303 116/426/412 199/452/437
f 473/338/332 44/512/489 71/169/169
f 306/503/482 70/454/439 226/151/151
f 127/352/346 294/184/184 92/371/362
f 452/270/267 458/189/189 212/78/78
f 166/455/440 216/419/405 325/451/436
f 447/238/236 197/248/245 94/50/50
f 55/93/93 213/362/354 330/91/91
f 408/410/397 362/255/252 79/254/251
f 410/275/270 211/187/187 489/490/469
f 371/499/478 421/148/148 125/147/147
f 198/156/156 96/513/490 453/201/200
f 436/225/224 389/227/226 272/404/392
f 473/366/332 117/193/192 118/192/191
f 455/228/227 249/26/26 386/84/84
f 351/167/167 353/47/47 56/49/49
f 474/179/179 153/294/289 241/150/150
f 45/33/33 473/338/332 71/169/169
f 247/309/303 122/172/172 360/233/232
f 237/511/488 355/122/122 20/365/357
f 99/68/68 190/259/256 416/69/69
f 3/421/407 422/2/2 373/445/430
f 297/509/486 321/131/131 337/344/338
f 105/326/320 489/490/469 495/488/468
f 484/340/334 1/446/431 297/509/486
f 392/22/22 85/514/15 332/358/351
f 406/138/138 121/117/117 14/62/62
f 195/331/325 91/162/162 311/209/208
f 479/469/452 376/342/336 218/402/390
f 364/507/485 42/515/491 215/281/276
f 83/111/111 288/460/444 101/119/119
f 283/504/483 241/150/150 415/249/246
f 149/320/314 461/280/275 387/279/274
f 211/187/187 388/186/186 160/351/345
f 291/285/280 293/479/460 284/502/481
f 433/508/383 401/85/85 44/512/489
f 391/310/304 60/67/67 448/437/422
f 68/56/56 242/57/57 182/347/341
f 207/251/248 343/462/446 128/263/260
f 342/278/273 50/341/335 89/345/339
f 491/284/279 125/147/147 66/303/298
f 395/516/492 203/335/329 368/337/331
f 276/223/222 41/77/77 407/76/76
f 163/139/139 302/61/61 196/107/107
f 62/246/243 210/102/102 397/8/8
f 364/507/485 420/431/417 42/515/491
f 125/147/147 491/284/279 371/499/478
f 460/420/406 382/495/474 3/421/407
f 131/165/165 72/1/1 73/3/3
f 482/406/316 36/517/86 81/378/369
f 200/116/116 445/115/115 75/442/427
f 173/271/265 367/273/268 394/333/327
f 99/68/68 267/461/445 459/128/128
f 489/490/469 211/187/187 160/351/345
f 442/518/493 67/346/340 42/515/491
f 229/123/123 463/519/494 160/351/345
f 441/496/475 291/285/280 284/502/481
f 33/96/96 77/418/404 238/9/9
f 65/25/25 408/410/397 214/317/311
f 32/447/432 269/412/399 88/291/286
f 412/135/135 123/330/324 417/329/323
f 292/224/223 407/76/76 161/448/433
f 302/61/61 406/138/138 14/62/62
f 392/520/22 285/218/217 102/13/13
f 180/453/438 70/454/439 76/375/366
f 403/471/28 329/470/453 85/514/15
f 243/170/170 247/309/303 199/452/437
f 372/498/477 319/497/476 301/199/198
f 134/429/415 479/469/452 189/430/416
f 160/351/345 495/488/468 489/490/469
f 274/472/454 43/403/391 259/425/411
f 293/479/460 389/227/226 284/502/481
f 67/346/340 242/57/57 42/515/491
f 247/309/303 399/257/254 116/426/412
f 95/325/319 261/456/441 118/192/191
f 383/203/202 260/208/207 156/88/88
f 10/260/257 167/368/359 419/361/195
f 113/241/238 369/21/21 97/23/23
f 129/298/293 405/424/410 253/482/463
f 338/276/271 36/517/86 251/489/384
f 429/288/283 54/42/42 112/289/284
f 399/257/254 247/309/303 360/233/232
f 442/518/493 42/515/491 420/431/417
f 215/281/276 461/280/275 134/429/415
f 193/269/266 330/91/91 494/267/264
f 8/477/459 154/245/242 343/462/446
f 384/405/393 354/301/296 436/225/224
f 220/188/188 324/190/190 363/395/386
f 432/521/295 23/305/299 311/209/208
f 362/255/252 252/339/333 319/497/476
f 362/255/252 372/498/477 366/256/253
f 15/74/74 187/510/487 184/63/63
f 285/218/217 204/217/216 159/522/495
f 398/195/194 400/243/240 213/505/354
f 303/4/4 409/6/6 361/373/364
f 284/502/481 389/227/226 268/334/328
f 34/149/149 371/499/478 491/284/279
f 131/165/165 465/164/164 72/1/1
f 461/280/275 479/469/452 134/429/415
f 280/500/479 383/203/202 439/215/214
f 185/152/152 188/386/377 174/262/259
f 36/517/86 338/276/271 81/378/369
f 232/95/95 171/103/103 127/352/346
f 435/31/31 316/234/233 471/356/349
f 248/458/442 483/349/343 166/455/440
f 344/235/234 323/474/456 496/506/484
f 432/521/295 168/210/209 490/312/306
f 314/219/218 360/237/232 204/217/216
f 291/285/280 384/405/393 293/479/460
f 486/389/380 269/412/399 282/359/352
f 280/500/479 187/510/487 15/74/74
f 167/368/359 103/64/64 419/361/195
f 199/452/437 116/426/412 460/420/406
f 445/115/115 289/163/163 131/165/165
f 375/30/30 163/139/139 196/107/107
f 89/345/339 126/523/365 192/407/394
f 250/125/125 456/127/127 265/282/277
f 279/363/355 96/513/490 444/154/154
f 329/470/453 22/457/158 451/323/317
f 490/312/306 168/210/209 379/161/161
f 80/182/182 188/386/377 356/59/59
f 2/321/315 119/112/112 16/114/114
f 230/43/43 196/107/107 187/510/487
f 441/496/475 13/180/180 474/179/179
f 374/376/367 130/400/389 189/430/416
f 484/340/334 297/509/486 337/344/338
f 293/479/460 384/405/393 272/404/392
f 16/114/114 353/47/47 40/87/87
f 328/58/58 172/101/101 59/100/100
f 193/269/266 173/268/265 431/501/480
f 22/158/158 403/28/28 222/159/159
f 8/477/459 133/17/17 202/11/11
f 49/473/455 140/302/297 454/380/371
f 464/390/381 493/236/235 327/475/457
f 237/511/488 246/316/310 159/522/495
f 300/12/12 443/264/261 253/482/463
f 107/229/228 236/178/178 343/462/446
f 308/450/435 467/487/467 178/54/54
f 328/58/58 59/100/100 356/59/59
f 359/468/451 206/314/308 310/194/193
f 16/114/114 235/48/48 353/47/47
f 273/132/132 125/147/147 177/130/130
f 219/70/70 411/136/136 427/253/250
f 446/328/322 131/165/165 73/3/3
f 287/134/134 117/240/192 28/35/35
f 223/44/44 200/116/116 378/72/72
f 143/214/213 230/43/43 187/510/487
f 86/252/249 105/326/320 427/253/250
f 312/51/51 368/337/331 48/52/52
f 382/495/474 186/212/211 217/211/210
f 169/146/146 337/344/338 177/130/130
f 473/366/332 118/192/191 231/367/358
f 26/422/408 356/59/59 188/386/377
f 423/398/387 94/50/50 354/301/296
f 197/248/245 348/46/46 255/483/464
f 306/503/482 38/250/247 70/454/439
f 271/432/418 221/387/378 138/383/374
f 359/468/451 310/194/193 440/319/313
f 221/387/378 335/369/360 87/106/106
f 287/191/134 100/171/171 95/325/319
f 10/260/257 213/362/354 179/261/258
f 456/127/127 235/48/48 16/114/114
f 238/9/9 383/203/202 380/7/7
f 151/290/285 471/356/349 281/484/465
f 492/350/344 194/417/403 251/489/384
f 464/390/381 159/522/495 204/217/216
f 161/448/433 407/76/76 146/79/79
f 439/215/214 143/214/213 280/500/479
f 146/79/79 212/78/78 458/189/189
f 267/461/445 266/34/34 71/169/169
f 129/298/293 418/108/108 64/110/110
f 197/248/245 223/44/44 348/46/46
f 456/127/127 425/126/126 181/444/429
f 301/199/198 336/266/263 35/242/239
f 135/174/174 490/312/306 379/161/161
f 237/511/488 464/390/381 155/391/382
f 240/408/395 142/133/133 6/166/166
f 220/188/188 363/395/386 111/213/212
f 440/319/313 387/279/274 462/459/443
f 144/295/290 430/120/120 341/293/288
f 29/160/160 91/162/162 385/480/461
f 147/434/419 494/272/264 330/478/91
f 460/420/406 216/419/405 199/452/437
f 71/169/169 44/512/489 351/167/167
f 309/183/183 26/422/408 294/184/184
f 233/121/121 144/295/290 236/178/178
f 84/467/450 367/273/268 494/272/264
f 477/307/301 39/5/5 1/446/431
f 276/223/222 466/313/307 41/77/77
f 114/343/337 19/37/37 424/36/36
f 267/461/445 71/169/169 459/128/128
f 379/161/161 29/160/160 135/174/174
f 373/445/430 216/419/405 3/421/407
f 93/443/428 123/330/324 412/135/135
f 217/211/210 3/421/407 382/495/474
f 329/470/453 276/223/222 332/358/351
f 454/380/371 140/302/297 125/147/147
f 458/189/189 334/20/20 413/19/19
f 192/485/394 352/308/302 119/112/112
f 414/145/145 333/144/144 205/277/272
f 194/417/403 248/458/442 137/463/447
f 310/194/193 19/37/37 149/320/314
f 449/92/92 431/501/480 24/370/361
f 342/278/273 205/277/272 50/341/335
f 52/226/225 278/427/413 389/227/226
f 33/96/96 277/411/398 77/418/404
f 374/376/367 479/469/452 218/402/390
f 354/301/296 66/303/298 140/302/297
f 368/337/331 289/163/163 48/52/52
f 114/343/337 424/36/36 486/389/380
f 457/99/99 227/492/471 426/97/97
f 110/109/109 278/427/413 381/428/414
f 21/311/305 135/174/174 208/379/370
f 237/511/488 20/365/357 246/316/310
f 458/189/189 452/270/267 324/190/190
f 284/502/481 268/334/328 253/482/463
f 241/150/150 153/294/289 415/249/246
f 190/259/256 99/68/68 181/444/429
f 168/210/209 432/521/295 311/209/208
f 228/435/420 330/478/91 213/505/354
f 225/98/98 286/230/229 457/99/99
f 315/491/470 339/176/176 58/466/449
f 453/201/200 201/157/157 198/156/156
f 484/340/334 333/144/144 1/446/431
f 178/54/54 15/74/74 296/55/55
f 421/148/148 371/499/478 180/453/438
f 477/307/301 175/143/143 137/463/447
f 217/211/210 111/213/212 363/395/386
f 478/75/75 370/173/173 141/265/262
f 454/380/371 273/132/132 344/235/234
f 403/28/28 470/27/27 222/159/159
f 457/99/99 315/491/470 227/492/471
f 200/116/116 75/442/427 378/72/72
f 340/81/81 78/65/65 468/181/181
f 496/506/484 203/335/329 344/235/234
f 314/524/218 392/22/22 369/21/21
f 170/357/350 219/70/70 427/253/250
f 185/152/152 390/525/496 188/386/377
f 280/500/479 162/465/448 260/208/207
f 333/144/144 175/143/143 477/307/301
f 318/327/321 290/140/140 322/318/312
f 475/80/80 472/207/206 212/78/78
f 256/315/309 250/125/125 31/283/278
f 390/525/496 96/513/490 198/156/156
f 360/233/232 314/524/218 369/21/21
f 254/10/10 172/101/101 328/58/58
f 467/487/467 227/492/471 58/466/449
f 207/251/248 139/16/16 133/17/17
f 258/439/424 26/422/408 262/440/425
f 405/424/410 300/12/12 253/482/463
f 454/380/371 395/516/492 368/337/331
f 167/368/359 80/182/182 468/181/181
f 337/344/338 421/148/148 76/375/366
f 143/214/213 32/447/432 316/234/233
f 26/422/408 188/386/377 262/440/425
f 164/168/168 459/128/128 71/169/169
f 318/327/321 322/318/312 6/166/166
f 78/65/65 340/81/81 313/66/66
f 426/97/97 227/492/471 308/450/435
f 110/109/109 418/108/108 389/227/226
f 483/349/343 248/458/442 492/350/344
f 284/502/481 317/481/462 441/496/475
f 1/446/431 333/144/144 477/307/301
f 191/216/215 32/447/432 143/214/213
f 380/7/7 346/90/90 397/8/8
f 434/118/118 448/437/422 121/117/117
f 187/510/487 196/107/107 184/63/63
f 387/279/274 440/319/313 149/320/314
f 160/351/345 463/519/494 495/488/468
f 4/449/434 391/310/304 448/437/422
f 96/513/490 185/152/152 444/154/154
f 105/326/320 290/140/140 318/327/321
f 174/262/259 11/153/153 185/152/152
f 85/514/15 329/470/453 332/358/351
f 106/239/237 101/119/119 62/246/243
f 256/315/309 426/97/97 4/449/434
f 82/104/104 24/370/361 431/501/480
f 21/526/305 67/346/340 442/518/493
f 292/224/223 97/23/23 332/358/351
f 72/1/1 150/297/292 422/2/2
f 359/468/451 320/438/423 25/414/401
f 393/399/388 130/400/389 201/157/157
f 182/397/341 21/311/305 402/324/318
f 50/341/335 484/340/334 337/344/338
f 5/185/185 112/289/284 388/186/186
f 458/189/189 413/19/19 146/79/79
f 82/104/104 87/106/106 335/369/360
f 78/65/65 167/368/359 468/181/181
f 119/112/112 482/322/316 192/485/394
f 496/506/484 74/287/282 303/4/4
f 224/18/18 334/20/20 186/212/211
f 308/450/435 4/449/434 426/97/97
f 359/468/451 104/232/231 320/438/423
f 39/5/5 477/307/301 409/6/6
f 363/395/386 412/135/135 417/329/323
f 366/256/253 372/498/477 35/242/239
f 465/164/164 289/163/163 109/336/330
f 79/254/251 51/354/348 408/410/397
f 313/66/66 386/84/84 214/317/311
f 119/112/112 2/321/315 482/322/316
f 82/104/104 431/501/480 239/105/105
f 290/140/140 495/488/468 463/519/494
f 179/261/258 11/153/153 174/262/259
f 319/497/476 252/339/333 108/200/199
f 435/31/31 471/356/349 12/32/32
f 309/183/183 8/477/459 202/11/11
f 335/369/360 7/364/356 24/370/361
f 6/166/166 427/253/250 318/327/321
f 89/345/339 70/454/439 126/523/365
f 291/285/280 66/303/298 384/405/393
f 465/164/164 303/4/4 361/373/364
f 100/416/171 493/236/235 360/237/232
f 363/395/386 324/190/190 9/73/73
f 454/380/371 125/147/147 273/132/132
f 334/20/20 458/189/189 220/188/188
f 109/336/330 303/4/4 465/164/164
f 394/333/327 385/480/461 195/331/325
f 132/83/83 455/228/227 386/84/84
f 172/101/101 437/423/409 263/274/269
f 205/277/272 338/276/271 414/145/145
f 308/450/435 227/492/471 467/487/467
f 230/43/43 375/30/30 196/107/107
f 216/419/405 166/455/440 243/170/170
f 25/414/401 320/438/423 53/124/124
f 135/174/174 176/222/221 208/379/370
f 295/296/291 488/306/300 46/486/466
f 157/353/347 92/371/362 115/494/473
f 101/119/119 346/90/90 83/111/111
f 496/506/484 303/4/4 109/336/330
f 49/473/455 423/398/387 140/302/297
f 304/441/426 262/440/425 198/156/156
f 236/178/178 128/263/260 343/462/446
f 149/320/314 479/469/452 461/280/275
f 103/355/64 51/354/348 264/197/196
f 388/186/186 481/41/41 160/351/345
f 91/162/162 195/331/325 385/480/461
f 238/9/9 439/215/214 383/203/202
f 397/8/8 33/96/96 238/9/9
f 391/310/304 47/53/53 296/55/55
f 249/26/26 381/428/414 326/39/39
f 174/262/259 80/182/182 167/368/359
f 377/372/363 26/422/408 258/439/424
f 408/410/397 51/354/348 214/317/311
f 493/236/235 464/390/381 204/217/216
f 322/318/312 90/436/421 240/408/395
f 234/177/177 315/491/470 61/231/230
f 79/254/251 264/197/196 51/354/348
f 86/252/249 411/136/136 416/69/69
f 449/92/92 444/154/154 55/93/93
f 393/399/388 271/432/418 138/383/374
f 56/49/49 456/127/127 181/444/429
f 37/38/38 485/247/244 424/36/36
f 480/493/472 63/221/220 176/222/221
f 155/391/382 345/141/141 229/123/123
f 167/368/359 10/260/257 174/262/259
f 443/264/261 300/12/12 128/263/260
f 262/440/425 390/525/496 198/156/156
f 454/380/371 203/335/329 395/516/492
f 30/142/142 464/390/381 327/475/457
f 128/263/260 300/12/12 207/251/248
f 298/385/376 282/359/352 269/412/399
f 165/382/373 364/507/485 134/429/415
f 450/258/255 360/233/232 369/21/21
f 445/115/115 48/52/52 289/163/163
f 271/432/418 393/399/388 201/157/157
f 141/265/262 336/266/263 487/205/204
f 426/97/97 256/315/309 225/98/98
f 198/156/156 469/155/155 304/441/426
f 44/512/489 401/85/85 351/167/167
f 135/174/174 480/493/472 176/222/221
f 74/287/282 297/509/486 1/446/431
f 270/206/205 217/211/210 417/329/323
f 121/117/117 406/138/138 86/252/249
f 163/139/139 410/275/270 489/490/469
f 89/345/339 192/407/394 342/278/273
f 420/431/417 305/381/372 27/388/379
f 194/417/403 492/350/344 248/458/442
f 213/505/354 419/196/195 398/195/194
f 223/44/44 378/72/72 331/71/71
f 183/299/294 27/388/379 221/387/378
f 467/487/467 162/465/448 280/500/479
f 469/155/155 201/157/157 130/400/389
f 99/68/68 459/128/128 56/49/49
f 218/402/390 357/384/375 115/494/473
f 420/431/417 27/388/379 183/299/294
f 274/472/454 367/273/268 43/403/391
f 364/507/485 165/382/373 305/381/372
f 277/411/398 18/413/400 77/418/404
f 259/425/411 43/403/391 141/265/262
f 85/15/15 392/520/22 102/13/13
f 444/154/154 11/153/153 179/261/258
f 370/173/173 259/425/411 141/265/262
f 382/495/474 116/426/412 186/212/211
f 210/102/102 62/246/243 154/245/242
f 254/10/10 300/12/12 437/423/409
f 258/439/424 469/155/155 365/377/368
f 52/226/225 255/483/464 326/39/39
f 452/270/267 212/78/78 472/207/206
f 182/347/341 22/158/158 68/56/56
f 285/218/217 392/520/22 314/219/218
f 325/451/436 46/486/466 248/458/442
f 191/216/215 439/215/214 77/418/404
f 425/126/126 190/259/256 181/444/429
f 291/285/280 441/496/475 476/286/281
f 321/131/131 297/509/486 323/474/456
f 20/365/357 396/14/14 102/13/13
f 12/32/32 5/185/185 163/139/139
f 66/303/298 291/285/280 491/284/279
f 447/238/236 48/52/52 200/116/116
f 242/57/57 470/27/27 462/459/443
f 112/289/284 5/185/185 151/290/285
f 95/325/319 243/170/170 166/455/440
f 374/376/367 469/155/155 130/400/389
f 69/175/175 83/111/111 349/89/89
f 454/380/371 368/337/331 312/51/51
f 381/428/414 52/226/225 326/39/39
f 9/73/73 324/190/190 244/204/203
f 260/208/207 349/89/89 156/88/88
f 70/454/439 38/250/247 126/523/365
f 184/63/63 14/62/62 60/67/67
f 404/348/342 492/350/344 347/464/385
f 417/329/323 446/328/322 270/206/205
f 415/249/246 306/503/482 283/504/483
f 256/315/309 4/449/434 448/437/422
f 270/206/205 422/2/2 3/421/407
f 242/57/57 387/279/274 42/515/491
f 415/249/246 288/460/444 307/415/402
f 90/436/421 322/318/312 30/142/142
f 150/297/292 325/451/436 373/445/430
f 261/456/441 404/348/342 231/367/358
f 215/281/276 42/515/491 387/279/274
f 442/518/493 420/431/417 490/401/306
f 313/66/66 340/81/81 386/84/84
f 112/289/284 481/41/41 388/186/186
f 26/422/408 120/60/60 356/59/59
f 123/330/324 131/165/165 446/328/322
f 147/434/419 400/243/240 84/467/450
f 335/369/360 221/387/378 7/364/356
f 462/459/443 387/279/274 242/57/57
f 194/417/403 338/276/271 251/489/384
f 142/133/133 240/408/395 287/134/134
f 152/198/197 108/200/199 148/220/219
f 489/490/469 105/326/320 98/137/137
f 229/123/123 355/122/122 155/391/382
f 236/178/178 144/295/290 474/179/179
f 354/301/296 140/302/297 423/398/387
f 226/151/151 283/504/483 306/503/482
f 43/403/391 336/266/263 141/265/262
f 393/399/388 138/383/374 165/382/373
f 490/401/306 21/526/305 442/518/493
f 281/484/465 424/36/36 485/247/244
f 384/405/393 66/303/298 354/301/296
f 159/522/495 464/390/381 237/511/488
f 462/459/443 104/232/231 359/468/451
f 116/426/412 224/18/18 186/212/211
f 61/231/230 315/491/470 457/99/99
f 88/291/286 486/389/380 17/292/287
f 113/241/238 413/19/19 224/18/18
f 266/34/34 267/461/445 170/357/350
f 93/443/428 412/135/135 378/72/72
f 454/380/371 312/51/51 49/473/455
f 471/356/349 17/292/287 281/484/465
f 206/314/308 25/414/401 481/41/41
f 338/276/271 175/143/143 414/145/145
f 3/421/407 217/211/210 270/206/205
f 377/372/363 365/377/368 92/371/362
f 193/269/266 431/501/480 449/92/92
f 262/440/425 188/386/377 390/525/496
f 428/244/241 398/195/194 366/256/253
f 19/37/37 376/342/336 149/320/314
f 159/522/495 246/316/310 285/218/217
f 385/480/461 367/273/268 259/425/411
f 376/342/336 438/360/353 357/384/375
f 13/180/180 441/496/475 317/481/462
f 40/87/87 36/86/86 2/321/315
f 450/258/255 113/241/238 224/18/18
f 44/512/489 473/338/332 433/508/383
f 279/363/355 24/370/361 7/364/356
f 463/519/494 229/123/123 290/140/140
f 160/351/345 53/124/124 229/123/123
f 298/385/376 269/412/399 277/411/398
f 96/513/490 390/525/496 185/152/152
f 96/513/490 279/363/355 453/201/200
f 69/175/175 234/177/177 415/249/246
f 445/115/115 123/330/324 75/442/427
