# Blender 3.6.5
# www.blender.org
mtllib untitled.mtl
o tmp.o.001
v -0.214259 0.107811 -0.411155
v -0.291026 0.422828 -0.198889
v -0.186822 0.336696 -0.557864
v -0.171907 0.030770 -0.344538
v -0.213225 0.137387 -0.526421
v -0.107575 0.001207 -0.285468
v -0.086565 0.068479 -0.147777
v 0.121723 0.444180 -0.191943
v -0.243656 0.125342 -0.484278
v -0.156310 0.093185 -0.379020
v -0.139066 0.094123 -0.518967
v -0.236560 0.171939 -0.477436
v -0.229508 0.177933 -0.516123
v -0.203457 0.186374 -0.544720
v -0.187243 0.284362 -0.547138
v -0.063307 0.155330 -0.599425
v 0.142077 -0.086362 -0.243985
v -0.112205 -0.046629 -0.487895
v -0.058638 -0.071053 -0.539380
v -0.081930 -0.031722 -0.422564
v -0.178646 0.006480 -0.471289
v -0.145997 -0.021783 -0.461949
v -0.106639 -0.014293 -0.413303
v -0.063923 0.005976 -0.336685
v -0.057944 -0.003678 -0.321905
v -0.096168 0.002554 -0.311653
v -0.076162 0.012574 -0.322278
v -0.100588 0.002605 -0.375055
v -0.178720 0.011374 -0.445967
v -0.115258 0.018146 -0.398833
v -0.101145 0.010066 -0.396139
v -0.184879 0.039980 -0.445613
v -0.161442 0.064527 -0.432666
v -0.157503 0.079714 -0.405868
v -0.158910 0.062204 -0.390011
v -0.164257 0.080952 -0.425697
v -0.127302 0.030570 -0.359306
v -0.196657 0.101656 -0.370647
v -0.211590 0.066735 -0.362072
v -0.220066 0.106565 -0.355050
v -0.196021 0.112430 -0.415302
v -0.237040 0.087465 -0.453833
v -0.168492 0.035859 -0.289393
v -0.193975 0.044769 -0.361884
v -0.309077 0.251881 -0.380536
v -0.361247 0.176794 -0.316342
v -0.312266 0.133522 -0.342843
v -0.272266 0.129845 -0.373885
v -0.257330 0.153078 -0.455405
v -0.315019 0.146589 -0.383965
v -0.287150 0.129700 -0.387600
v -0.253432 0.112202 -0.454514
v -0.270859 0.124425 -0.426910
v -0.255932 0.120031 -0.395394
v -0.247418 0.092687 -0.336188
v -0.168682 0.023839 -0.218234
v -0.025112 -0.018500 -0.269286
v 0.042025 0.061376 -0.234218
v -0.043078 0.037613 -0.197164
v -0.166393 0.110404 -0.374269
v -0.113081 0.106849 -0.124067
v -0.111136 0.134099 -0.083473
v -0.241947 0.104930 -0.122071
v -0.254299 0.123590 -0.079354
v -0.034525 0.170131 -0.105415
v 0.378123 0.408285 -0.293009
v -0.415175 0.301525 -0.140938
v -0.304239 0.358963 -0.319219
v -0.335066 0.335250 -0.238938
v -0.182462 0.334338 -0.053186
v -0.029566 0.278904 -0.023401
v -0.020712 0.358611 0.002904
v -0.121993 0.325274 0.014709
v 0.206550 0.416131 -0.165598
v -0.396156 0.263048 -0.100544
v -0.148058 0.399082 -0.080633
v -0.334552 0.394352 -0.190532
v -0.047573 0.415033 0.008202
v 0.041050 -0.116283 -0.581865
v 0.029727 0.439634 -0.038236
v -0.005336 0.443834 -0.046113
v -0.022271 0.474281 -0.212820
v -0.056151 0.432046 -0.128276
v -0.112732 0.400575 -0.041757
v -0.089019 0.434796 -0.112038
v -0.042244 0.492117 -0.233740
v -0.064572 0.468895 -0.224257
v -0.188650 0.440182 -0.237672
v -0.230774 0.488869 -0.245433
v -0.308611 0.436352 -0.221397
v -0.320992 0.414341 -0.187732
v -0.264072 0.421707 -0.221512
v -0.200696 0.068451 -0.448165
v -0.030391 -0.087337 -0.574475
v 0.095919 -0.125557 -0.412612
v -0.059656 0.017610 -0.214528
v -0.330798 0.395106 -0.282562
v 0.337701 0.345140 -0.202716
v -0.326948 0.423985 -0.221027
v -0.315618 0.453146 -0.280371
v -0.254964 0.352453 -0.391134
v 0.182982 0.472192 -0.193376
v -0.281002 0.396450 -0.407640
v -0.329614 0.265585 -0.062633
v -0.122425 0.483222 -0.236704
v -0.246186 0.458326 -0.234351
v -0.239461 0.505049 -0.485534
v -0.094608 0.491041 -0.561842
v -0.247614 0.494038 -0.259318
v -0.255278 0.500428 -0.431129
v -0.205032 0.480098 -0.538757
v -0.348119 0.309934 -0.080382
v -0.230913 0.448312 -0.538916
v -0.031077 0.434503 -0.015266
v -0.412772 0.265015 -0.141082
v -0.050078 0.436731 -0.067659
v -0.067228 0.362643 0.005999
v 0.075788 0.445567 -0.141697
v -0.248579 0.374383 -0.460204
v 0.030853 0.257251 -0.066253
v -0.255691 0.399756 -0.488691
v -0.235132 0.221029 -0.493255
v 0.163567 0.458641 -0.204148
v 0.115002 0.449980 -0.115283
v -0.201194 0.276398 -0.492799
v -0.215965 0.067657 -0.332203
v -0.277099 0.366607 -0.386939
v -0.307453 0.377760 -0.349695
v 0.349690 0.409368 -0.226695
v -0.223374 0.084961 -0.127598
v -0.289817 0.420916 -0.381040
v 0.225483 0.302487 -0.185884
v -0.293937 0.311885 -0.348117
v -0.263758 0.321468 -0.387136
v -0.270285 0.092177 -0.210775
v -0.162361 0.303923 -0.572058
v -0.291408 0.124911 -0.358607
v 0.326269 0.095288 -0.351220
v 0.315158 0.091158 -0.288519
v -0.020320 -0.080197 -0.480967
v -0.205937 0.337933 -0.536061
v -0.136497 0.010640 -0.405470
v -0.087024 0.012678 -0.340472
v 0.110071 0.162910 -0.198089
v -0.002897 -0.069981 -0.607393
v 0.230905 0.456691 -0.494575
v -0.164988 0.025947 -0.400279
v -0.176307 0.183183 -0.556011
v 0.051131 -0.017225 -0.239398
v 0.294939 0.041179 -0.485263
v 0.369286 0.185048 -0.422880
v -0.242915 0.417349 -0.153310
v 0.112232 -0.098085 -0.278016
v 0.160035 -0.123666 -0.275518
v -0.001774 0.452615 -0.586978
v -0.002092 -0.082846 -0.510587
v 0.130069 -0.179018 -0.528749
v -0.194461 0.048533 -0.486564
v 0.010054 0.223689 -0.570478
v -0.109814 0.027840 -0.341559
v 0.099790 -0.176391 -0.522318
v -0.225237 0.343853 -0.415008
v 0.205837 0.485377 -0.196173
v -0.200604 0.234085 -0.537881
v 0.214322 -0.101695 -0.521998
v -0.207233 0.052200 -0.461158
v -0.306352 0.164848 -0.407804
v -0.227644 0.120881 -0.379122
v -0.074027 -0.004969 -0.356587
v -0.030650 -0.043356 -0.392831
v 0.003554 -0.015198 -0.611570
v -0.021853 0.160174 -0.600171
v -0.192054 0.068153 -0.368646
v -0.009534 0.417043 -0.001315
v -0.065180 -0.063369 -0.501171
v -0.120379 0.009575 -0.386581
v -0.385214 0.344500 -0.125748
v 0.074878 0.403400 -0.567853
v -0.218229 0.341544 -0.486213
v 0.076717 0.485647 -0.536241
v 0.277937 0.493755 -0.298240
v -0.082439 0.329272 0.010358
v 0.384709 0.397680 -0.333891
v 0.107121 -0.077522 -0.572516
v -0.179191 0.292649 -0.017020
v 0.365694 0.405400 -0.367782
v -0.173517 0.078813 -0.447124
v 0.194150 -0.085367 -0.249194
v -0.033046 0.390641 0.013284
v 0.221384 0.476175 -0.192926
v -0.066106 0.437139 -0.226764
v 0.183833 0.284383 -0.532235
v -0.278597 0.457444 -0.364504
v -0.090153 0.374811 0.008481
v 0.096938 0.483365 -0.229733
v -0.111781 0.422252 -0.217095
v -0.256266 0.409150 -0.204311
v -0.212794 0.345935 -0.448042
v -0.195333 0.425107 -0.223436
v -0.206216 0.320030 -0.482747
v -0.005986 0.496029 -0.549745
v -0.013070 -0.084990 -0.595606
v -0.318724 0.362052 -0.120726
v 0.379458 0.379026 -0.414072
v 0.355342 0.440277 -0.273656
v 0.369028 0.396121 -0.246120
v 0.250468 0.508721 -0.244348
v 0.141612 0.497708 -0.243214
v 0.050533 0.474107 -0.215418
v -0.279967 0.108674 -0.127850
v 0.175680 0.477715 -0.219724
v 0.115466 0.451439 -0.221868
v 0.141908 0.454502 -0.160613
v 0.204163 0.451805 -0.162094
v 0.230296 0.443642 -0.185947
v 0.283353 0.355640 -0.177045
v 0.165133 0.358273 -0.131724
v 0.100747 0.322589 -0.079758
v 0.308957 0.257419 -0.206127
v 0.029065 -0.091395 -0.601759
v 0.370520 0.320065 -0.303387
v -0.105230 0.448973 -0.229368
v 0.329225 0.103670 -0.317227
v 0.272310 0.034511 -0.294342
v 0.364628 0.184940 -0.388231
v -0.015016 0.059334 -0.201393
v 0.260182 0.048324 -0.246751
v 0.268550 0.131116 -0.209775
v 0.220192 -0.050245 -0.254998
v 0.229172 -0.069400 -0.267428
v 0.088092 -0.065109 -0.245226
v 0.048816 0.016353 -0.234051
v 0.029179 -0.027486 -0.252199
v -0.209947 0.499223 -0.517221
v 0.205929 -0.131605 -0.377575
v 0.218445 -0.106427 -0.300026
v 0.044559 -0.129214 -0.496825
v 0.127924 -0.167647 -0.438690
v 0.042897 -0.120634 -0.559258
v 0.134871 -0.060717 -0.579813
v 0.086297 -0.123216 -0.581196
v 0.179820 -0.124834 -0.551349
v 0.161228 -0.097247 -0.562813
v -0.096700 -0.036915 -0.547543
v -0.156103 -0.000161 -0.500999
v -0.120060 -0.040706 -0.506570
v -0.180470 0.091229 -0.430325
v -0.058680 0.078740 -0.584326
v -0.243261 0.190987 -0.484494
v -0.103474 0.202605 -0.572732
v -0.138233 0.250102 -0.573192
v 0.168135 -0.150271 -0.394378
v -0.091400 0.081709 -0.550813
v -0.087865 0.135510 -0.559834
v -0.085481 0.245557 -0.575819
v -0.020714 0.087688 -0.608809
v -0.031472 0.028867 -0.601864
v 0.000171 -0.081535 -0.452786
v -0.122222 -0.027399 -0.437353
v -0.106208 0.010624 -0.411983
v -0.099191 -0.004287 -0.392404
v -0.074826 -0.009668 -0.309657
v -0.066155 -0.023091 -0.362537
v -0.092270 -0.017554 -0.390418
v -0.057993 -0.020036 -0.322185
v -0.038434 -0.034263 -0.316007
v -0.133168 0.010934 -0.319255
v -0.100773 0.016641 -0.328273
v -0.140898 0.023627 -0.342130
v -0.140290 -0.003415 -0.422336
v -0.169217 0.032484 -0.425704
v -0.155611 0.012811 -0.408393
v 0.242084 -0.009962 -0.263101
v -0.135269 0.014974 -0.374971
v -0.190305 0.104378 -0.392836
v -0.178531 0.083167 -0.409535
v -0.163617 0.109043 -0.387977
v -0.163480 0.040153 -0.385372
v -0.158563 0.028971 -0.372384
v -0.178127 0.094024 -0.368309
v -0.196900 0.101857 -0.432627
v -0.202827 0.105829 -0.383672
v -0.216214 0.102398 -0.396087
v -0.231114 0.112196 -0.406131
v -0.288577 0.202671 -0.418335
v -0.358076 0.197828 -0.337612
v 0.076384 0.428556 -0.065468
v -0.252830 0.139933 -0.444234
v -0.258115 0.116575 -0.369803
v -0.229390 0.090259 -0.437033
v -0.268421 0.092322 -0.323260
v -0.226662 0.056699 -0.298499
v -0.248586 0.082947 -0.268304
v -0.216902 0.047301 -0.219851
v -0.166548 0.060681 -0.153174
v 0.001629 -0.001325 -0.230053
v -0.002152 0.027905 -0.210601
v -0.108742 0.030729 -0.182683
v -0.024690 0.124923 -0.133586
v -0.160812 0.108355 -0.076801
v -0.197033 0.101707 -0.084564
v -0.311542 0.130713 -0.146672
v -0.185575 0.146571 -0.026963
v -0.228899 0.152722 -0.027640
v -0.208151 0.183716 -0.001729
v -0.293116 0.185046 -0.033689
v -0.331809 0.171420 -0.081365
v -0.193993 0.234808 0.010765
v -0.154369 0.270736 0.011296
v -0.352842 0.219527 -0.059172
v -0.327805 0.149469 -0.202126
v -0.407439 0.252483 -0.219853
v -0.412134 0.293799 -0.117277
v -0.406899 0.317982 -0.123206
v -0.383498 0.347840 -0.150298
v -0.338850 0.369579 -0.199305
v -0.326280 0.375343 -0.231701
v -0.344900 0.373444 -0.151199
v -0.276852 0.418374 -0.159272
v -0.359108 0.343674 -0.110470
v -0.052763 0.332601 -0.011284
v -0.157572 0.366768 -0.071716
v -0.062496 0.245180 -0.032441
v 0.320580 0.341316 -0.184335
v -0.133857 0.343806 -0.004367
v -0.206161 0.413371 -0.127241
v -0.309135 0.399191 -0.148208
v -0.180575 0.425989 -0.181094
v -0.161180 0.430413 -0.126294
v -0.252013 0.384998 -0.111097
v -0.073225 0.405619 0.005295
v -0.057631 0.439637 -0.150146
v -0.047674 0.497965 -0.319459
v -0.168527 0.476635 -0.232010
v -0.185848 0.498216 -0.255012
v -0.250081 0.508534 -0.297972
v -0.123357 0.475515 -0.573552
v -0.047522 0.285558 -0.576778
v -0.306138 0.338476 -0.290648
v -0.061413 0.480512 -0.579399
v 0.083499 0.091129 -0.224176
v 0.115940 0.475606 -0.531934
v 0.249618 0.478242 -0.205848
v 0.313494 0.131184 -0.282158
v -0.324072 0.426799 -0.302408
v -0.284216 0.340675 -0.353568
v 0.132806 0.495284 -0.500298
v -0.251989 0.441993 -0.509355
v -0.283653 0.481972 -0.288196
v 0.007276 0.473943 -0.576604
v -0.210810 0.389877 -0.556071
v -0.333612 0.401801 -0.220682
v 0.206500 -0.071887 -0.554912
v -0.241061 0.358320 -0.437021
v 0.173794 0.481592 -0.511733
v -0.390007 0.313138 -0.103027
v -0.250715 0.512701 -0.368077
v -0.234563 0.364690 -0.507247
v 0.335244 0.343183 -0.462083
v 0.380446 0.305140 -0.422895
v -0.241433 0.478626 -0.513796
v -0.263189 0.473751 -0.472918
v 0.083640 0.234911 -0.558203
v -0.192223 0.513635 -0.490799
v -0.232570 0.511834 -0.419866
v 0.319540 0.472532 -0.285451
v 0.304823 0.469319 -0.246179
v -0.273605 0.437023 -0.450980
v -0.226897 0.515708 -0.455160
v 0.389310 0.300400 -0.350752
v 0.328846 0.235856 -0.475788
v -0.152250 0.492555 -0.537302
v 0.087041 0.459358 -0.227183
v -0.006124 0.439813 -0.213909
v -0.143499 0.087883 -0.117885
v -0.231893 0.356936 -0.425496
v -0.296353 0.304031 -0.064547
v -0.231303 0.389988 -0.535894
v 0.015735 0.335662 -0.016316
v -0.403423 0.294667 -0.180820
v 0.153253 0.439670 -0.537401
v 0.140451 0.439801 -0.107842
v -0.394484 0.282474 -0.230740
v 0.030222 0.431042 -0.196569
v 0.181196 0.498730 -0.224724
v 0.235250 0.497752 -0.211920
v -0.292995 0.122357 -0.233655
v 0.030609 0.438967 -0.083193
v 0.049061 0.416689 -0.029397
v -0.281475 0.256992 -0.028534
v -0.094993 0.003489 -0.243442
v -0.316028 0.401858 -0.338984
v 0.031829 0.382740 -0.015210
v 0.171387 0.284537 -0.176800
v -0.147731 0.228132 0.006268
v 0.134466 0.497022 -0.398263
v 0.274167 0.409071 -0.186638
v 0.289274 0.044478 -0.336004
v -0.169223 0.388637 -0.572294
v -0.235115 0.098778 -0.487572
v 0.031373 -0.064927 -0.396476
v 0.176412 0.227674 -0.199220
v 0.179157 -0.111930 -0.260685
v 0.088991 0.179240 -0.139669
v 0.191982 -0.130108 -0.295320
v 0.182947 -0.048105 -0.242670
v 0.102956 -0.105100 -0.363276
v 0.252089 -0.028001 -0.436222
v 0.095511 -0.166549 -0.464263
v 0.013907 0.046831 -0.227266
v 0.333775 0.109034 -0.428942
v 0.092502 -0.156229 -0.557154
v 0.180933 -0.160435 -0.432912
v -0.123143 0.440973 -0.582811
v -0.371596 0.209084 -0.088952
v 0.020567 0.497652 -0.481442
v 0.021053 0.020348 -0.604208
v 0.123728 -0.185499 -0.481777
v 0.146760 -0.170609 -0.534352
v 0.246598 -0.042756 -0.519245
v 0.323543 0.111525 -0.474867
v -0.137786 0.168297 -0.553918
v -0.049915 0.225719 -0.582561
v 0.218120 -0.024238 -0.240053
v 0.199524 0.025777 -0.222039
v 0.263163 0.053387 -0.517207
v 0.199814 0.363000 -0.175441
v -0.056526 -0.010668 -0.339258
v 0.018313 -0.044839 -0.327015
v 0.268009 0.005838 -0.330650
v -0.316636 0.204070 -0.380010
v 0.326191 0.118260 -0.380563
v -0.269036 0.108276 -0.358472
v 0.301964 0.162894 -0.222941
v -0.330526 0.433729 -0.254708
v -0.023930 0.443598 -0.109641
v -0.355974 0.366311 -0.173127
v -0.272916 0.494789 -0.325147
v 0.371044 0.343026 -0.438677
v 0.394040 0.312761 -0.386048
v 0.391186 0.367690 -0.341283
v -0.196985 0.511645 -0.296058
v -0.120020 0.497017 -0.258887
v -0.062670 0.393449 0.013878
v 0.238796 0.403031 -0.182734
v 0.172583 0.450142 -0.151189
v 0.209899 0.485396 -0.461964
v -0.310841 0.457786 -0.245298
v -0.335419 0.283355 -0.309713
v -0.406006 0.233756 -0.136630
v -0.064260 0.427066 -0.014887
v -0.192736 0.447976 -0.559914
v -0.097003 0.373291 -0.587422
v -0.065242 -0.015708 -0.291606
v -0.062463 0.453467 -0.589540
v 0.123323 -0.156332 -0.559890
v 0.382271 0.352428 -0.396067
v 0.370743 0.232708 -0.440168
v 0.149595 0.133406 -0.213332
v 0.357098 0.404722 -0.437172
v 0.277164 0.458397 -0.452827
v -0.114356 0.498859 -0.511338
v 0.342923 0.437344 -0.371921
v 0.360760 0.417891 -0.407252
v 0.368352 0.428445 -0.323240
v 0.302147 0.431740 -0.224834
v 0.169866 0.426466 -0.133811
v 0.238870 0.502771 -0.301972
v 0.205317 0.512694 -0.249318
v 0.181942 0.499640 -0.292995
v 0.148670 0.483452 -0.223038
v 0.081945 0.490266 -0.271395
v 0.060115 0.446578 -0.214684
v 0.207779 0.509630 -0.227301
v 0.109808 0.406452 -0.073090
v 0.293585 0.307844 -0.180496
v 0.313809 0.374587 -0.190696
v 0.338371 0.288030 -0.265508
v 0.264731 0.251651 -0.190066
v -0.179711 0.096442 -0.399854
v 0.343498 0.188874 -0.340131
v 0.327816 0.134719 -0.329296
v 0.316027 0.064077 -0.334500
v 0.309643 0.062091 -0.311014
v 0.302080 0.069381 -0.373831
v 0.250506 0.011607 -0.277263
v 0.015353 0.076176 -0.216196
v 0.144453 0.212511 -0.185499
v 0.123003 0.197223 -0.159776
v 0.099446 0.227986 -0.118712
v 0.284856 0.201599 -0.198893
v 0.202349 -0.106415 -0.265520
v 0.255845 -0.016126 -0.289294
v 0.150435 -0.176787 -0.449636
v 0.157967 -0.176224 -0.484498
v 0.086483 -0.168995 -0.495455
v 0.010137 -0.102781 -0.537516
v 0.123231 -0.007802 -0.585244
v 0.018839 -0.057522 -0.612492
v 0.086149 0.113009 -0.574646
v 0.176805 -0.069355 -0.570460
v 0.177786 -0.150222 -0.527643
vn -0.5964 -0.7997 0.0689
vn -0.6491 -0.7591 0.0495
vn -0.3873 -0.8953 -0.2202
vn -0.5797 -0.5806 0.5717
vn -0.6465 -0.7171 0.2604
vn -0.4069 -0.8764 0.2576
vn 0.6753 -0.4660 0.5717
vn 0.7123 -0.5008 0.4918
vn 0.4304 -0.5350 0.7270
vn 0.4285 -0.2920 0.8550
vn 0.1986 -0.3930 0.8978
vn 0.4035 -0.4616 0.7900
vn -0.3356 -0.9091 0.2467
vn -0.5996 -0.7285 0.3314
vn -0.3636 -0.8760 0.3168
vn -0.4916 -0.8692 0.0523
vn -0.3074 -0.8177 0.4867
vn -0.1563 -0.9536 0.2573
vn 0.2701 -0.3284 0.9051
vn -0.2054 0.1352 0.9693
vn -0.1869 0.0682 0.9800
vn -0.1693 0.9855 -0.0113
vn -0.5550 0.7634 -0.3305
vn -0.7091 0.6966 -0.1094
vn 0.2788 0.0477 -0.9592
vn 0.2145 0.5600 -0.8003
vn 0.3544 0.2228 -0.9082
vn -0.1676 -0.9042 0.3929
vn -0.0806 -0.9930 -0.0865
vn -0.4232 -0.8637 0.2739
vn -0.8808 -0.0448 -0.4713
vn -0.2048 -0.0111 -0.9787
vn -0.3547 -0.7684 -0.5327
vn -0.7136 0.6875 -0.1343
vn -0.9173 0.3220 -0.2342
vn -0.9680 0.2283 -0.1040
vn -0.1916 0.9318 0.3084
vn -0.4747 0.6254 0.6193
vn -0.1657 0.9693 0.1815
vn 0.6069 -0.0537 0.7930
vn 0.5001 0.3742 0.7809
vn 0.6623 0.1596 0.7321
vn -0.0183 0.2959 0.9550
vn -0.0581 0.9025 0.4268
vn -0.0599 0.9077 0.4154
vn -0.6526 -0.6532 -0.3839
vn -0.6693 -0.6380 -0.3809
vn -0.7402 -0.3301 -0.5858
vn -0.9886 -0.1242 0.0855
vn -0.8796 0.0578 0.4722
vn 0.5546 0.6424 0.5289
vn 0.4299 0.4702 0.7708
vn 0.6049 0.4161 0.6789
vn -0.4111 0.5123 0.7540
vn -0.3244 0.7308 0.6006
vn -0.1544 0.4491 0.8801
vn -0.3681 0.6385 0.6758
vn -0.2875 0.7257 0.6251
vn -0.2303 0.6756 0.7003
vn -0.2204 -0.8425 -0.4916
vn -0.4849 -0.7460 -0.4565
vn -0.3606 -0.9327 -0.0019
vn -0.8509 0.0461 -0.5233
vn -0.8432 -0.5013 -0.1944
vn -0.9726 -0.0541 -0.2261
vn 0.2720 0.6192 -0.7366
vn 0.3314 0.7051 -0.6269
vn -0.2549 -0.7245 -0.6405
vn -0.4115 -0.6436 -0.6453
vn -0.0062 0.6314 -0.7754
vn 0.0914 0.9396 -0.3298
vn -0.6429 -0.6939 0.3243
vn -0.8921 -0.4261 0.1504
vn -0.5700 -0.5380 0.6210
vn -0.7994 -0.1514 -0.5814
vn -0.7403 0.2997 -0.6018
vn -0.6693 -0.4455 -0.5946
vn -0.4525 0.3001 0.8398
vn -0.7509 -0.0626 0.6575
vn -0.6119 -0.1373 0.7789
vn 0.5164 0.3680 0.7732
vn 0.3476 0.7797 0.5208
vn 0.2804 0.8742 0.3963
vn -0.2184 0.5495 -0.8065
vn -0.0822 0.8931 -0.4423
vn -0.0871 0.8952 -0.4370
vn -0.3061 -0.8076 0.5041
vn -0.4847 -0.7251 0.4892
vn -0.5058 -0.7802 0.3681
vn -0.9062 -0.2702 -0.3252
vn -0.9693 0.0422 -0.2421
vn -0.8845 0.0327 -0.4655
vn 0.9467 -0.2828 -0.1543
vn 0.8381 -0.0483 -0.5434
vn 0.9902 0.0013 -0.1395
vn 0.0993 0.4980 0.8615
vn 0.1135 0.3118 0.9433
vn 0.1150 0.4321 0.8945
vn 0.5488 -0.2932 0.7829
vn -0.0829 0.9958 -0.0397
vn -0.9388 -0.3156 0.1381
vn -0.9290 -0.1880 -0.3187
vn -0.9074 0.1435 -0.3950
vn -0.5735 -0.7459 0.3386
vn -0.0696 -0.0444 -0.9966
vn -0.1833 -0.1119 -0.9767
vn -0.4100 -0.0629 -0.9099
vn 0.3331 0.3218 0.8863
vn 0.4683 0.2369 0.8512
vn 0.2084 0.0825 0.9746
vn -0.4831 -0.8048 0.3448
vn -0.8915 -0.3490 0.2889
vn 0.3636 -0.5992 0.7133
vn 0.4179 -0.6286 0.6559
vn 0.2369 -0.7411 0.6282
vn 0.5129 -0.4286 0.7438
vn 0.3535 -0.2166 0.9100
vn 0.4759 -0.0139 0.8794
vn 0.4829 -0.8727 -0.0715
vn 0.1036 -0.9296 -0.3538
vn 0.4199 -0.7763 -0.4702
vn -0.1488 0.9885 -0.0264
vn -0.3776 0.9252 -0.0365
vn -0.8082 0.3776 -0.4518
vn -0.8176 0.2708 -0.5082
vn -0.7447 0.4576 -0.4857
vn 0.4642 -0.1684 0.8696
vn -0.3836 -0.0410 -0.9226
vn -0.0548 0.0579 -0.9968
vn -0.3185 -0.2662 -0.9098
vn 0.7606 -0.4056 0.5069
vn 0.8311 -0.2620 0.4906
vn 0.8721 -0.2692 0.4086
vn 0.7948 -0.6028 -0.0702
vn 0.7677 -0.6408 0.0047
vn 0.8536 -0.5020 -0.1393
vn 0.1681 -0.5943 -0.7865
vn -0.3266 -0.8502 -0.4129
vn -0.8233 -0.3415 -0.4533
vn -0.2635 -0.9462 -0.1881
vn -0.1528 -0.8664 -0.4753
vn -0.0297 -0.9336 -0.3570
vn -0.3870 0.2976 0.8728
vn -0.4431 0.4750 0.7603
vn -0.2893 0.5196 0.8039
vn 0.3816 -0.4599 0.8018
vn 0.2051 -0.3176 0.9258
vn 0.3515 -0.1269 0.9275
vn -0.1010 0.9949 -0.0011
vn -0.1107 0.9907 -0.0788
vn -0.1785 0.9460 0.2705
vn -0.5137 -0.8245 0.2371
vn -0.0187 -0.9374 0.3476
vn -0.2194 -0.8718 0.4381
vn 0.0332 0.9869 -0.1579
vn -0.4296 -0.9030 -0.0080
vn -0.2826 -0.9377 -0.2021
vn 0.2420 -0.5972 0.7647
vn 0.2557 -0.6016 0.7567
vn 0.3293 -0.5713 0.7518
vn 0.0429 -0.2761 0.9602
vn 0.4858 -0.5513 0.6783
vn 0.1076 -0.2444 0.9637
vn -0.4281 -0.9019 -0.0578
vn 0.8098 -0.5631 0.1650
vn 0.7233 -0.6899 0.0276
vn 0.8822 -0.4707 0.0124
vn -0.5701 0.7272 0.3823
vn -0.5404 0.7664 0.3473
vn 0.2092 -0.2499 0.9454
vn 0.0455 -0.1494 0.9877
vn 0.9212 0.3702 -0.1194
vn 0.9634 0.1755 -0.2026
vn 0.8549 0.4895 -0.1719
vn 0.1997 0.7757 0.5987
vn -0.0454 -0.9954 -0.0842
vn -0.5382 -0.5298 0.6555
vn -0.8095 -0.5154 -0.2812
vn -0.2665 -0.6533 -0.7086
vn -0.0877 -0.9955 0.0361
vn -0.3175 -0.8437 0.4329
vn -0.4246 -0.7287 0.5374
vn -0.4813 -0.8158 0.3207
vn -0.6285 -0.1425 -0.7647
vn -0.3114 -0.0122 -0.9502
vn 0.2164 -0.2924 -0.9315
vn 0.1313 -0.3257 -0.9363
vn 0.0514 -0.4341 -0.8994
vn 0.1409 -0.9527 0.2691
vn -0.9586 -0.0800 0.2733
vn -0.5447 -0.7309 0.4113
vn -0.3895 -0.0596 -0.9191
vn -0.5541 -0.1102 -0.8251
vn -0.7904 0.5411 0.2871
vn -0.5690 0.7420 0.3545
vn -0.9299 0.3672 0.0217
vn -0.3631 -0.1038 -0.9260
vn -0.2081 -0.3265 -0.9220
vn -0.4524 -0.3942 0.7999
vn -0.1081 -0.3747 0.9208
vn 0.1871 -0.0703 0.9798
vn -0.2604 0.6937 0.6715
vn -0.7922 -0.2110 -0.5726
vn -0.8278 -0.4949 -0.2643
vn -0.3778 -0.7151 0.5882
vn 0.5398 0.5151 0.6658
vn 0.2997 0.7248 0.6203
vn 0.3530 0.5062 0.7869
vn -0.1442 -0.3722 0.9169
vn -0.1248 -0.7391 0.6620
vn -0.2039 -0.7883 0.5806
vn -0.2484 0.1618 0.9550
vn -0.5407 -0.8335 -0.1135
vn -0.5222 -0.8432 0.1275
vn -0.6586 -0.0011 -0.7525
vn -0.6117 -0.2308 -0.7567
vn -0.6293 -0.0689 -0.7741
vn -0.8945 0.0284 0.4461
vn -0.8945 0.0571 0.4435
vn -0.7248 0.6633 -0.1865
vn 0.0460 0.9893 0.1383
vn 0.0642 0.9602 0.2717
vn -0.0801 0.9959 0.0426
vn -0.0635 0.8771 0.4761
vn -0.0275 0.9955 0.0904
vn 0.0480 0.9981 0.0379
vn 0.7425 -0.6055 0.2864
vn -0.4418 -0.5968 -0.6698
vn 0.5258 -0.4081 -0.7463
vn 0.2422 -0.2393 -0.9402
vn 0.0025 -0.9409 0.3387
vn -0.1060 0.7545 0.6476
vn -0.7290 -0.6846 0.0017
vn -0.7989 -0.5651 0.2062
vn -0.7201 -0.6687 0.1853
vn -0.6577 -0.7062 0.2620
vn -0.0741 -0.3240 0.9431
vn -0.3297 -0.7661 0.5516
vn -0.3400 -0.5544 0.7597
vn -0.3487 -0.9239 0.1575
vn -0.6040 -0.7607 -0.2376
vn -0.4902 -0.8716 -0.0062
vn 0.6164 -0.7788 0.1164
vn -0.5348 -0.7941 -0.2888
vn -0.6567 -0.4041 -0.6367
vn -0.3226 0.9254 0.1990
vn -0.6616 0.7496 0.0196
vn -0.2809 0.8218 0.4956
vn 0.0322 0.9458 0.3231
vn -0.0313 0.5827 0.8121
vn -0.4664 -0.3498 0.8124
vn 0.1233 -0.6801 0.7227
vn 0.3438 -0.8942 0.2867
vn 0.5288 -0.6093 0.5909
vn -0.7608 -0.5285 0.3767
vn -0.7703 0.2312 -0.5943
vn -0.6328 -0.0343 0.7736
vn -0.5393 0.7690 0.3432
vn -0.3960 0.7207 0.5690
vn -0.1443 0.9130 0.3816
vn -0.3628 -0.7848 0.5024
vn -0.6028 -0.6649 0.4411
vn -0.2247 -0.9584 -0.1762
vn -0.6362 -0.7437 0.2053
vn -0.4864 -0.6910 0.5348
vn -0.6037 -0.7972 0.0022
vn -0.5573 -0.8225 -0.1136
vn -0.5141 -0.8543 0.0765
vn 0.1762 0.6519 0.7375
vn 0.0943 0.9808 0.1706
vn -0.7015 0.4290 -0.5691
vn -0.9102 0.3117 -0.2726
vn 0.4444 0.3081 0.8412
vn 0.1048 0.9591 0.2631
vn -0.7932 0.6076 -0.0396
vn 0.8013 -0.5047 0.3212
vn 0.8063 -0.2629 0.5299
vn -0.8921 -0.4160 0.1763
vn -0.7576 -0.4972 0.4229
vn 0.1226 0.0683 0.9901
vn 0.2588 -0.1881 0.9474
vn 0.5619 -0.0936 0.8219
vn 0.9018 -0.3523 0.2502
vn -0.4586 0.8552 0.2415
vn -0.1696 0.6676 0.7250
vn -0.8174 0.4841 0.3122
vn -0.1344 -0.4782 0.8679
vn -0.9022 0.4309 0.0171
vn 0.8828 -0.2909 0.3689
vn 0.8890 -0.2452 0.3867
vn 0.7933 -0.1152 0.5978
vn -0.3717 0.2786 0.8856
vn 0.1383 -0.2113 0.9676
vn -0.7296 -0.6836 -0.0208
vn -0.6673 -0.7448 -0.0073
vn -0.7018 -0.7123 -0.0096
vn 0.9777 -0.1127 0.1774
vn 0.9453 -0.2755 -0.1747
vn 0.9843 -0.1113 0.1372
vn -0.5277 -0.8477 0.0544
vn -0.4647 -0.8786 0.1095
vn -0.0159 0.3759 0.9265
vn -0.2000 0.6646 0.7199
vn 0.4716 0.5080 -0.7208
vn 0.9954 0.0844 0.0456
vn 0.9316 0.3241 0.1648
vn -0.0257 0.1742 -0.9844
vn -0.7052 -0.5471 -0.4510
vn -0.8787 -0.0629 -0.4732
vn 0.0257 -0.1872 0.9820
vn -0.1321 0.3609 0.9232
vn -0.1437 0.3926 0.9084
vn -0.0766 0.9808 0.1793
vn 0.9121 -0.2742 0.3048
vn 0.9095 -0.4093 0.0729
vn 0.5035 0.5722 0.6473
vn -0.3574 0.5678 -0.7415
vn -0.2759 0.7867 -0.5523
vn 0.0314 0.9986 -0.0435
vn 0.1139 0.9529 -0.2809
vn 0.1638 0.8746 -0.4563
vn 0.0329 0.9936 -0.1078
vn -0.9102 0.3639 -0.1979
vn 0.9442 -0.1912 0.2682
vn -0.2391 -0.9676 -0.0812
vn -0.3219 -0.9423 0.0917
vn -0.0311 0.9970 0.0707
vn -0.2320 0.9665 0.1099
vn -0.6907 -0.3500 -0.6329
vn 0.6766 -0.6508 -0.3446
vn -0.1404 0.0972 0.9853
vn -0.0567 0.5666 0.8221
vn -0.4820 0.5283 0.6990
vn -0.5879 -0.0558 -0.8070
vn -0.8613 -0.0018 -0.5081
vn 0.7764 -0.3634 0.5148
vn 0.4796 0.7823 -0.3976
vn 0.5701 0.8208 0.0361
vn 0.6342 0.7537 -0.1723
vn 0.3113 -0.3064 0.8996
vn -0.5287 0.3511 0.7728
vn -0.1059 -0.9882 0.1106
vn -0.7968 0.2638 -0.5435
vn -0.7848 0.0944 -0.6125
vn -0.3900 -0.9201 -0.0357
vn -0.0972 -0.7060 0.7015
vn -0.1098 0.0102 -0.9939
vn -0.1619 -0.9403 0.2995
vn -0.0995 0.0234 -0.9948
vn -0.4263 -0.0076 -0.9046
vn 0.2291 -0.2569 0.9389
vn 0.0629 -0.1956 0.9787
vn 0.1242 0.0771 -0.9893
vn 0.1275 0.9802 -0.1517
vn 0.3773 0.9154 -0.1405
vn -0.4632 0.8475 0.2593
vn -0.4614 -0.8169 -0.3462
vn -0.6442 -0.7527 -0.1357
vn -0.5470 -0.8074 -0.2211
vn -0.9643 -0.0485 -0.2603
vn -0.9690 -0.1993 -0.1463
vn -0.8761 -0.4056 -0.2606
vn -0.3237 -0.8053 -0.4967
vn 0.0742 -0.1167 -0.9904
vn -0.1755 0.2094 0.9619
vn -0.0707 0.2298 0.9707
vn 0.7492 0.6406 -0.1684
vn 0.9505 0.2283 -0.2108
vn -0.8785 -0.1614 -0.4496
vn 0.1921 -0.2761 0.9417
vn 0.4958 -0.0405 0.8675
vn 0.1882 0.0028 0.9821
vn -0.8971 -0.3018 -0.3227
vn -0.8211 -0.3451 -0.4545
vn -0.8124 -0.0696 -0.5789
vn -0.3242 0.4087 0.8532
vn -0.2904 0.6669 0.6862
vn -0.2087 -0.8497 -0.4841
vn -0.3055 -0.9151 -0.2632
vn -0.1361 0.9532 0.2702
vn -0.3588 -0.9228 0.1401
vn -0.2084 0.1282 -0.9696
vn -0.3826 0.2342 -0.8937
vn -0.8367 -0.4075 -0.3659
vn -0.9304 0.0404 -0.3643
vn -0.4090 -0.8926 -0.1896
vn -0.3954 0.8538 0.3387
vn -0.6026 0.6719 0.4307
vn 0.1404 0.2087 -0.9678
vn -0.1058 0.3659 0.9246
vn 0.3373 0.9214 0.1930
vn -0.7565 0.6187 -0.2117
vn -0.9049 0.3252 -0.2747
vn -0.8354 -0.5405 -0.0995
vn 0.7064 -0.2147 0.6744
vn -0.3150 -0.7704 -0.5543
vn -0.0527 0.6832 0.7284
vn -0.9955 0.0876 -0.0358
vn 0.0982 -0.1572 0.9827
vn 0.3593 -0.1671 0.9182
vn 0.1674 -0.2491 -0.9539
vn 0.6105 0.1367 0.7801
vn -0.2095 0.7511 0.6261
vn 0.1569 -0.6430 0.7496
vn -0.2551 -0.6547 0.7115
vn 0.6108 -0.2520 0.7506
vn -0.6530 0.1838 -0.7347
vn 0.2975 0.4645 0.8341
vn -0.0448 0.8976 0.4384
vn -0.7348 -0.5667 -0.3727
vn -0.7721 -0.0893 -0.6292
vn -0.7718 -0.4331 -0.4655
vn 0.7314 0.6364 0.2450
vn 0.0092 0.9871 0.1598
vn -0.0146 0.8686 0.4952
vn 0.8951 0.1350 0.4249
vn 0.5082 0.0838 -0.8572
vn 0.1898 0.1178 -0.9747
vn 0.2828 0.1444 -0.9482
vn -0.1300 0.9898 0.0587
vn -0.5051 -0.3131 -0.8043
vn -0.8496 0.0002 -0.5274
vn 0.9154 -0.3918 0.0923
vn 0.8986 -0.2863 0.3325
vn 0.5186 -0.2646 0.8130
vn -0.9180 0.1800 -0.3534
vn -0.1105 0.9233 0.3678
vn -0.8573 0.3451 -0.3820
vn -0.8832 0.2385 -0.4038
vn -0.9101 0.2501 -0.3304
vn 0.8909 -0.4538 0.0165
vn -0.1908 -0.9719 0.1377
vn -0.2785 -0.7667 -0.5784
vn 0.7854 -0.2615 0.5610
vn -0.8303 -0.3288 -0.4500
vn -0.1983 -0.8999 0.3884
vn 0.3000 0.0874 -0.9499
vn 0.4473 -0.3521 0.8221
vn 0.3317 -0.2621 0.9063
vn 0.6678 0.4296 -0.6078
vn 0.0246 -0.8105 0.5852
vn -0.8456 0.2156 -0.4883
vn 0.2969 0.9250 -0.2373
vn -0.8761 -0.0885 -0.4740
vn 0.7704 0.6275 -0.1130
vn 0.2363 -0.7709 0.5915
vn -0.7773 -0.6096 -0.1555
vn -0.5881 -0.7885 0.1800
vn 0.3407 -0.1780 -0.9232
vn -0.1589 -0.9387 0.3060
vn -0.8337 -0.5433 -0.0986
vn -0.8108 -0.5850 -0.0216
vn -0.4698 -0.8179 0.3323
vn -0.9080 -0.0905 -0.4090
vn -0.4921 -0.8624 -0.1186
vn 0.5768 -0.3657 0.7304
vn 0.4995 -0.5855 0.6385
vn -0.7952 -0.5628 -0.2256
vn -0.9054 -0.2244 -0.3605
vn 0.7244 -0.1823 0.6649
vn -0.7391 0.4797 -0.4729
vn -0.4702 -0.8045 0.3628
vn -0.4489 -0.8300 0.3311
vn 0.3210 -0.5032 0.8024
vn -0.0887 0.9893 -0.1161
vn -0.0392 0.3432 0.9385
vn -0.2205 0.9745 0.0422
vn 0.9019 -0.1782 0.3935
vn -0.8057 0.4231 -0.4145
vn 0.0499 -0.0362 -0.9981
vn 0.0443 0.1984 -0.9791
vn -0.0656 0.9972 -0.0372
vn -0.3688 -0.9066 0.2050
vn 0.0145 -0.8318 0.5549
vn -0.3283 -0.9229 0.2012
vn -0.1379 0.9874 0.0775
vn -0.3948 -0.8123 0.4293
vn -0.4015 -0.9108 0.0959
vn 0.5964 -0.2194 -0.7721
vn 0.7618 0.0073 -0.6478
vn 0.8556 -0.3568 -0.3750
vn 0.5342 -0.0087 -0.8453
vn 0.8026 -0.2069 -0.5594
vn -0.0996 -0.8368 0.5384
vn -0.1042 -0.8359 0.5388
vn 0.8309 -0.4853 -0.2720
vn 0.0243 0.9995 -0.0220
vn 0.5355 0.0459 -0.8433
vn 0.8544 0.0293 -0.5188
vn -0.5166 0.5589 0.6486
vn -0.2378 -0.2384 -0.9416
vn -0.9592 -0.2785 -0.0491
vn -0.6010 0.5214 0.6057
vn -0.7493 -0.4279 -0.5055
vn -0.6403 -0.4209 -0.6425
vn -0.3265 -0.9262 0.1887
vn 0.8575 -0.3435 -0.3831
vn 0.1918 0.0511 -0.9801
vn 0.1676 0.1848 -0.9684
vn 0.3371 0.0462 -0.9403
vn -0.3852 -0.2550 -0.8869
vn -0.6818 -0.7240 0.1048
vt 0.097688 0.381991
vt 0.083711 0.408104
vt 0.088505 0.367442
vt 0.113727 0.522423
vt 0.125413 0.525190
vt 0.117140 0.535908
vt 0.700247 0.767497
vt 0.683278 0.756009
vt 0.703745 0.733626
vt 0.423062 0.595030
vt 0.464762 0.583939
vt 0.463591 0.620530
vt 0.109665 0.485931
vt 0.113961 0.513866
vt 0.081098 0.503453
vt 0.561488 0.671817
vt 0.564776 0.687713
vt 0.553871 0.689565
vt 0.519275 0.533102
vt 0.497658 0.519418
vt 0.526521 0.506594
vt 0.472490 0.021389
vt 0.459893 0.008898
vt 0.491070 0.011580
vt 0.315568 0.160098
vt 0.354711 0.123607
vt 0.335029 0.205743
vt 0.041605 0.602476
vt 0.043815 0.592683
vt 0.050973 0.596548
vt 0.479262 0.672550
vt 0.473117 0.681529
vt 0.468050 0.671817
vt 0.747851 0.623228
vt 0.772836 0.600123
vt 0.777055 0.623413
vt 0.631538 0.120772
vt 0.653681 0.136661
vt 0.624369 0.160757
vt 0.694797 0.891505
vt 0.692301 0.910867
vt 0.672462 0.891620
vt 0.579538 0.084461
vt 0.588804 0.083876
vt 0.575646 0.128165
vt 0.076885 0.584703
vt 0.084252 0.606848
vt 0.070888 0.596766
vt 0.795945 0.616198
vt 0.784692 0.633744
vt 0.795801 0.001660
vt 0.786317 0.019636
vt 0.757569 0.017534
vt 0.267845 0.532062
vt 0.279247 0.529101
vt 0.271135 0.546991
vt 0.472254 0.486930
vt 0.437804 0.452816
vt 0.463479 0.435317
vt 0.129407 0.545791
vt 0.136677 0.534355
vt 0.139276 0.557653
vt 0.793026 0.495589
vt 0.807912 0.502993
vt 0.788969 0.572670
vt 0.355163 0.186860
vt 0.358133 0.220127
vt 0.463889 0.717370
vt 0.487689 0.708208
vt 0.487689 0.724547
vt 0.377698 0.081953
vt 0.381235 0.116365
vt 0.365827 0.117890
vt 0.093226 0.519336
vt 0.089661 0.524441
vt 0.078126 0.520383
vt 0.689570 0.466176
vt 0.709987 0.481233
vt 0.692132 0.483855
vt 0.544761 0.423520
vt 0.563307 0.386944
vt 0.575054 0.422130
vt 0.640144 0.248322
vt 0.615759 0.255198
vt 0.638444 0.236570
vt 0.393162 0.051228
vt 0.416689 0.043531
vt 0.392792 0.068334
vt 0.136092 0.378543
vt 0.137945 0.407884
vt 0.115104 0.386642
vt 0.651286 0.442643
vt 0.639833 0.471297
vt 0.625313 0.439453
vt 0.866571 0.512988
vt 0.854294 0.489514
vt 0.875299 0.438804
vt 0.251709 0.595519
vt 0.258298 0.581149
vt 0.266874 0.600640
vt 0.697951 0.812297
vt 0.607518 0.099894
vt 0.449455 0.713396
vt 0.438721 0.708757
vt 0.436672 0.695613
vt 0.087598 0.549033
vt 0.081947 0.562905
vt 0.066127 0.548968
vt 0.300670 0.066207
vt 0.234035 0.045239
vt 0.263727 0.032941
vt 0.792551 0.036728
vt 0.822895 0.032029
vt 0.807704 0.049074
vt 0.424284 0.681175
vt 0.424401 0.671817
vt 0.441053 0.682947
vt 0.315821 0.519421
vt 0.313950 0.549651
vt 0.298243 0.514519
vt 0.691857 0.654088
vt 0.698771 0.638764
vt 0.709956 0.651570
vt 0.122111 0.351165
vt 0.093427 0.351529
vt 0.094549 0.344067
vt 0.491846 0.025493
vt 0.521906 0.026447
vt 0.724641 0.503353
vt 0.752395 0.477384
vt 0.750334 0.523053
vt 0.826239 0.050929
vt 0.815248 0.078569
vt 0.111508 0.096831
vt 0.086887 0.113916
vt 0.057090 0.110633
vt 0.982977 0.584304
vt 0.980126 0.619168
vt 0.970177 0.607958
vt 0.927936 0.575927
vt 0.931808 0.590460
vt 0.908464 0.579121
vt 0.075133 0.350591
vt 0.128850 0.535799
vt 0.134754 0.524587
vt 0.578175 0.717768
vt 0.583876 0.709058
vt 0.583876 0.736851
vt 0.536743 0.452695
vt 0.492725 0.499840
vt 0.516139 0.432221
vt 0.732370 0.709145
vt 0.714941 0.658023
vt 0.732370 0.655171
vt 0.492482 0.284886
vt 0.475319 0.264186
vt 0.508862 0.253322
vt 0.162612 0.421643
vt 0.167149 0.375366
vt 0.221392 0.415589
vt 0.447479 0.032160
vt 0.119403 0.590724
vt 0.115548 0.562108
vt 0.306879 0.676073
vt 0.282567 0.656070
vt 0.333334 0.631561
vt 0.416673 0.674227
vt 0.798060 0.242139
vt 0.826340 0.267498
vt 0.810028 0.268001
vt 0.091933 0.576676
vt 0.969324 0.676848
vt 0.931116 0.699462
vt 0.887578 0.643824
vt 0.679882 0.005664
vt 0.657618 0.021313
vt 0.666831 0.001660
vt 0.790204 0.150618
vt 0.786786 0.100983
vt 0.807512 0.123930
vt 0.899227 0.390788
vt 0.869108 0.420852
vt 0.883173 0.392976
vt 0.333334 0.709745
vt 0.333334 0.734334
vt 0.322672 0.718936
vt 0.080998 0.534235
vt 0.077397 0.525230
vt 0.086475 0.527037
vt 0.068521 0.594304
vt 0.059200 0.586050
vt 0.074130 0.581284
vt 0.583876 0.705738
vt 0.577500 0.692149
vt 0.583876 0.671817
vt 0.677989 0.369925
vt 0.665709 0.386481
vt 0.634201 0.386539
vt 0.052338 0.173324
vt 0.027454 0.160876
vt 0.045131 0.128154
vt 0.137174 0.363722
vt 0.691736 0.355115
vt 0.685894 0.348650
vt 0.694548 0.344827
vt 0.097343 0.530976
vt 0.421774 0.714701
vt 0.420191 0.700730
vt 0.282135 0.021944
vt 0.311487 0.009798
vt 0.310091 0.029852
vt 0.690238 0.593898
vt 0.666788 0.585691
vt 0.679945 0.578862
vt 0.207708 0.063422
vt 0.189642 0.047308
vt 0.578569 0.463535
vt 0.557937 0.510831
vt 0.819325 0.282348
vt 0.794530 0.287731
vt 0.682573 0.022146
vt 0.646053 0.413432
vt 0.664403 0.423841
vt 0.714941 0.717812
vt 0.727163 0.712465
vt 0.727163 0.732594
vt 0.823581 0.010916
vt 0.835905 0.005678
vt 0.836178 0.019103
vt 0.351775 0.563432
vt 0.337814 0.549142
vt 0.357207 0.543355
vt 0.448943 0.544248
vt 0.460364 0.523934
vt 0.052330 0.393903
vt 0.053317 0.417871
vt 0.279743 0.414102
vt 0.286189 0.382409
vt 0.304174 0.415032
vt 0.460569 0.705237
vt 0.457847 0.685959
vt 0.648896 0.011262
vt 0.109760 0.548796
vt 0.119264 0.546118
vt 0.615287 0.228085
vt 0.581688 0.265141
vt 0.612337 0.194734
vt 0.550324 0.160543
vt 0.506565 0.217007
vt 0.507269 0.140691
vt 0.941415 0.575678
vt 0.049191 0.106594
vt 0.026036 0.214226
vt 0.041127 0.203120
vt 0.072668 0.540678
vt 0.064295 0.535273
vt 0.272247 0.514519
vt 0.018279 0.587842
vt 0.024588 0.565759
vt 0.028299 0.589362
vt 0.051373 0.561122
vt 0.062875 0.563093
vt 0.055396 0.572293
vt 0.784423 0.303386
vt 0.792438 0.314712
vt 0.753887 0.316522
vt 0.049035 0.469047
vt 0.030733 0.496734
vt 0.032573 0.454496
vt 0.906604 0.723766
vt 0.023805 0.429323
vt 0.016628 0.475995
vt 0.557845 0.040722
vt 0.570648 0.025424
vt 0.577774 0.049704
vt 0.552624 0.115486
vt 0.565056 0.118682
vt 0.450170 0.679031
vt 0.460569 0.676867
vt 0.518413 0.260993
vt 0.510450 0.277380
vt 0.232912 0.413076
vt 0.220457 0.394653
vt 0.236276 0.402329
vt 0.317385 0.728270
vt 0.303671 0.713983
vt 0.317385 0.709745
vt 0.778380 0.469668
vt 0.354043 0.582327
vt 0.361008 0.597927
vt 0.348388 0.591442
vt 0.632406 0.026289
vt 0.650951 0.040281
vt 0.638065 0.054671
vt 0.335445 0.567939
vt 0.194176 0.701848
vt 0.202646 0.743118
vt 0.170122 0.745422
vt 0.568108 0.725544
vt 0.574180 0.718948
vt 0.574180 0.733787
vt 0.044274 0.569171
vt 0.038639 0.559226
vt 0.520200 0.730956
vt 0.514098 0.721280
vt 0.520200 0.714550
vt 0.105980 0.641459
vt 0.098545 0.618574
vt 0.139992 0.633258
vt 0.603535 0.048869
vt 0.611342 0.056330
vt 0.604234 0.442681
vt 0.615833 0.465563
vt 0.764337 0.042651
vt 0.620397 0.039487
vt 0.549052 0.023583
vt 0.956843 0.594261
vt 0.950943 0.557445
vt 0.801908 0.634551
vt 0.812374 0.611771
vt 0.829556 0.627274
vt 0.773385 0.059503
vt 0.755580 0.079759
vt 0.751890 0.056535
vt 0.885664 0.510408
vt 0.526217 0.272462
vt 0.515017 0.275569
vt 0.526977 0.244182
vt 0.770466 0.634555
vt 0.722289 0.312027
vt 0.704355 0.326158
vt 0.698041 0.314821
vt 0.711627 0.605000
vt 0.731482 0.611434
vt 0.730184 0.622631
vt 0.948344 0.448673
vt 0.922016 0.430616
vt 0.978484 0.412829
vt 0.426240 0.529064
vt 0.427445 0.544323
vt 0.171084 0.072850
vt 0.108934 0.678187
vt 0.127813 0.668292
vt 0.113606 0.707425
vt 0.933044 0.551507
vt 0.915805 0.559640
vt 0.924924 0.536657
vt 0.062066 0.434310
vt 0.071591 0.450924
vt 0.260086 0.764440
vt 0.276534 0.756227
vt 0.279247 0.765994
vt 0.344182 0.252408
vt 0.896242 0.406185
vt 0.921252 0.382301
vt 0.359004 0.086837
vt 0.344071 0.084833
vt 0.357045 0.054644
vt 0.360418 0.360618
vt 0.347412 0.367964
vt 0.353222 0.344067
vt 0.804242 0.199604
vt 0.777720 0.203570
vt 0.555610 0.183175
vt 0.561013 0.149736
vt 0.557678 0.205353
vt 0.964731 0.622800
vt 0.939766 0.613438
vt 0.551912 0.287650
vt 0.580905 0.279742
vt 0.594815 0.461907
vt 0.607884 0.491034
vt 0.426928 0.016083
vt 0.438090 0.017803
vt 0.410872 0.143618
vt 0.379121 0.197667
vt 0.372240 0.161654
vt 0.422208 0.068196
vt 0.644144 0.564692
vt 0.630187 0.546722
vt 0.643902 0.520219
vt 0.895484 0.442581
vt 0.055159 0.609708
vt 0.060313 0.594427
vt 0.641165 0.216942
vt 0.639297 0.189630
vt 0.021628 0.522170
vt 0.012572 0.215917
vt 0.001660 0.198471
vt 0.409437 0.539625
vt 0.394382 0.542432
vt 0.405677 0.530721
vt 0.300351 0.725769
vt 0.294591 0.720804
vt 0.300351 0.709745
vt 0.748550 0.367221
vt 0.694996 0.382252
vt 0.983080 0.652667
vt 0.700163 0.608451
vt 0.376471 0.281503
vt 0.453143 0.336585
vt 0.405793 0.331489
vt 0.086145 0.538192
vt 0.697818 0.297616
vt 0.551086 0.370385
vt 0.534867 0.378151
vt 0.536982 0.367221
vt 0.976715 0.692869
vt 0.115057 0.365647
vt 0.742190 0.404213
vt 0.769829 0.446120
vt 0.034975 0.636066
vt 0.812157 0.308856
vt 0.324500 0.408352
vt 0.317971 0.443480
vt 0.039897 0.618040
vt 0.230933 0.072887
vt 0.181001 0.081103
vt 0.902653 0.738656
vt 0.883043 0.740573
vt 0.713143 0.282563
vt 0.724808 0.241926
vt 0.101623 0.561928
vt 0.106241 0.124366
vt 0.459326 0.291710
vt 0.453901 0.312583
vt 0.520772 0.295768
vt 0.527299 0.284579
vt 0.048284 0.644787
vt 0.050013 0.660039
vt 0.073455 0.637622
vt 0.713943 0.579218
vt 0.695657 0.557344
vt 0.705780 0.528340
vt 0.026259 0.394393
vt 0.040568 0.389558
vt 0.017883 0.416313
vt 0.063578 0.121625
vt 0.038232 0.578002
vt 0.247253 0.665374
vt 0.264713 0.664236
vt 0.253992 0.686890
vt 0.734288 0.712465
vt 0.734288 0.730538
vt 0.730483 0.720369
vt 0.172585 0.769895
vt 0.066853 0.557841
vt 0.862017 0.391030
vt 0.858274 0.409122
vt 0.760265 0.404131
vt 0.418661 0.570375
vt 0.393756 0.592455
vt 0.403924 0.556317
vt 0.807645 0.406095
vt 0.794719 0.416495
vt 0.786451 0.413786
vt 0.334050 0.578966
vt 0.659265 0.077098
vt 0.096384 0.552520
vt 0.525830 0.402292
vt 0.492095 0.404428
vt 0.511276 0.387303
vt 0.052009 0.625169
vt 0.045536 0.632993
vt 0.634448 0.073334
vt 0.989828 0.675989
vt 0.688587 0.306062
vt 0.148337 0.533668
vt 0.338016 0.053369
vt 0.342976 0.019316
vt 0.691225 0.516600
vt 0.681246 0.527712
vt 0.342880 0.389861
vt 0.335207 0.386622
vt 0.669535 0.192838
vt 0.666526 0.162580
vt 0.682573 0.192272
vt 0.183183 0.103052
vt 0.800998 0.166061
vt 0.711621 0.926460
vt 0.708903 0.910307
vt 0.320726 0.627846
vt 0.324975 0.603639
vt 0.337105 0.623011
vt 0.707601 0.504699
vt 0.267559 0.640518
vt 0.248503 0.631907
vt 0.703651 0.668350
vt 0.486267 0.309131
vt 0.506354 0.307762
vt 0.476296 0.336822
vt 0.663944 0.567398
vt 0.675035 0.552215
vt 0.700955 0.332516
vt 0.700955 0.353689
vt 0.998340 0.437005
vt 0.985695 0.463479
vt 0.055178 0.631559
vt 0.072611 0.624748
vt 0.271353 0.575667
vt 0.702644 0.590773
vt 0.435166 0.716747
vt 0.415864 0.732806
vt 0.423346 0.720067
vt 0.423346 0.733284
vt 0.009301 0.182953
vt 0.753834 0.635444
vt 0.754313 0.114854
vt 0.731305 0.133700
vt 0.735164 0.100670
vt 0.491140 0.573946
vt 0.061099 0.187266
vt 0.631213 0.871691
vt 0.654248 0.894513
vt 0.616121 0.016586
vt 0.611766 0.025933
vt 0.253835 0.565377
vt 0.573523 0.531206
vt 0.580536 0.506255
vt 0.634496 0.823606
vt 0.589530 0.846443
vt 0.595500 0.425476
vt 0.614894 0.422747
vt 0.277121 0.652207
vt 0.384577 0.562245
vt 0.371812 0.593182
vt 0.678577 0.206043
vt 0.662452 0.209837
vt 0.807733 0.456667
vt 0.793300 0.446722
vt 0.807622 0.424800
vt 0.480008 0.363900
vt 0.453505 0.357420
vt 0.548186 0.068438
vt 0.567577 0.082358
vt 0.948178 0.385527
vt 0.960267 0.379710
vt 0.281547 0.311059
vt 0.218028 0.124120
vt 0.156648 0.163238
vt 0.477380 0.704887
vt 0.481955 0.695843
vt 0.493359 0.702757
vt 0.734132 0.336609
vt 0.734132 0.363900
vt 0.727521 0.353382
vt 0.552966 0.269973
vt 0.541815 0.217117
vt 0.778317 0.368705
vt 0.760449 0.383670
vt 0.127081 0.518023
vt 0.898785 0.550482
vt 0.913840 0.506961
vt 0.073666 0.563789
vt 0.695082 0.273929
vt 0.721448 0.539437
vt 0.525224 0.233023
vt 0.503397 0.290538
vt 0.717374 0.638764
vt 0.723639 0.596401
vt 0.052965 0.554239
vt 0.709613 0.410481
vt 0.661537 0.506311
vt 0.361008 0.165571
vt 0.682480 0.904648
vt 0.872548 0.558820
vt 0.463889 0.688545
vt 0.998340 0.664669
vt 0.599038 0.019996
vt 0.046276 0.584193
vt 0.068420 0.365294
vt 0.996058 0.495697
vt 0.983326 0.515621
vt 0.640619 0.400421
vt 0.670674 0.400363
vt 0.194933 0.522429
vt 0.169854 0.520893
vt 0.192884 0.499149
vt 0.989730 0.642836
vt 0.153797 0.768519
vt 0.090053 0.180775
vt 0.143420 0.102084
vt 0.419465 0.509098
vt 0.702771 0.261495
vt 0.720191 0.172288
vt 0.315343 0.326181
vt 0.345291 0.282168
vt 0.846190 0.315845
vt 0.843277 0.301145
vt 0.724329 0.379305
vt 0.365757 0.216522
vt 0.383923 0.245004
vt 0.794806 0.392003
vt 0.905194 0.376199
vt 0.640695 0.097450
vt 0.288823 0.541945
vt 0.041867 0.549190
vt 0.029834 0.541514
vt 0.044590 0.523886
vt 0.056074 0.210632
vt 0.162910 0.563539
vt 0.681714 0.447992
vt 0.177688 0.681403
vt 0.181030 0.667765
vt 0.275394 0.484346
vt 0.835890 0.283277
vt 0.821427 0.295180
vt 0.347113 0.455806
vt 0.344637 0.426484
vt 0.361008 0.432805
vt 0.206177 0.441391
vt 0.229854 0.439115
vt 0.213897 0.467236
vt 0.770722 0.403339
vt 0.361008 0.015639
vt 0.047573 0.697402
vt 0.847331 0.401382
vt 0.335436 0.406302
vt 0.349981 0.394442
vt 0.657062 0.770013
vt 0.668063 0.740627
vt 0.668553 0.451633
vt 0.669062 0.486929
vt 0.530493 0.733066
vt 0.524157 0.726015
vt 0.530493 0.714550
vt 0.671176 0.853215
vt 0.734726 0.569113
vt 0.200387 0.013711
vt 0.090755 0.448872
vt 0.125356 0.452814
vt 0.550684 0.620212
vt 0.527605 0.604885
vt 0.564536 0.572757
vt 0.028469 0.652832
vt 0.576118 0.239704
vt 0.269597 0.721585
vt 0.249641 0.733086
vt 0.324500 0.530227
vt 0.319599 0.520188
vt 0.324500 0.514519
vt 0.164728 0.697792
vt 0.541373 0.253367
vt 0.952146 0.536155
vt 0.020377 0.617262
vt 0.770061 0.571033
vt 0.687731 0.491488
vt 0.252362 0.093196
vt 0.219594 0.090794
vt 0.069725 0.609969
vt 0.598444 0.169333
vt 0.154612 0.480946
vt 0.426068 0.354279
vt 0.697176 0.363900
vt 0.187318 0.591020
vt 0.185382 0.557869
vt 0.367123 0.182724
vt 0.846190 0.019023
vt 0.855881 0.728089
vt 0.666093 0.223734
vt 0.144542 0.511558
vt 0.609676 0.174457
vt 0.517582 0.372503
vt 0.063118 0.518589
vt 0.542135 0.211991
vt 0.557859 0.175019
vt 0.699950 0.860696
vt 0.042240 0.497018
vt 0.054620 0.228312
vt 0.848416 0.431633
vt 0.116577 0.284700
vt 0.123074 0.263943
vt 0.154876 0.301662
vt 0.440844 0.558844
vt 0.184835 0.630670
vt 0.207882 0.670410
vt 0.841446 0.716794
vt 0.851200 0.696513
vt 0.430944 0.218810
vt 0.996408 0.628108
vt 0.319971 0.569931
vt 0.330730 0.543355
vt 0.330730 0.584220
vt 0.340528 0.713433
vt 0.361008 0.670105
vt 0.361008 0.730758
vt 0.221148 0.331868
vt 0.222744 0.305219
vt 0.260905 0.339665
vt 0.430051 0.489138
vt 0.449461 0.492034
vt 0.576865 0.095887
vt 0.581775 0.061145
vt 0.343918 0.001660
vt 0.589530 0.440756
vt 0.364328 0.576927
vt 0.198163 0.026700
vt 0.281453 0.332973
vt 0.857582 0.744200
vt 0.031725 0.136819
vt 0.313034 0.370530
vt 0.334071 0.428781
vt 0.361008 0.666306
vt 0.344195 0.624236
vt 0.361008 0.601247
vt 0.564776 0.709785
vt 0.537133 0.728099
vt 0.533814 0.713033
vt 0.545441 0.716888
vt 0.986244 0.399962
vt 0.990753 0.415697
vt 0.224276 0.709555
vt 0.236276 0.688957
vt 0.807306 0.384246
vt 0.829556 0.370169
vt 0.206430 0.634720
vt 0.220720 0.657319
vt 0.364328 0.249384
vt 0.412128 0.642235
vt 0.453848 0.512467
vt 0.711621 0.781148
vt 0.713209 0.148467
vt 0.154759 0.607432
vt 0.333334 0.686219
vt 0.239597 0.690165
vt 0.882019 0.380194
vt 0.139344 0.084909
vt 0.545441 0.732100
vt 0.068253 0.576133
vt 0.361008 0.568716
vt 0.582233 0.010569
vt 0.301435 0.340746
vt 0.540010 0.301740
vt 0.519760 0.304435
vt 0.272784 0.696413
vt 0.070684 0.254233
vt 0.223558 0.164789
vt 0.325736 0.706425
vt 0.286569 0.695538
vt 0.342985 0.117366
vt 0.059016 0.577896
vt 0.688895 0.424458
vt 0.496679 0.725555
vt 0.510778 0.671817
vt 0.510778 0.736972
vt 0.282567 0.710016
vt 0.282567 0.580184
vt 0.678298 0.428238
vt 0.932626 0.367221
vt 0.415864 0.685484
vt 0.249923 0.221550
vt 0.668534 0.040871
vt 0.857883 0.448462
vt 0.530493 0.681244
vt 0.514098 0.698809
vt 0.517024 0.671817
vt 0.291851 0.344067
vt 0.239597 0.464575
vt 0.149694 0.050462
vt 0.135579 0.521455
vt 0.464925 0.663080
vt 0.146000 0.711245
vt 0.120106 0.776093
vt 0.253915 0.408489
vt 0.364424 0.627179
vt 0.568097 0.707040
vt 0.574180 0.671817
vt 0.574180 0.715628
vt 0.849243 0.563549
vt 0.851667 0.605768
vt 0.337105 0.601247
vt 0.174023 0.010462
vt 0.554517 0.721235
vt 0.564776 0.713729
vt 0.564776 0.728381
vt 0.819013 0.399721
vt 0.813057 0.448079
vt 0.494491 0.668497
vt 0.113961 0.513866
vt 0.152309 0.357429
vt 0.184087 0.366225
vt 0.533814 0.691963
vt 0.550551 0.671817
vt 0.550551 0.709713
vt 0.371013 0.325867
vt 0.385029 0.333680
vt 0.248724 0.798343
vt 0.832876 0.685323
vt 0.844907 0.660431
vt 0.606209 0.270930
vt 0.704275 0.359275
vt 0.724201 0.343760
vt 0.724201 0.363900
vt 0.586210 0.639130
vt 0.530493 0.711230
vt 0.315911 0.509480
vt 0.300997 0.511198
vt 0.685894 0.281117
vt 0.324500 0.500404
vt 0.586210 0.413572
vt 0.996624 0.536133
vt 0.009738 0.166931
vt 0.340426 0.666785
vt 0.470715 0.399840
vt 0.745216 0.050714
vt 0.240353 0.773979
vt 0.196980 0.558737
vt 0.286686 0.721909
vt 0.493359 0.684190
vt 0.412544 0.671817
vt 0.412544 0.720922
vt 0.364328 0.694538
vt 0.125914 0.024766
vt 0.098651 0.043001
vt 0.361008 0.404094
vt 0.556683 0.713105
vt 0.012196 0.599743
vt 0.001660 0.580146
vt 0.015754 0.552541
vt 0.315821 0.628241
vt 0.361008 0.540035
vt 0.328368 0.513870
vt 0.361008 0.459127
vt 0.611359 0.525168
s 1
usemtl Material
f 496/1/1 237/2/2 161/3/3
f 169/4/4 24/5/5 143/6/6
f 488/7/7 489/8/8 144/9/9
f 379/10/10 71/11/11 120/12/12
f 170/13/13 263/14/14 20/15/15
f 279/16/16 274/17/17 37/18/18
f 395/19/19 309/20/20 308/21/21
f 369/22/22 107/23/23 110/24/24
f 178/25/25 350/26/26 381/27/27
f 284/28/28 1/29/29 283/30/30
f 10/31/31 280/32/32 60/33/33
f 315/34/34 380/35/35 67/36/36
f 329/37/37 76/38/38 85/39/39
f 74/40/40 214/41/41 467/42/42
f 88/43/43 199/44/44 196/45/45
f 44/46/46 126/47/47 39/48/48
f 67/36/36 115/49/49 313/50/50
f 367/51/51 466/52/52 129/53/53
f 211/54/54 385/55/55 471/56/56
f 70/57/57 326/58/58 330/59/59
f 26/60/60 262/61/61 6/62/62
f 286/63/63 46/64/64 312/65/65
f 381/27/27 342/66/66 355/67/67
f 126/68/47 55/69/68 40/70/69
f 340/71/70 201/72/71 350/73/26
f 264/74/72 261/75/73 23/76/74
f 162/77/75 134/78/76 101/79/77
f 104/80/78 75/81/79 310/82/80
f 389/83/81 287/84/82 80/85/83
f 337/86/84 372/87/85 108/88/86
f 238/89/87 95/90/88 409/91/89
f 121/92/90 368/93/91 348/94/92
f 151/95/93 458/96/94 440/97/95
f 473/98/96 373/99/97 209/100/98
f 489/8/8 488/7/7 394/101/99
f 199/44/44 328/102/100 196/45/45
f 147/103/101 278/104/102 35/105/103
f 274/106/17 279/107/16 272/108/104
f 453/109/105 251/110/106 136/111/107
f 397/112/108 215/113/109 445/114/110
f 10/115/31 277/116/111 34/117/112
f 61/118/113 62/119/114 375/120/115
f 226/121/116 297/122/117 410/123/118
f 495/124/119 157/125/120 419/126/121
f 365/127/122 110/24/24 357/128/123
f 133/129/124 45/130/125 449/131/126
f 74/132/40 427/133/127 445/114/110
f 257/134/128 171/135/129 145/136/130
f 227/137/131 273/138/132 486/139/133
f 483/140/134 398/141/135 485/142/136
f 157/125/120 456/143/137 419/126/121
f 27/144/138 24/5/5 25/145/139
f 160/146/140 268/147/141 269/148/142
f 390/149/143 185/150/144 377/151/145
f 323/152/146 321/153/147 182/154/148
f 469/155/149 470/156/150 208/157/151
f 407/158/152 252/159/153 154/160/154
f 107/23/23 369/22/22 364/161/155
f 43/162/156 267/163/157 6/62/62
f 7/164/158 59/165/159 299/166/160
f 60/167/33 277/116/111 10/115/31
f 341/168/161 487/169/162 58/170/163
f 44/46/46 4/171/164 126/47/47
f 236/172/165 235/173/166 408/174/167
f 177/175/168 318/176/169 315/177/34
f 402/178/170 132/179/171 394/180/99
f 183/181/172 457/182/173 186/183/174
f 467/184/42 214/185/41 446/186/175
f 30/187/176 260/188/177 31/189/178
f 38/190/179 275/191/180 60/192/33
f 130/193/181 63/194/182 210/195/183
f 136/196/107 3/197/184 399/198/185
f 184/199/186 241/200/187 220/201/188
f 252/159/153 238/89/87 494/202/189
f 25/203/139 24/204/5 428/205/190
f 263/14/14 28/206/191 264/74/72
f 278/104/102 44/207/46 173/208/192
f 3/209/184 351/210/193 399/211/185
f 99/212/194 448/213/195 435/214/196
f 250/215/197 422/216/198 251/110/106
f 308/21/21 306/217/199 305/218/200
f 58/170/163 410/219/118 232/220/201
f 320/221/202 318/176/169 177/175/168
f 378/222/203 358/223/204 121/92/90
f 23/224/74 260/225/177 270/226/205
f 343/227/206 386/228/207 190/229/208
f 93/230/209 281/231/210 290/232/211
f 182/233/148 73/234/212 309/20/20
f 239/235/213 237/2/2 497/236/214
f 253/237/215 254/238/216 248/239/217
f 271/240/218 147/103/101 33/241/219
f 315/177/34 318/176/169 437/242/220
f 160/243/140 143/6/6 268/244/141
f 388/245/221 124/246/222 436/247/223
f 409/91/89 237/2/2 496/1/1
f 86/248/224 472/249/225 333/250/226
f 484/251/227 398/141/135 483/140/134
f 202/252/228 145/136/130 220/201/188
f 242/253/229 241/200/187 243/254/230
f 260/188/177 142/255/231 270/256/205
f 385/55/55 211/54/54 163/257/232
f 42/258/233 166/259/234 290/260/211
f 36/261/235 34/262/112 276/263/236
f 149/264/237 233/265/238 231/266/239
f 175/267/240 246/268/241 19/269/242
f 235/173/166 413/270/243 408/174/167
f 94/271/244 19/269/242 244/272/245
f 336/273/246 349/274/247 109/275/248
f 443/276/249 105/277/250 86/248/224
f 33/241/219 36/278/235 187/279/251
f 208/157/151 471/280/56 385/281/55
f 403/282/252 405/283/253 492/284/254
f 29/285/255 272/286/104 271/287/218
f 286/63/63 449/131/126 431/288/256
f 32/289/257 29/290/255 271/291/218
f 91/292/258 327/293/259 319/294/260
f 32/289/257 187/295/251 93/230/209
f 64/296/261 306/297/199 307/298/262
f 31/299/178 261/300/73 176/301/263
f 247/302/264 187/303/251 36/261/235
f 247/304/264 276/305/236 480/306/265
f 293/307/266 292/308/267 294/309/268
f 92/310/269 197/311/270 199/44/44
f 361/312/271 348/94/92 362/313/272
f 477/314/273 466/52/52 397/112/108
f 2/315/274 91/292/258 319/294/260
f 438/316/275 336/273/246 357/128/123
f 227/137/131 224/317/276 139/318/277
f 75/319/79 450/320/278 415/321/279
f 216/322/280 476/323/281 324/324/282
f 225/325/283 151/95/93 440/97/95
f 123/326/284 211/327/54 212/328/285
f 314/329/286 67/36/36 313/50/50
f 17/330/287 154/331/154 403/332/252
f 77/333/288 437/334/220 318/335/169
f 478/336/289 221/337/290 98/338/291
f 194/339/292 182/233/148 117/340/293
f 422/216/198 250/215/197 254/341/216
f 387/342/294 135/343/295 311/344/296
f 223/345/297 138/346/298 482/347/299
f 156/348/300 237/2/2 140/349/301
f 106/350/302 89/351/303 109/352/248
f 381/27/27 355/67/67 146/353/304
f 441/354/305 183/181/172 66/355/306
f 340/356/70 455/357/307 337/358/84
f 127/359/308 101/360/77 346/361/309
f 402/178/170 144/362/9 459/363/310
f 343/227/206 190/229/208 215/113/109
f 374/364/311 191/365/312 384/366/313
f 493/367/314 430/368/315 224/317/276
f 446/369/175 124/246/222 382/370/316
f 107/371/23 362/313/272 110/372/24
f 405/283/253 403/282/252 154/160/154
f 372/87/85 111/373/317 234/374/318
f 364/161/155 372/87/85 234/374/318
f 416/375/319 347/376/320 180/377/321
f 333/250/226 416/375/319 462/378/322
f 349/379/247 438/380/275 193/381/323
f 370/382/324 441/354/305 221/337/290
f 168/383/325 282/384/326 38/190/179
f 81/385/327 388/245/221 116/386/328
f 245/387/329 244/272/245 246/268/241
f 502/388/330 419/389/121 242/253/229
f 444/390/331 78/391/332 331/392/333
f 275/393/180 480/394/265 277/395/111
f 14/396/334 15/397/335 136/196/107
f 484/251/227 139/318/277 224/317/276
f 230/398/336 493/367/314 273/138/132
f 99/212/194 77/333/288 91/399/258
f 140/349/301 175/267/240 156/348/300
f 461/400/337 366/401/338 463/402/339
f 176/403/263 261/75/73 28/206/191
f 362/313/272 107/371/23 361/312/271
f 403/332/252 188/404/340 17/330/287
f 313/405/50 356/406/341 314/407/286
f 236/172/165 405/408/253 235/173/166
f 142/255/231 30/187/176 176/403/263
f 494/202/189 418/409/342 495/124/119
f 45/130/125 122/410/343 285/411/344
f 287/84/82 124/246/222 388/245/221
f 42/258/233 290/260/211 51/412/345
f 233/265/238 149/264/237 296/413/346
f 496/1/1 418/409/342 409/91/89
f 256/414/347 257/415/128 248/239/217
f 290/260/211 54/416/348 51/412/345
f 237/2/2 239/235/213 161/3/3
f 19/269/242 497/236/214 156/348/300
f 255/417/349 16/418/350 250/215/197
f 413/270/243 494/419/189 495/420/119
f 406/421/351 425/422/352 17/330/287
f 4/171/164 269/423/142 267/163/157
f 257/134/128 417/424/353 171/135/129
f 461/400/337 468/425/354 181/426/355
f 163/427/232 102/428/356 446/369/175
f 137/429/357 47/430/358 51/412/345
f 135/343/295 47/430/358 291/431/359
f 317/432/360 97/433/361 68/434/362
f 220/435/188 79/436/363 202/437/228
f 499/438/364 171/135/129 417/424/353
f 187/303/251 247/302/264 281/439/210
f 384/366/313 191/365/312 196/45/45
f 191/440/312 87/441/365 222/442/366
f 282/443/326 284/444/28 283/445/30
f 306/297/199 310/446/80 307/298/262
f 147/447/101 272/108/104 279/107/16
f 464/448/367 186/183/174 204/449/368
f 122/410/343 249/450/369 285/411/344
f 72/451/370 393/452/371 189/453/372
f 52/454/373 288/455/374 49/456/375
f 33/457/219 32/289/257 271/291/218
f 319/294/260 327/293/259 330/458/59
f 160/243/140 269/423/142 37/459/18
f 236/172/165 493/367/314 230/398/336
f 112/460/376 203/461/377 320/462/202
f 289/463/378 48/464/379 54/416/348
f 330/458/59 152/465/380 319/294/260
f 236/172/165 230/398/336 492/466/254
f 403/332/252 492/467/254 188/404/340
f 6/62/62 262/61/61 454/468/381
f 414/469/382 452/470/383 337/358/84
f 128/471/384 97/433/361 392/472/385
f 101/360/77 376/473/386 162/474/75
f 451/475/387 84/476/388 331/477/333
f 172/478/389 16/418/350 255/417/349
f 394/180/99 488/479/7 402/178/170
f 190/480/208 214/41/41 215/481/109
f 126/482/47 40/483/69 39/484/48
f 134/78/76 346/485/309 101/79/77
f 82/486/390 191/440/312 374/487/311
f 410/123/118 487/488/162 226/121/116
f 207/489/391 386/490/207 367/491/51
f 100/492/392 345/493/393 435/214/196
f 470/156/150 472/249/225 208/157/151
f 211/327/54 123/326/284 102/428/356
f 20/15/15 264/74/72 23/76/74
f 263/494/14 265/495/394 428/205/190
f 98/338/291 476/496/281 219/497/395
f 433/498/396 289/463/378 55/499/68
f 79/436/363 239/235/213 202/437/228
f 209/100/98 373/99/97 195/500/397
f 444/390/331 189/453/372 78/391/332
f 352/501/398 77/333/288 99/212/194
f 82/486/390 87/441/365 191/440/312
f 147/103/101 279/502/16 278/104/102
f 433/503/396 48/504/379 289/505/378
f 456/506/137 242/253/229 419/389/121
f 168/383/325 54/416/348 284/28/28
f 177/507/168 315/34/34 314/329/286
f 479/508/399 491/509/400 219/510/395
f 182/233/148 395/19/19 323/511/146
f 240/512/401 243/254/230 184/199/186
f 475/513/402 467/42/42 382/514/316
f 99/515/194 91/292/258 90/516/403
f 112/460/376 104/80/78 377/151/145
f 91/399/258 77/333/288 318/335/169
f 195/500/397 212/517/285 471/56/56
f 414/469/382 455/357/307 453/109/105
f 303/518/404 305/218/200 304/519/405
f 218/520/406 475/513/402 393/521/371
f 361/312/271 111/522/317 113/523/407
f 406/421/351 17/330/287 188/404/340
f 86/524/224 87/441/365 82/486/390
f 174/525/408 393/452/371 389/526/81
f 451/475/387 78/527/332 114/528/409
f 28/206/191 274/106/17 176/403/263
f 43/162/156 294/309/268 292/308/267
f 50/529/410 167/530/411 53/531/412
f 181/426/355 207/489/391 366/401/338
f 367/491/51 129/532/53 205/533/413
f 91/292/258 2/315/274 90/516/403
f 36/278/235 33/241/219 34/117/112
f 337/86/84 108/88/86 340/71/70
f 442/534/414 109/275/248 335/535/415
f 418/409/342 238/89/87 409/91/89
f 206/536/416 129/537/53 98/338/291
f 180/377/321 350/73/26 201/72/71
f 146/353/304 359/538/417 381/27/27
f 364/161/155 234/374/318 107/23/23
f 159/539/418 500/540/419 172/478/389
f 39/541/48 173/542/192 44/543/46
f 459/363/310 144/362/9 341/168/161
f 28/544/191 263/545/14 169/546/4
f 213/547/420 124/246/222 446/369/175
f 176/403/263 30/187/176 31/189/178
f 384/366/313 473/548/96 374/364/311
f 5/549/421 13/550/422 14/396/334
f 169/4/4 428/551/190 24/5/5
f 482/347/299 432/552/423 481/553/424
f 278/554/102 279/107/16 44/46/46
f 229/555/425 406/421/351 188/404/340
f 346/485/309 133/129/124 339/556/426
f 195/557/397 208/157/151 472/249/225
f 163/427/232 474/558/427 385/281/55
f 321/153/147 117/559/293 182/154/148
f 437/334/220 77/333/288 316/560/428
f 279/107/16 37/459/18 269/423/142
f 272/108/104 147/447/101 271/561/218
f 122/410/343 134/78/76 125/562/429
f 345/493/393 193/381/323 131/563/430
f 6/62/62 267/163/157 26/60/60
f 342/66/66 350/26/26 180/564/321
f 317/432/360 352/501/398 97/433/361
f 446/565/175 382/514/316 467/42/42
f 273/138/132 493/367/314 486/139/133
f 411/566/431 151/95/93 225/325/283
f 38/567/179 60/33/33 280/32/32
f 73/234/212 185/150/144 309/20/20
f 276/263/236 247/302/264 36/261/235
f 230/398/336 188/568/340 492/466/254
f 97/433/361 352/501/398 435/214/196
f 448/569/195 99/515/194 90/516/403
f 38/567/179 280/32/32 173/542/192
f 388/245/221 436/247/223 116/386/328
f 41/570/432 281/439/210 247/302/264
f 157/125/120 412/571/433 456/143/137
f 491/572/400 434/573/434 219/497/395
f 351/574/193 141/575/435 378/222/203
f 296/576/346 57/577/436 233/578/238
f 273/138/132 229/579/425 230/398/336
f 395/19/19 308/21/21 305/218/200
f 307/298/262 310/446/80 415/580/279
f 498/581/437 256/582/347 500/540/419
f 194/339/292 331/392/333 84/583/388
f 246/268/241 244/272/245 19/269/242
f 193/381/323 362/313/272 368/93/91
f 424/584/438 228/585/439 425/422/352
f 231/266/239 17/330/287 149/264/237
f 206/536/416 441/354/305 66/355/306
f 51/412/345 48/464/379 137/429/357
f 460/586/440 146/353/304 461/587/337
f 96/588/441 296/413/346 59/589/159
f 293/307/266 291/431/359 292/308/267
f 125/562/429 164/590/442 122/410/343
f 355/591/67 347/376/320 447/592/443
f 9/593/444 52/454/373 49/456/375
f 465/594/445 66/355/306 183/181/172
f 441/354/305 457/182/173 183/181/172
f 76/38/38 329/37/37 326/595/58
f 80/85/83 388/245/221 81/385/327
f 375/120/115 62/119/114 300/596/446
f 29/597/255 166/259/234 21/598/447
f 22/599/448 21/598/447 246/268/241
f 240/512/401 498/581/437 501/600/449
f 391/601/450 6/62/62 454/468/381
f 486/139/133 493/367/314 224/317/276
f 198/602/451 125/562/429 162/77/75
f 252/159/153 407/158/152 95/90/88
f 349/379/247 345/493/393 100/492/392
f 34/117/112 147/103/101 35/105/103
f 64/296/261 63/603/182 130/604/181
f 244/605/245 248/239/217 257/415/128
f 380/35/35 115/49/49 67/36/36
f 345/493/393 97/433/361 435/214/196
f 226/606/116 59/589/159 297/607/117
f 141/608/435 179/609/452 358/610/204
f 153/611/453 17/612/287 231/613/239
f 132/179/171 427/133/127 394/180/99
f 9/593/444 12/614/454 13/550/422
f 337/358/84 452/470/383 111/615/317
f 47/430/358 311/344/296 46/616/64
f 80/85/83 287/84/82 388/245/221
f 204/449/368 460/617/440 464/448/367
f 198/618/451 354/619/455 179/609/452
f 478/336/289 98/338/291 219/497/395
f 410/219/118 297/607/117 232/220/201
f 35/105/103 10/115/31 34/117/112
f 490/620/456 404/621/457 489/8/8
f 119/622/458 103/623/459 121/92/90
f 49/624/375 288/625/374 53/626/412
f 490/620/456 489/8/8 217/627/460
f 335/535/415 105/277/250 443/276/249
f 69/628/461 317/432/360 339/556/426
f 162/474/75 376/473/386 198/618/451
f 2/315/274 319/294/260 152/465/380
f 251/110/106 14/629/334 136/111/107
f 170/13/13 258/630/462 401/631/463
f 133/129/124 346/485/309 134/78/76
f 454/468/381 57/577/436 391/601/450
f 299/632/160 65/633/464 62/634/114
f 116/386/328 114/528/409 81/385/327
f 47/430/358 50/635/410 51/412/345
f 135/343/295 293/307/266 294/309/268
f 314/329/286 315/34/34 67/36/36
f 118/636/465 124/246/222 213/547/420
f 49/456/375 285/411/344 12/614/454
f 222/442/366 334/637/466 88/638/43
f 28/639/191 261/640/73 264/641/72
f 450/320/278 115/49/49 312/65/65
f 14/396/334 164/590/442 15/397/335
f 152/465/380 329/37/37 328/102/100
f 433/498/396 55/499/68 291/431/359
f 223/345/297 483/140/134 138/346/298
f 431/288/256 449/131/126 45/130/125
f 449/131/126 339/556/426 133/129/124
f 210/642/183 135/343/295 294/309/268
f 236/172/165 492/466/254 405/408/253
f 392/472/385 131/563/430 103/623/459
f 384/366/313 8/643/467 212/328/285
f 223/345/297 482/347/299 344/644/468
f 13/550/422 122/410/343 164/590/442
f 53/645/412 51/412/345 50/635/410
f 135/343/295 291/431/359 293/307/266
f 383/646/469 286/63/63 312/65/65
f 168/383/325 289/463/378 54/416/348
f 101/360/77 127/359/308 354/619/455
f 127/647/308 346/485/309 68/434/362
f 338/648/470 159/539/418 423/649/471
f 451/475/387 331/477/333 78/527/332
f 418/409/342 494/202/189 238/89/87
f 40/650/69 168/383/325 38/190/179
f 501/600/449 243/254/230 240/512/401
f 332/651/472 329/37/37 85/39/39
f 401/631/463 429/652/473 170/13/13
f 482/347/299 138/346/298 432/552/423
f 94/271/244 497/236/214 19/269/242
f 366/401/338 465/653/445 463/402/339
f 206/536/416 221/337/290 441/354/305
f 194/339/292 444/390/331 331/392/333
f 345/493/393 349/379/247 193/381/323
f 262/654/61 25/203/139 265/495/394
f 390/149/143 310/82/80 308/21/21
f 298/655/474 391/601/450 96/656/441
f 342/657/66 347/376/320 355/591/67
f 386/228/207 163/658/232 190/229/208
f 502/659/330 413/270/243 495/420/119
f 174/660/408 80/85/83 114/528/409
f 429/652/473 266/661/475 170/13/13
f 83/662/476 85/39/39 436/247/223
f 114/528/409 78/527/332 174/660/408
f 122/410/343 13/550/422 249/450/369
f 418/409/342 157/125/120 495/124/119
f 314/407/286 356/406/341 177/663/168
f 470/156/150 469/155/149 468/425/354
f 259/664/477 20/15/15 23/76/74
f 92/310/269 2/315/274 197/311/270
f 209/665/98 86/248/224 82/666/390
f 15/397/335 164/590/442 125/562/429
f 217/627/460 394/101/99 427/667/127
f 121/92/90 358/223/204 119/622/458
f 259/664/477 22/599/448 18/668/478
f 243/254/230 501/600/449 353/669/479
f 499/438/364 184/199/186 220/201/188
f 474/558/427 207/489/391 469/155/149
f 378/222/203 121/92/90 348/94/92
f 123/326/284 213/547/420 102/428/356
f 439/670/480 204/449/368 457/182/173
f 156/348/300 497/236/214 237/2/2
f 137/429/357 291/431/359 47/430/358
f 221/337/290 478/336/289 481/553/424
f 150/671/481 426/672/482 421/673/483
f 240/512/401 184/199/186 499/438/364
f 71/11/11 321/674/147 323/511/146
f 295/675/484 301/676/485 130/604/181
f 242/677/229 165/678/486 502/659/330
f 470/156/150 468/425/354 396/679/487
f 424/680/438 273/138/132 227/137/131
f 141/575/435 3/197/184 15/397/335
f 128/681/384 127/682/308 68/683/362
f 41/570/432 1/29/29 281/439/210
f 471/280/56 208/157/151 195/557/397
f 61/684/113 299/685/160 62/686/114
f 109/275/248 448/569/195 90/516/403
f 52/454/373 53/531/412 288/455/374
f 458/687/94 371/688/488 360/689/489
f 76/690/38 326/58/58 322/691/490
f 12/614/454 249/450/369 13/550/422
f 334/692/466 335/535/415 89/693/303
f 337/358/84 455/357/307 414/469/382
f 462/378/322 108/88/86 372/87/85
f 68/434/362 97/433/361 128/471/384
f 138/346/298 483/140/134 485/142/136
f 113/694/407 452/470/383 351/210/193
f 466/52/52 477/314/273 129/53/53
f 349/274/247 448/569/195 109/275/248
f 234/695/318 361/312/271 107/371/23
f 167/530/411 49/456/375 53/531/412
f 275/191/180 1/29/29 41/570/432
f 80/696/83 174/525/408 389/526/81
f 251/110/106 422/216/198 148/697/491
f 316/560/428 352/501/398 317/432/360
f 39/541/48 38/567/179 173/542/192
f 127/647/308 103/623/459 119/622/458
f 359/538/417 460/586/440 439/698/480
f 483/140/134 223/345/297 484/251/227
f 198/618/451 376/473/386 354/619/455
f 502/659/330 495/420/119 419/699/121
f 79/700/363 220/201/188 241/200/187
f 474/558/427 469/155/149 385/281/55
f 435/214/196 352/501/398 99/212/194
f 270/256/205 142/255/231 272/108/104
f 134/78/76 162/77/75 125/562/429
f 208/157/151 385/281/55 469/155/149
f 454/468/381 266/661/475 57/577/436
f 47/430/358 46/616/64 50/635/410
f 297/607/117 59/589/159 296/413/346
f 156/348/300 175/267/240 19/269/242
f 312/65/65 115/49/49 380/35/35
f 112/460/376 75/81/79 104/80/78
f 254/238/216 16/701/350 248/239/217
f 351/574/193 378/222/203 113/523/407
f 179/609/452 200/702/492 198/618/451
f 322/703/490 325/704/493 194/705/292
f 28/706/191 37/18/18 274/17/17
f 110/372/24 362/313/272 438/380/275
f 262/707/61 26/708/60 27/709/138
f 377/151/145 185/150/144 330/59/59
f 386/490/207 474/558/427 163/427/232
f 424/680/438 229/579/425 273/138/132
f 98/338/291 477/710/273 324/711/282
f 304/712/405 301/676/485 303/713/404
f 481/553/424 432/552/423 225/325/283
f 447/592/443 396/679/487 468/425/354
f 400/714/494 5/549/421 158/715/495
f 502/659/330 165/678/486 413/270/243
f 384/366/313 332/651/472 118/636/465
f 76/38/38 116/386/328 85/39/39
f 2/315/274 152/465/380 197/311/270
f 301/676/485 375/716/115 300/717/446
f 447/592/443 146/718/304 355/591/67
f 354/619/455 376/473/386 101/360/77
f 197/311/270 152/465/380 199/44/44
f 393/452/371 379/10/10 218/719/406
f 209/100/98 82/486/390 473/98/96
f 462/378/322 372/87/85 364/161/155
f 473/98/96 212/517/285 373/99/97
f 374/487/311 473/98/96 82/486/390
f 443/276/249 442/534/414 335/535/415
f 12/614/454 9/593/444 49/456/375
f 141/575/435 358/223/204 378/222/203
f 496/1/1 161/3/3 418/409/342
f 157/125/120 418/409/342 161/3/3
f 131/563/430 193/381/323 368/93/91
f 477/314/273 216/322/280 324/324/282
f 212/517/285 211/54/54 471/56/56
f 334/637/466 106/350/302 88/638/43
f 33/457/219 187/295/251 32/289/257
f 102/428/356 163/427/232 211/327/54
f 360/689/489 371/688/488 359/538/417
f 421/673/483 426/672/482 371/688/488
f 265/495/394 25/203/139 428/205/190
f 98/338/291 324/711/282 476/496/281
f 362/313/272 348/94/92 368/93/91
f 307/298/262 210/642/183 64/296/261
f 215/113/109 397/112/108 343/227/206
f 325/720/493 70/57/57 185/150/144
f 144/9/9 402/721/170 488/7/7
f 241/200/187 184/199/186 243/254/230
f 255/417/349 251/110/106 453/109/105
f 167/530/411 50/529/410 286/63/63
f 50/529/410 46/64/64 286/63/63
f 400/714/494 52/454/373 9/593/444
f 491/509/400 228/585/439 434/722/434
f 103/623/459 131/563/430 368/93/91
f 298/655/474 56/723/496 391/601/450
f 61/724/113 7/164/158 299/166/160
f 196/725/45 191/440/312 222/442/366
f 124/246/222 287/84/82 382/370/316
f 23/76/74 270/256/205 259/664/477
f 69/628/461 316/560/428 317/432/360
f 113/523/407 378/222/203 348/94/92
f 463/726/339 186/183/174 464/448/367
f 248/727/217 16/418/350 256/582/347
f 127/647/308 128/471/384 103/623/459
f 128/471/384 392/472/385 103/623/459
f 412/571/433 157/125/120 161/3/3
f 313/405/50 75/81/79 356/406/341
f 262/707/61 27/709/138 25/728/139
f 434/573/434 227/137/131 344/644/468
f 224/317/276 430/368/315 398/141/135
f 432/552/423 138/346/298 485/142/136
f 277/729/111 60/192/33 275/191/180
f 474/558/427 386/490/207 207/489/391
f 446/369/175 102/428/356 213/547/420
f 137/429/357 433/498/396 291/431/359
f 290/232/211 166/730/234 93/230/209
f 255/417/349 338/648/470 423/649/471
f 299/632/160 120/12/12 65/633/464
f 412/571/433 239/235/213 79/436/363
f 256/582/347 417/424/353 257/134/128
f 487/169/162 410/219/118 58/170/163
f 448/569/195 349/274/247 100/731/392
f 450/320/278 312/65/65 46/64/64
f 439/698/480 460/586/440 204/732/368
f 163/427/232 214/733/41 190/734/208
f 222/442/366 87/441/365 105/735/250
f 83/662/476 332/651/472 85/39/39
f 420/736/497 426/672/482 150/671/481
f 189/453/372 174/525/408 78/391/332
f 383/646/469 312/65/65 380/35/35
f 20/15/15 18/668/478 175/267/240
f 304/519/405 305/218/200 306/217/199
f 363/737/498 500/540/419 159/539/418
f 457/182/173 204/449/368 186/183/174
f 213/547/420 123/326/284 8/643/467
f 7/164/158 375/738/115 298/739/474
f 170/13/13 266/661/475 263/14/14
f 282/384/326 168/383/325 284/28/28
f 178/25/25 155/740/499 350/26/26
f 480/741/265 41/570/432 247/302/264
f 303/518/404 395/19/19 305/218/200
f 327/293/259 91/292/258 318/176/169
f 125/562/429 198/602/451 200/742/492
f 297/607/117 149/264/237 232/220/201
f 284/28/28 281/439/210 1/29/29
f 309/20/20 185/150/144 308/21/21
f 466/52/52 343/227/206 397/112/108
f 105/735/250 87/441/365 86/524/224
f 194/339/292 73/234/212 182/233/148
f 106/350/302 334/637/466 89/351/303
f 461/400/337 181/426/355 366/401/338
f 226/743/116 299/744/160 59/745/159
f 480/394/265 34/746/112 277/395/111
f 43/162/156 292/308/267 4/171/164
f 22/599/448 270/256/205 29/597/255
f 375/738/115 7/164/158 61/724/113
f 499/438/364 220/201/188 145/136/130
f 300/596/446 62/119/114 303/747/404
f 155/740/499 338/648/470 453/109/105
f 180/377/321 201/72/71 416/375/319
f 421/673/483 371/688/488 458/687/94
f 452/470/383 113/694/407 111/615/317
f 335/535/415 109/275/248 89/693/303
f 383/646/469 69/628/461 449/131/126
f 500/540/419 426/672/482 498/581/437
f 143/6/6 27/144/138 268/244/141
f 72/451/370 117/340/293 321/674/147
f 15/397/335 179/748/452 141/575/435
f 290/260/211 281/439/210 284/28/28
f 444/390/331 117/340/293 189/453/372
f 206/536/416 205/749/413 129/537/53
f 40/650/69 55/499/68 289/463/378
f 63/603/182 64/296/261 210/642/183
f 301/676/485 300/717/446 303/713/404
f 212/328/285 8/643/467 123/326/284
f 104/80/78 390/149/143 377/151/145
f 227/137/131 139/318/277 344/644/468
f 484/251/227 223/345/297 139/318/277
f 74/132/40 445/114/110 215/113/109
f 345/493/393 131/563/430 392/472/385
f 344/644/468 481/553/424 434/573/434
f 280/750/32 35/105/103 173/208/192
f 426/672/482 500/540/419 192/751/500
f 92/310/269 90/516/403 2/315/274
f 408/174/167 432/552/423 485/142/136
f 429/652/473 57/577/436 266/661/475
f 399/211/185 452/470/383 414/469/382
f 327/293/259 318/176/169 203/752/377
f 440/97/95 360/753/489 457/182/173
f 360/753/489 439/670/480 457/182/173
f 423/649/471 172/478/389 255/417/349
f 152/465/380 330/458/59 326/595/58
f 341/168/161 58/170/163 232/220/201
f 158/754/495 21/755/447 166/756/234
f 149/264/237 297/607/117 296/413/346
f 254/238/216 250/757/197 16/701/350
f 253/237/215 248/239/217 245/758/329
f 176/403/263 274/106/17 272/108/104
f 268/244/141 26/60/60 267/163/157
f 28/206/191 169/4/4 37/459/18
f 451/475/387 116/386/328 84/476/388
f 267/163/157 269/423/142 268/244/141
f 422/216/198 254/341/216 11/759/501
f 104/80/78 310/82/80 390/149/143
f 443/276/249 333/250/226 442/534/414
f 407/158/152 401/631/463 95/90/88
f 500/540/419 363/737/498 192/751/500
f 145/136/130 171/135/129 499/438/364
f 8/643/467 118/636/465 213/547/420
f 454/468/381 265/760/394 266/661/475
f 179/748/452 15/397/335 200/742/492
f 218/719/406 120/12/12 490/761/456
f 302/762/502 415/580/279 450/763/278
f 196/725/45 222/442/366 88/638/43
f 367/51/51 386/228/207 466/52/52
f 245/758/329 11/764/501 253/237/215
f 282/384/326 275/191/180 38/190/179
f 381/27/27 350/26/26 342/66/66
f 340/71/70 108/88/86 201/72/71
f 431/288/256 167/530/411 286/63/63
f 285/411/344 49/456/375 167/530/411
f 256/582/347 172/478/389 500/540/419
f 59/165/159 7/164/158 298/739/474
f 142/255/231 176/403/263 272/108/104
f 14/396/334 13/550/422 164/590/442
f 32/289/257 166/730/234 29/290/255
f 136/196/107 15/397/335 3/197/184
f 389/526/81 393/452/371 475/765/402
f 292/308/267 126/47/47 4/171/164
f 336/273/246 438/316/275 349/274/247
f 336/273/246 442/534/414 357/128/123
f 343/766/206 466/767/52 386/768/207
f 227/137/131 486/139/133 224/317/276
f 371/688/488 426/672/482 192/751/500
f 81/385/327 114/528/409 80/85/83
f 421/769/483 411/566/431 150/770/481
f 436/247/223 85/39/39 116/386/328
f 40/483/69 38/771/179 39/484/48
f 135/343/295 387/342/294 47/430/358
f 294/309/268 130/604/181 210/642/183
f 391/601/450 56/723/496 6/62/62
f 5/772/421 148/697/491 422/216/198
f 411/566/431 432/552/423 408/174/167
f 228/585/439 479/508/399 402/178/170
f 498/581/437 240/512/401 499/438/364
f 12/614/454 285/411/344 249/450/369
f 261/773/73 260/774/177 23/775/74
f 42/776/233 51/777/345 52/454/373
f 332/651/472 83/662/476 436/247/223
f 437/334/220 316/560/428 383/646/469
f 75/319/79 115/49/49 450/320/278
f 468/425/354 469/155/149 207/489/391
f 404/778/457 120/12/12 299/632/160
f 169/4/4 263/779/14 428/551/190
f 439/698/480 360/689/489 359/538/417
f 150/770/481 411/566/431 408/174/167
f 434/573/434 481/553/424 478/336/289
f 71/11/11 379/10/10 72/451/370
f 351/574/193 3/197/184 141/575/435
f 296/576/346 96/656/441 57/577/436
f 266/661/475 265/760/394 263/14/14
f 395/19/19 62/634/114 323/511/146
f 465/594/445 205/749/413 66/355/306
f 35/105/103 278/104/102 173/208/192
f 323/511/146 65/633/464 120/12/12
f 170/13/13 20/15/15 258/630/462
f 252/159/153 413/780/243 235/781/166
f 364/161/155 365/127/122 462/378/322
f 356/406/341 320/462/202 177/663/168
f 73/234/212 194/339/292 325/720/493
f 272/108/104 29/597/255 270/256/205
f 84/583/388 76/690/38 322/691/490
f 43/162/156 56/723/496 294/309/268
f 14/629/334 148/697/491 5/772/421
f 231/613/239 233/578/238 153/611/453
f 447/592/443 347/376/320 396/679/487
f 350/26/26 455/357/307 340/356/70
f 475/782/402 382/783/316 287/784/82
f 139/318/277 223/345/297 344/644/468
f 460/785/440 461/400/337 464/786/367
f 18/668/478 22/599/448 246/268/241
f 95/90/88 258/630/462 409/91/89
f 412/571/433 161/3/3 239/235/213
f 140/349/301 237/2/2 258/630/462
f 435/214/196 448/213/195 100/492/392
f 109/352/248 90/787/403 106/350/302
f 242/253/229 456/506/137 241/200/187
f 118/636/465 436/247/223 124/246/222
f 205/533/413 465/653/445 366/401/338
f 44/46/46 279/107/16 4/171/164
f 258/630/462 175/267/240 140/349/301
f 346/485/309 339/556/426 68/434/362
f 383/646/469 316/560/428 69/628/461
f 143/6/6 24/5/5 27/144/138
f 84/476/388 116/386/328 76/38/38
f 284/28/28 54/416/348 290/260/211
f 429/652/473 233/578/238 57/577/436
f 219/510/395 476/323/281 479/508/399
f 268/244/141 27/144/138 26/60/60
f 429/652/473 153/611/453 233/578/238
f 165/678/486 353/788/479 420/789/497
f 54/416/348 48/464/379 51/412/345
f 155/740/499 363/737/498 159/539/418
f 64/296/261 301/676/485 304/712/405
f 395/19/19 182/233/148 309/20/20
f 315/34/34 383/646/469 380/35/35
f 475/513/402 217/627/460 467/42/42
f 217/627/460 74/40/40 467/42/42
f 74/40/40 215/481/109 214/41/41
f 70/57/57 322/691/490 326/58/58
f 330/59/59 185/150/144 70/57/57
f 389/83/81 475/790/402 287/84/82
f 337/86/84 111/373/317 372/87/85
f 238/89/87 252/159/153 95/90/88
f 121/92/90 103/623/459 368/93/91
f 151/95/93 421/769/483 458/96/94
f 136/111/107 399/211/185 453/109/105
f 399/211/185 414/469/382 453/109/105
f 445/114/110 427/133/127 216/322/280
f 216/322/280 397/112/108 445/114/110
f 133/129/124 134/78/76 45/130/125
f 390/149/143 308/21/21 185/150/144
f 154/160/154 153/611/453 407/158/152
f 153/611/453 429/652/473 407/158/152
f 429/652/473 401/631/463 407/158/152
f 235/781/166 405/283/253 252/159/153
f 43/162/156 4/171/164 267/163/157
f 341/168/161 144/362/9 487/169/162
f 485/142/136 430/368/315 408/174/167
f 430/368/315 236/172/165 408/174/167
f 463/726/339 465/594/445 186/183/174
f 465/791/445 183/792/172 186/793/174
f 308/21/21 310/82/80 306/217/199
f 320/221/202 203/752/377 318/176/169
f 93/230/209 187/295/251 281/231/210
f 279/107/16 269/423/142 4/171/164
f 298/655/474 375/716/115 295/675/484
f 409/91/89 258/630/462 237/2/2
f 443/276/249 86/248/224 333/250/226
f 86/248/224 195/557/397 472/249/225
f 472/249/225 396/679/487 333/250/226
f 484/251/227 224/317/276 398/141/135
f 353/669/479 242/253/229 243/254/230
f 260/188/177 30/187/176 142/255/231
f 175/267/240 18/668/478 246/268/241
f 286/63/63 383/646/469 449/131/126
f 226/794/116 404/778/457 299/632/160
f 64/296/261 304/712/405 306/297/199
f 199/44/44 88/43/43 92/310/269
f 361/312/271 113/523/407 348/94/92
f 370/382/324 225/325/283 440/97/95
f 154/160/154 252/159/153 405/283/253
f 13/550/422 5/549/421 9/593/444
f 5/549/421 400/714/494 9/593/444
f 493/367/314 236/172/165 430/368/315
f 442/534/414 333/250/226 365/127/122
f 333/250/226 396/679/487 416/375/319
f 396/679/487 347/376/320 416/375/319
f 416/375/319 201/72/71 462/378/322
f 462/378/322 365/127/122 333/250/226
f 365/127/122 357/128/123 442/534/414
f 246/268/241 21/598/447 245/387/329
f 21/755/447 158/754/495 245/795/329
f 463/402/339 464/786/367 461/400/337
f 447/592/443 468/425/354 461/400/337
f 285/411/344 167/530/411 431/288/256
f 431/288/256 45/130/125 285/411/344
f 168/383/325 40/650/69 289/463/378
f 406/421/351 424/584/438 425/422/352
f 256/582/347 498/581/437 417/424/353
f 498/581/437 499/438/364 417/424/353
f 424/584/438 406/421/351 229/555/425
f 72/451/370 379/10/10 393/452/371
f 112/460/376 377/151/145 203/461/377
f 205/533/413 366/401/338 367/491/51
f 366/401/338 207/489/391 367/491/51
f 470/156/150 396/679/487 472/249/225
f 20/15/15 263/14/14 264/74/72
f 352/501/398 316/560/428 77/333/288
f 433/498/396 137/429/357 48/464/379
f 195/500/397 373/99/97 212/517/285
f 218/520/406 217/627/460 475/513/402
f 174/525/408 189/453/372 393/452/371
f 442/534/414 336/273/246 109/275/248
f 146/353/304 460/586/440 359/538/417
f 244/605/245 202/796/228 94/797/244
f 384/366/313 212/328/285 473/548/96
f 122/410/343 45/130/125 134/78/76
f 73/234/212 325/720/493 185/150/144
f 172/478/389 423/649/471 159/539/418
f 230/798/336 229/555/425 188/404/340
f 84/583/388 322/691/490 194/339/292
f 193/381/323 438/380/275 362/313/272
f 441/354/305 440/97/95 457/182/173
f 302/762/502 135/343/295 210/642/183
f 22/599/448 29/597/255 21/598/447
f 34/117/112 33/241/219 147/103/101
f 490/761/456 120/12/12 404/778/457
f 257/415/128 145/799/130 244/605/245
f 153/611/453 154/160/154 17/612/287
f 345/493/393 392/472/385 97/433/361
f 468/425/354 207/489/391 181/426/355
f 47/430/358 387/342/294 311/344/296
f 218/520/406 490/620/456 217/627/460
f 310/82/80 75/81/79 415/800/279
f 458/96/94 360/753/489 440/97/95
f 251/110/106 148/697/491 14/629/334
f 116/386/328 451/475/387 114/528/409
f 384/366/313 196/45/45 332/651/472
f 196/45/45 328/102/100 332/651/472
f 222/442/366 105/735/250 334/637/466
f 199/44/44 152/465/380 328/102/100
f 449/131/126 69/628/461 339/556/426
f 398/141/135 430/368/315 485/142/136
f 332/651/472 328/102/100 329/37/37
f 94/271/244 239/235/213 497/236/214
f 450/763/278 46/616/64 311/344/296
f 311/344/296 135/343/295 302/762/502
f 450/763/278 311/344/296 302/762/502
f 342/657/66 180/377/321 347/376/320
f 282/384/326 283/30/30 275/191/180
f 209/665/98 195/557/397 86/248/224
f 217/627/460 489/8/8 394/101/99
f 225/325/283 370/382/324 481/553/424
f 370/382/324 221/337/290 481/553/424
f 71/11/11 72/451/370 321/674/147
f 130/604/181 56/723/496 295/675/484
f 56/723/496 298/655/474 295/675/484
f 126/47/47 291/431/359 55/499/68
f 239/235/213 94/271/244 202/437/228
f 434/573/434 228/801/439 227/137/131
f 228/801/439 424/680/438 227/137/131
f 334/692/466 105/277/250 335/535/415
f 462/378/322 201/72/71 108/88/86
f 234/695/318 111/522/317 361/312/271
f 275/191/180 283/30/30 1/29/29
f 456/506/137 412/802/433 241/200/187
f 412/802/433 79/700/363 241/200/187
f 112/460/376 356/406/341 75/81/79
f 322/703/490 70/803/57 325/704/493
f 192/751/500 363/737/498 178/25/25
f 363/737/498 155/740/499 178/25/25
f 327/804/259 203/461/377 330/59/59
f 203/461/377 377/151/145 330/59/59
f 98/805/291 129/53/53 477/314/273
f 440/97/95 441/354/305 370/382/324
f 301/676/485 295/675/484 375/716/115
f 447/592/443 461/400/337 146/718/304
f 477/314/273 397/112/108 216/322/280
f 88/638/43 106/350/302 92/806/269
f 106/350/302 90/787/403 92/806/269
f 255/417/349 250/215/197 251/110/106
f 163/427/232 446/369/175 214/733/41
f 420/736/497 353/669/479 426/672/482
f 20/15/15 259/664/477 18/668/478
f 96/656/441 59/807/159 298/655/474
f 427/667/127 74/40/40 217/627/460
f 480/741/265 275/191/180 41/570/432
f 200/742/492 15/397/335 125/562/429
f 210/642/183 307/298/262 302/762/502
f 487/488/162 144/9/9 404/621/457
f 144/9/9 489/8/8 404/621/457
f 404/621/457 226/121/116 487/488/162
f 480/394/265 276/808/236 34/746/112
f 202/796/228 244/605/245 145/799/130
f 22/599/448 259/664/477 270/256/205
f 455/357/307 155/740/499 453/109/105
f 155/740/499 159/539/418 338/648/470
f 338/648/470 255/417/349 453/109/105
f 194/339/292 117/340/293 444/390/331
f 117/340/293 72/451/370 189/453/372
f 206/536/416 66/355/306 205/749/413
f 482/347/299 481/553/424 344/644/468
f 280/32/32 10/31/31 35/809/103
f 399/211/185 351/210/193 452/470/383
f 329/37/37 152/465/380 326/595/58
f 8/643/467 384/366/313 118/636/465
f 454/468/381 262/61/61 265/760/394
f 218/810/406 379/811/10 120/812/12
f 302/762/502 307/298/262 415/580/279
f 158/813/495 11/759/501 245/814/329
f 11/764/501 254/238/216 253/237/215
f 391/601/450 57/577/436 96/656/441
f 32/289/257 93/230/209 166/730/234
f 292/308/267 291/431/359 126/47/47
f 71/11/11 323/511/146 120/12/12
f 172/478/389 256/582/347 16/418/350
f 381/27/27 359/538/417 192/751/500
f 359/538/417 371/688/488 192/751/500
f 426/672/482 353/669/479 501/600/449
f 501/600/449 498/581/437 426/672/482
f 178/25/25 381/27/27 192/751/500
f 421/769/483 151/95/93 411/566/431
f 294/309/268 56/723/496 130/604/181
f 422/216/198 11/759/501 5/772/421
f 11/759/501 158/813/495 5/772/421
f 411/566/431 225/325/283 432/552/423
f 339/556/426 317/432/360 68/434/362
f 354/619/455 127/359/308 119/815/458
f 149/264/237 17/330/287 341/168/161
f 17/330/287 425/422/352 341/168/161
f 425/422/352 228/585/439 459/363/310
f 479/508/399 476/323/281 132/179/171
f 476/323/281 216/322/280 132/179/171
f 228/585/439 491/509/400 479/508/399
f 232/220/201 149/264/237 341/168/161
f 402/178/170 459/363/310 228/585/439
f 459/363/310 341/168/161 425/422/352
f 216/322/280 427/133/127 132/179/171
f 132/179/171 402/178/170 479/508/399
f 261/773/73 31/816/178 260/774/177
f 53/645/412 52/817/373 51/412/345
f 52/454/373 400/714/494 42/776/233
f 400/818/494 158/819/495 42/258/233
f 42/258/233 158/819/495 166/259/234
f 383/646/469 315/34/34 437/334/220
f 75/319/79 313/50/50 115/49/49
f 413/270/243 165/678/486 408/174/167
f 165/678/486 420/789/497 408/174/167
f 420/789/497 150/770/481 408/174/167
f 478/336/289 219/497/395 434/573/434
f 303/747/404 62/119/114 395/820/19
f 62/821/114 65/822/464 323/823/146
f 179/609/452 354/619/455 119/815/458
f 119/815/458 358/610/204 179/609/452
f 365/127/122 369/22/22 110/24/24
f 252/159/153 494/202/189 413/780/243
f 364/161/155 369/22/22 365/127/122
f 356/406/341 112/460/376 320/462/202
f 43/162/156 6/62/62 56/723/496
f 169/4/4 143/6/6 37/459/18
f 143/6/6 160/243/140 37/459/18
f 244/605/245 245/758/329 248/239/217
f 350/26/26 155/740/499 455/357/307
f 95/90/88 401/631/463 258/630/462
f 118/636/465 332/651/472 436/247/223
f 258/630/462 20/15/15 175/267/240
f 98/338/291 221/337/290 206/536/416
f 165/678/486 242/677/229 353/788/479
f 357/824/123 110/372/24 438/380/275
f 64/296/261 130/604/181 301/676/485
